<svg xmlns="http://www.w3.org/2000/svg" xmlns:xlink="http://www.w3.org/1999/xlink" width="500" zoomAndPan="magnify" viewBox="0 0 375 374.999991" height="500" preserveAspectRatio="xMidYMid meet" version="1.0"><path fill="#ffffff" d="M 252.539062 49.96875 C 251.824219 49.355469 251.054688 48.824219 250.230469 48.367188 C 249.40625 47.910156 248.546875 47.539062 247.648438 47.253906 C 246.75 46.972656 245.832031 46.777344 244.894531 46.679688 C 243.957031 46.578125 243.019531 46.574219 242.082031 46.664062 C 241.144531 46.75 240.226562 46.933594 239.324219 47.207031 C 238.425781 47.480469 237.558594 47.839844 236.730469 48.285156 C 235.902344 48.734375 235.125 49.257812 234.402344 49.863281 C 233.679688 50.464844 233.023438 51.132812 232.433594 51.871094 C 231.84375 52.605469 231.335938 53.390625 230.902344 54.226562 C 230.472656 55.066406 230.128906 55.9375 229.875 56.84375 C 229.617188 57.75 229.453125 58.671875 229.382812 59.613281 C 229.3125 60.550781 229.335938 61.488281 229.457031 62.421875 C 229.574219 63.359375 229.78125 64.269531 230.085938 65.164062 C 230.386719 66.054688 230.773438 66.910156 231.246094 67.722656 C 231.71875 68.539062 232.269531 69.296875 232.894531 70 C 233.519531 70.707031 234.207031 71.339844 234.960938 71.90625 L 270.117188 100.03125 C 270.734375 100.527344 271.390625 100.96875 272.085938 101.351562 C 272.78125 101.734375 273.5 102.058594 274.25 102.324219 C 274.996094 102.585938 275.761719 102.78125 276.542969 102.917969 C 277.324219 103.050781 278.113281 103.117188 278.90625 103.117188 C 279.699219 103.117188 280.488281 103.050781 281.269531 102.917969 C 282.050781 102.78125 282.816406 102.585938 283.5625 102.324219 C 284.3125 102.058594 285.03125 101.734375 285.726562 101.351562 C 286.417969 100.96875 287.078125 100.527344 287.695312 100.03125 L 322.851562 71.90625 C 323.539062 71.320312 324.164062 70.671875 324.726562 69.960938 C 325.292969 69.253906 325.78125 68.5 326.199219 67.695312 C 326.617188 66.890625 326.953125 66.058594 327.207031 65.1875 C 327.464844 64.320312 327.632812 63.4375 327.71875 62.535156 C 327.804688 61.636719 327.804688 60.734375 327.714844 59.832031 C 327.625 58.933594 327.453125 58.050781 327.191406 57.183594 C 326.933594 56.316406 326.59375 55.480469 326.171875 54.679688 C 325.753906 53.878906 325.257812 53.125 324.695312 52.417969 C 324.128906 51.710938 323.5 51.066406 322.808594 50.480469 C 322.117188 49.898438 321.378906 49.382812 320.589844 48.941406 C 319.800781 48.5 318.976562 48.136719 318.117188 47.855469 C 317.257812 47.570312 316.378906 47.375 315.480469 47.261719 C 314.582031 47.148438 313.683594 47.121094 312.777344 47.179688 C 311.875 47.242188 310.988281 47.386719 310.113281 47.621094 C 309.238281 47.851562 308.394531 48.164062 307.578125 48.5625 C 306.765625 48.957031 305.996094 49.425781 305.273438 49.96875 L 278.90625 71.0625 Z M 187.5 75 C 188.878906 75 190.226562 75.195312 191.542969 75.589844 C 192.863281 75.984375 194.097656 76.5625 195.25 77.320312 C 196.398438 78.078125 197.414062 78.984375 198.296875 80.039062 C 199.183594 81.09375 199.894531 82.257812 200.4375 83.523438 L 284.796875 280.398438 C 285.148438 281.242188 285.410156 282.113281 285.589844 283.011719 C 285.765625 283.910156 285.855469 284.816406 285.859375 285.730469 C 285.859375 286.644531 285.773438 287.550781 285.597656 288.449219 C 285.421875 289.347656 285.160156 290.21875 284.816406 291.066406 C 284.46875 291.914062 284.046875 292.71875 283.542969 293.484375 C 283.039062 294.25 282.46875 294.957031 281.828125 295.609375 C 281.183594 296.261719 280.488281 296.847656 279.730469 297.363281 C 278.976562 297.878906 278.179688 298.316406 277.335938 298.679688 C 276.496094 299.039062 275.628906 299.3125 274.734375 299.503906 C 273.839844 299.695312 272.933594 299.800781 272.019531 299.8125 C 271.105469 299.828125 270.195312 299.753906 269.296875 299.589844 C 268.394531 299.429688 267.519531 299.179688 266.667969 298.847656 C 265.816406 298.515625 265.003906 298.101562 264.234375 297.609375 C 263.460938 297.117188 262.746094 296.554688 262.082031 295.921875 C 261.421875 295.292969 260.828125 294.601562 260.300781 293.851562 C 259.773438 293.105469 259.324219 292.3125 258.953125 291.476562 L 232.472656 229.6875 L 142.527344 229.6875 L 116.0625 291.476562 C 115.691406 292.3125 115.242188 293.105469 114.714844 293.851562 C 114.1875 294.601562 113.59375 295.292969 112.929688 295.921875 C 112.269531 296.554688 111.550781 297.117188 110.78125 297.609375 C 110.007812 298.101562 109.199219 298.515625 108.347656 298.847656 C 107.492188 299.179688 106.617188 299.429688 105.71875 299.59375 C 104.816406 299.753906 103.910156 299.828125 102.996094 299.8125 C 102.078125 299.800781 101.175781 299.695312 100.28125 299.503906 C 99.386719 299.316406 98.519531 299.039062 97.675781 298.679688 C 96.835938 298.316406 96.039062 297.878906 95.28125 297.363281 C 94.527344 296.847656 93.828125 296.261719 93.1875 295.609375 C 92.546875 294.957031 91.972656 294.25 91.472656 293.484375 C 90.96875 292.71875 90.542969 291.914062 90.199219 291.066406 C 89.851562 290.21875 89.589844 289.347656 89.417969 288.449219 C 89.242188 287.550781 89.152344 286.644531 89.15625 285.730469 C 89.15625 284.816406 89.246094 283.910156 89.425781 283.011719 C 89.605469 282.113281 89.867188 281.242188 90.214844 280.398438 L 174.589844 83.523438 C 175.132812 82.257812 175.84375 81.097656 176.726562 80.042969 C 177.605469 78.988281 178.621094 78.082031 179.769531 77.328125 C 180.914062 76.570312 182.148438 75.992188 183.464844 75.597656 C 184.78125 75.199219 186.125 75 187.5 75 M 187.5 124.765625 L 154.59375 201.546875 L 220.40625 201.546875 Z M 187.5 124.765625 " fill-opacity="1" fill-rule="nonzero"/></svg>