<svg xmlns="http://www.w3.org/2000/svg" xmlns:xlink="http://www.w3.org/1999/xlink" width="500" zoomAndPan="magnify" viewBox="0 0 375 374.999991" height="500" preserveAspectRatio="xMidYMid meet" version="1.0"><path fill="#ffffff" d="M 252.539062 100.03125 C 251.816406 100.574219 251.046875 101.042969 250.234375 101.4375 C 249.417969 101.835938 248.574219 102.148438 247.699219 102.378906 C 246.824219 102.613281 245.9375 102.757812 245.035156 102.820312 C 244.128906 102.878906 243.230469 102.851562 242.332031 102.738281 C 241.433594 102.625 240.554688 102.429688 239.695312 102.144531 C 238.835938 101.863281 238.011719 101.5 237.222656 101.058594 C 236.433594 100.617188 235.695312 100.101562 235.003906 99.519531 C 234.3125 98.933594 233.683594 98.289062 233.117188 97.582031 C 232.554688 96.875 232.058594 96.121094 231.640625 95.320312 C 231.21875 94.519531 230.878906 93.683594 230.621094 92.816406 C 230.359375 91.949219 230.1875 91.066406 230.097656 90.167969 C 230.007812 89.265625 230.007812 88.363281 230.09375 87.464844 C 230.179688 86.5625 230.347656 85.679688 230.605469 84.8125 C 230.859375 83.941406 231.195312 83.109375 231.613281 82.304688 C 232.03125 81.5 232.519531 80.746094 233.085938 80.039062 C 233.648438 79.328125 234.273438 78.679688 234.960938 78.09375 L 270.117188 49.96875 C 270.734375 49.472656 271.390625 49.03125 272.085938 48.648438 C 272.78125 48.265625 273.5 47.941406 274.25 47.675781 C 274.996094 47.414062 275.761719 47.21875 276.542969 47.082031 C 277.324219 46.949219 278.113281 46.882812 278.90625 46.882812 C 279.699219 46.882812 280.488281 46.949219 281.269531 47.082031 C 282.050781 47.21875 282.816406 47.414062 283.5625 47.675781 C 284.3125 47.941406 285.03125 48.265625 285.726562 48.648438 C 286.417969 49.03125 287.078125 49.472656 287.695312 49.96875 L 322.851562 78.09375 C 323.539062 78.679688 324.164062 79.328125 324.726562 80.039062 C 325.292969 80.746094 325.78125 81.5 326.199219 82.304688 C 326.617188 83.109375 326.953125 83.941406 327.207031 84.8125 C 327.464844 85.679688 327.632812 86.5625 327.71875 87.464844 C 327.804688 88.363281 327.804688 89.265625 327.714844 90.167969 C 327.625 91.066406 327.453125 91.949219 327.191406 92.816406 C 326.933594 93.683594 326.59375 94.519531 326.171875 95.320312 C 325.753906 96.121094 325.257812 96.875 324.695312 97.582031 C 324.128906 98.289062 323.5 98.933594 322.808594 99.519531 C 322.117188 100.101562 321.378906 100.617188 320.589844 101.058594 C 319.800781 101.5 318.976562 101.863281 318.117188 102.144531 C 317.257812 102.429688 316.378906 102.625 315.480469 102.738281 C 314.582031 102.851562 313.683594 102.878906 312.777344 102.820312 C 311.875 102.757812 310.988281 102.613281 310.113281 102.378906 C 309.238281 102.148438 308.394531 101.835938 307.578125 101.4375 C 306.765625 101.042969 305.996094 100.574219 305.273438 100.03125 L 278.90625 78.9375 Z M 200.421875 83.523438 C 199.882812 82.257812 199.167969 81.097656 198.285156 80.042969 C 197.402344 78.988281 196.386719 78.082031 195.238281 77.324219 C 194.089844 76.566406 192.859375 75.992188 191.539062 75.597656 C 190.222656 75.203125 188.875 75.003906 187.5 75.003906 C 186.125 75.003906 184.777344 75.203125 183.460938 75.597656 C 182.140625 75.992188 180.910156 76.566406 179.761719 77.324219 C 178.613281 78.082031 177.597656 78.988281 176.714844 80.042969 C 175.832031 81.097656 175.117188 82.257812 174.578125 83.523438 L 90.203125 280.398438 C 89.851562 281.242188 89.589844 282.113281 89.410156 283.011719 C 89.234375 283.910156 89.144531 284.816406 89.140625 285.730469 C 89.140625 286.644531 89.226562 287.550781 89.402344 288.449219 C 89.578125 289.347656 89.839844 290.21875 90.183594 291.066406 C 90.53125 291.914062 90.953125 292.71875 91.457031 293.484375 C 91.960938 294.25 92.53125 294.957031 93.171875 295.609375 C 93.816406 296.261719 94.511719 296.847656 95.269531 297.363281 C 96.023438 297.878906 96.820312 298.316406 97.664062 298.679688 C 98.503906 299.039062 99.371094 299.316406 100.265625 299.503906 C 101.160156 299.695312 102.066406 299.800781 102.980469 299.8125 C 103.894531 299.828125 104.804688 299.753906 105.703125 299.59375 C 106.605469 299.429688 107.480469 299.179688 108.332031 298.847656 C 109.183594 298.515625 109.996094 298.101562 110.765625 297.609375 C 111.539062 297.117188 112.253906 296.554688 112.917969 295.921875 C 113.578125 295.292969 114.171875 294.601562 114.699219 293.851562 C 115.226562 293.105469 115.675781 292.3125 116.046875 291.476562 L 142.542969 229.6875 L 232.472656 229.6875 L 258.953125 291.476562 C 259.324219 292.3125 259.773438 293.105469 260.300781 293.851562 C 260.828125 294.601562 261.421875 295.292969 262.082031 295.921875 C 262.746094 296.554688 263.460938 297.117188 264.234375 297.609375 C 265.003906 298.101562 265.816406 298.515625 266.667969 298.847656 C 267.519531 299.179688 268.394531 299.429688 269.296875 299.589844 C 270.195312 299.753906 271.105469 299.828125 272.019531 299.8125 C 272.933594 299.800781 273.839844 299.695312 274.734375 299.503906 C 275.628906 299.3125 276.496094 299.039062 277.335938 298.679688 C 278.179688 298.316406 278.976562 297.878906 279.730469 297.363281 C 280.488281 296.847656 281.183594 296.261719 281.828125 295.609375 C 282.46875 294.957031 283.039062 294.25 283.542969 293.484375 C 284.046875 292.71875 284.46875 291.914062 284.816406 291.066406 C 285.160156 290.21875 285.421875 289.347656 285.597656 288.449219 C 285.773438 287.550781 285.859375 286.644531 285.859375 285.730469 C 285.855469 284.816406 285.765625 283.910156 285.589844 283.011719 C 285.410156 282.113281 285.148438 281.242188 284.796875 280.398438 Z M 187.5 124.78125 L 220.40625 201.5625 L 154.59375 201.5625 Z M 187.5 124.78125 " fill-opacity="1" fill-rule="nonzero"/></svg>