<svg xmlns="http://www.w3.org/2000/svg" xmlns:xlink="http://www.w3.org/1999/xlink" width="40" zoomAndPan="magnify" viewBox="0 0 30 30.000001" height="40" preserveAspectRatio="xMidYMid meet" version="1.0"><path stroke-linecap="round" transform="matrix(1.209677, 0, 0, 1.209677, 0.48387, 0.00000193548)" fill="none" stroke-linejoin="round" d="M 4.999167 4.998749 L 19.000835 4.998749 C 19.265627 4.998749 19.520731 5.050415 19.766148 5.153749 C 20.011564 5.253853 20.227919 5.399165 20.41521 5.586457 C 20.602502 5.773749 20.747814 5.990103 20.847919 6.23552 C 20.948023 6.480936 20.999689 6.736041 20.999689 7.000832 L 20.999689 17.001562 C 20.999689 17.266354 20.948023 17.521458 20.847919 17.766875 C 20.747814 18.009062 20.602502 18.225416 20.41521 18.412708 C 20.227919 18.603229 20.011564 18.745312 19.766148 18.848646 C 19.520731 18.94875 19.265627 19.000416 19.000835 19.000416 L 4.999167 19.000416 C 4.734376 19.000416 4.479272 18.94875 4.233855 18.848646 C 3.988438 18.745312 3.772084 18.603229 3.584792 18.412708 C 3.397501 18.225416 3.252188 18.009062 3.152084 17.766875 C 3.05198 17.521458 3.000313 17.266354 3.000313 17.001562 L 3.000313 7.000832 C 3.000313 6.736041 3.05198 6.480936 3.152084 6.23552 C 3.252188 5.990103 3.397501 5.773749 3.584792 5.586457 C 3.772084 5.399165 3.988438 5.253853 4.233855 5.153749 C 4.479272 5.050415 4.734376 4.998749 4.999167 4.998749 Z M 4.999167 4.998749 " stroke="#ffffff" stroke-width="2" stroke-opacity="1" stroke-miterlimit="4"/><path stroke-linecap="round" transform="matrix(1.209677, 0, 0, 1.209677, 0.48387, 0.00000193548)" fill="none" stroke-linejoin="round" d="M 7.001251 14.999479 L 10.99896 14.999479 M 14.999897 14.999479 L 16.998752 14.999479 M 7.001251 10.998541 L 9.000105 10.998541 M 13.001043 10.998541 L 16.998752 10.998541 " stroke="#ffffff" stroke-width="2" stroke-opacity="1" stroke-miterlimit="4"/></svg>