<svg xmlns="http://www.w3.org/2000/svg" xmlns:xlink="http://www.w3.org/1999/xlink" width="500" zoomAndPan="magnify" viewBox="0 0 375 374.999991" height="500" preserveAspectRatio="xMidYMid meet" version="1.0"><defs><g/></defs><g fill="#ffffff" fill-opacity="1"><g transform="translate(76.347656, 308.24998)"><g><path d="M 195.601562 0 L 196.5 0 C 202.800781 0 205.5 -3.601562 203.398438 -9.898438 L 122.699219 -237.601562 C 120.898438 -242.398438 117.601562 -244.5 112.800781 -244.5 L 109.800781 -244.5 C 105 -244.5 101.699219 -242.398438 99.898438 -237.601562 L 19.199219 -9.898438 C 17.101562 -3.601562 19.800781 0 26.101562 0 L 26.699219 0 C 31.5 0 34.800781 -2.101562 36.601562 -6.898438 L 64.800781 -85.800781 L 157.800781 -85.800781 L 185.699219 -6.898438 C 187.199219 -2.101562 190.800781 0 195.601562 0 Z M 70.800781 -102.898438 L 107.101562 -204.601562 L 110.699219 -217.199219 L 111.898438 -217.199219 L 115.800781 -204.601562 L 151.800781 -102.898438 Z M 70.800781 -102.898438 "/></g></g></g></svg>