<svg xmlns="http://www.w3.org/2000/svg" xmlns:xlink="http://www.w3.org/1999/xlink" width="500" zoomAndPan="magnify" viewBox="0 0 375 374.999991" height="500" preserveAspectRatio="xMidYMid meet" version="1.0"><path fill="#ffffff" d="M 153.75 228.984375 L 221.25 228.984375 L 233.554688 263.085938 C 234.492188 265.664062 236.132812 267.773438 238.476562 269.414062 C 240.820312 271.054688 243.398438 271.875 246.210938 271.875 C 250.898438 271.875 254.710938 269.9375 257.644531 266.066406 C 260.578125 262.195312 261.101562 257.921875 259.21875 253.242188 L 205.78125 111.914062 C 204.609375 109.335938 202.851562 107.226562 200.507812 105.585938 C 198.164062 103.945312 195.585938 103.125 192.773438 103.125 L 182.226562 103.125 C 179.414062 103.125 176.835938 103.945312 174.492188 105.585938 C 172.148438 107.226562 170.390625 109.335938 169.21875 111.914062 L 115.78125 253.242188 C 113.90625 257.695312 114.375 261.914062 117.1875 265.898438 C 120 269.882812 123.75 271.875 128.4375 271.875 C 131.484375 271.875 134.125 271.054688 136.355469 269.414062 C 138.585938 267.773438 140.28125 265.546875 141.445312 262.734375 Z M 162.1875 204.375 L 186.796875 134.765625 L 188.203125 134.765625 L 212.8125 204.375 Z M 75 328.125 C 67.265625 328.125 60.648438 325.375 55.144531 319.871094 C 49.640625 314.367188 46.882812 307.742188 46.875 300 L 46.875 75 C 46.875 67.265625 49.632812 60.648438 55.144531 55.144531 C 60.65625 49.640625 67.273438 46.882812 75 46.875 L 300 46.875 C 307.734375 46.875 314.359375 49.632812 319.871094 55.144531 C 325.382812 60.65625 328.132812 67.273438 328.125 75 L 328.125 300 C 328.125 307.734375 325.375 314.359375 319.871094 319.871094 C 314.367188 325.382812 307.742188 328.132812 300 328.125 Z M 75 328.125 " fill-opacity="1" fill-rule="nonzero"/></svg>