<svg xmlns="http://www.w3.org/2000/svg" xmlns:xlink="http://www.w3.org/1999/xlink" width="500" zoomAndPan="magnify" viewBox="0 0 375 374.999991" height="500" preserveAspectRatio="xMidYMid meet" version="1.0"><path fill="#ffffff" d="M 153.773438 228.941406 L 221.214844 228.941406 L 233.507812 263.011719 C 234.445312 265.589844 236.082031 267.695312 238.425781 269.335938 C 240.765625 270.972656 243.34375 271.792969 246.152344 271.792969 C 250.835938 271.792969 254.644531 269.859375 257.574219 265.992188 C 260.507812 262.121094 261.03125 257.851562 259.148438 253.175781 L 205.757812 111.976562 C 204.589844 109.402344 202.832031 107.292969 200.492188 105.65625 C 198.148438 104.015625 195.574219 103.195312 192.761719 103.195312 L 182.226562 103.195312 C 179.414062 103.195312 176.839844 104.015625 174.5 105.65625 C 172.15625 107.292969 170.402344 109.402344 169.230469 111.976562 L 115.839844 253.175781 C 113.96875 257.625 114.4375 261.839844 117.246094 265.820312 C 120.054688 269.804688 123.800781 271.792969 128.484375 271.792969 C 131.53125 271.792969 134.167969 270.972656 136.394531 269.335938 C 138.625 267.695312 140.320312 265.472656 141.480469 262.660156 Z M 162.203125 204.355469 L 186.792969 134.808594 L 188.195312 134.808594 L 212.785156 204.355469 Z M 75.097656 327.992188 C 67.367188 327.992188 60.757812 325.242188 55.257812 319.746094 C 49.757812 314.246094 47.007812 307.628906 46.996094 299.894531 L 46.996094 75.097656 C 46.996094 67.367188 49.75 60.757812 55.257812 55.257812 C 60.765625 49.757812 67.378906 47.007812 75.097656 46.996094 L 299.894531 46.996094 C 307.621094 46.996094 314.238281 49.75 319.746094 55.257812 C 325.253906 60.765625 328.003906 67.378906 327.992188 75.097656 L 327.992188 299.894531 C 327.992188 307.621094 325.242188 314.238281 319.746094 319.746094 C 314.246094 325.253906 307.628906 328.003906 299.894531 327.992188 Z M 75.097656 299.894531 L 299.894531 299.894531 L 299.894531 75.097656 L 75.097656 75.097656 Z M 75.097656 75.097656 L 75.097656 299.894531 Z M 75.097656 75.097656 " fill-opacity="1" fill-rule="nonzero"/></svg>