<svg xmlns="http://www.w3.org/2000/svg" xmlns:xlink="http://www.w3.org/1999/xlink" width="500" zoomAndPan="magnify" viewBox="0 0 375 374.999991" height="500" preserveAspectRatio="xMidYMid meet" version="1.0"><defs><g/></defs><g fill="#ffffff" fill-opacity="1"><g transform="translate(10.036648, 308.24998)"><g><path d="M 58.5 -17.101562 L 58.5 -115.199219 L 182.398438 -115.199219 C 187.800781 -115.199219 191.101562 -118.5 191.101562 -123.898438 C 191.101562 -129.300781 187.800781 -132.300781 182.398438 -132.300781 L 58.5 -132.300781 L 58.5 -222.898438 L 185.398438 -222.898438 C 190.800781 -222.898438 194.101562 -226.199219 194.101562 -231.601562 C 194.101562 -237 190.800781 -240 185.398438 -240 L 49.199219 -240 C 43.800781 -240 40.5 -236.699219 40.5 -231.300781 L 40.5 -8.699219 C 40.5 -3.300781 43.800781 0 49.199219 0 L 188.398438 0 C 193.800781 0 197.101562 -3.300781 197.101562 -8.699219 C 197.101562 -14.101562 193.800781 -17.101562 188.398438 -17.101562 Z M 58.5 -17.101562 "/></g></g></g><g fill="#ffffff" fill-opacity="1"><g transform="translate(198.136261, 308.24998)"><g><path d="M 147 -85.800781 L 147 -90 C 147 -136.5 126.300781 -163.199219 84.601562 -163.199219 C 42.601562 -163.199219 19.800781 -135 19.800781 -79.199219 C 19.800781 -22.199219 42.300781 4.5 88.5 4.5 C 102 4.5 117 2.398438 134.101562 -5.101562 C 139.199219 -7.199219 140.699219 -11.101562 138.601562 -16.5 L 138.601562 -16.800781 C 136.5 -21.898438 132.601562 -23.101562 127.199219 -20.699219 C 115.5 -15.601562 103.800781 -12.898438 90 -12.898438 C 51.898438 -12.898438 38.398438 -33.300781 38.398438 -79.5 L 38.398438 -81.601562 L 138.300781 -81.601562 C 143.699219 -81.601562 147 -83.101562 147 -85.800781 Z M 84.898438 -146.398438 C 112.5 -146.398438 126.300781 -130.199219 128.398438 -98.699219 L 39.300781 -98.699219 C 42.898438 -131.101562 58.199219 -146.398438 84.898438 -146.398438 Z M 84.898438 -146.398438 "/></g></g></g></svg>