<svg xmlns="http://www.w3.org/2000/svg" xmlns:xlink="http://www.w3.org/1999/xlink" width="500" zoomAndPan="magnify" viewBox="0 0 375 374.999991" height="500" preserveAspectRatio="xMidYMid meet" version="1.0"><defs><g/><clipPath id="8f3c8999f3"><path d="M 37.5 37.507812 L 338 37.507812 L 338 337.5 L 37.5 337.5 Z M 37.5 37.507812 " clip-rule="nonzero"/></clipPath><clipPath id="79f9f2f311"><path d="M 54.75 37.507812 L 320.25 37.507812 C 324.824219 37.507812 329.210938 39.328125 332.449219 42.5625 C 335.683594 45.796875 337.5 50.183594 337.5 54.757812 L 337.5 320.25 C 337.5 324.824219 335.683594 329.210938 332.449219 332.449219 C 329.210938 335.683594 324.824219 337.5 320.25 337.5 L 54.75 337.5 C 50.175781 337.5 45.789062 335.683594 42.550781 332.449219 C 39.316406 329.210938 37.5 324.824219 37.5 320.25 L 37.5 54.757812 C 37.5 50.183594 39.316406 45.796875 42.550781 42.5625 C 45.789062 39.328125 50.175781 37.507812 54.75 37.507812 Z M 54.75 37.507812 " clip-rule="nonzero"/></clipPath><clipPath id="3e920d8b70"><path d="M 0.5 0.507812 L 300.679688 0.507812 L 300.679688 300.5 L 0.5 300.5 Z M 0.5 0.507812 " clip-rule="nonzero"/></clipPath><clipPath id="a437ac998f"><path d="M 17.75 0.507812 L 283.25 0.507812 C 287.824219 0.507812 292.210938 2.328125 295.449219 5.5625 C 298.683594 8.796875 300.5 13.183594 300.5 17.757812 L 300.5 283.25 C 300.5 287.824219 298.683594 292.210938 295.449219 295.449219 C 292.210938 298.683594 287.824219 300.5 283.25 300.5 L 17.75 300.5 C 13.175781 300.5 8.789062 298.683594 5.550781 295.449219 C 2.316406 292.210938 0.5 287.824219 0.5 283.25 L 0.5 17.757812 C 0.5 13.183594 2.316406 8.796875 5.550781 5.5625 C 8.789062 2.328125 13.175781 0.507812 17.75 0.507812 Z M 17.75 0.507812 " clip-rule="nonzero"/></clipPath><clipPath id="8eee50a572"><rect x="0" width="301" y="0" height="301"/></clipPath><clipPath id="6385fe76fd"><path d="M 37.5 37.507812 L 337.5 37.507812 L 337.5 337.507812 L 37.5 337.507812 Z M 37.5 37.507812 " clip-rule="nonzero"/></clipPath><clipPath id="0b845b7a02"><path d="M 54.75 37.507812 L 320.25 37.507812 C 324.824219 37.507812 329.210938 39.328125 332.445312 42.5625 C 335.679688 45.796875 337.5 50.183594 337.5 54.757812 L 337.5 320.246094 C 337.5 324.824219 335.679688 329.210938 332.445312 332.445312 C 329.210938 335.679688 324.824219 337.496094 320.25 337.496094 L 54.75 337.496094 C 50.175781 337.496094 45.789062 335.679688 42.554688 332.445312 C 39.320312 329.210938 37.5 324.824219 37.5 320.246094 L 37.5 54.757812 C 37.5 50.183594 39.320312 45.796875 42.554688 42.5625 C 45.789062 39.328125 50.175781 37.507812 54.75 37.507812 Z M 54.75 37.507812 " clip-rule="nonzero"/></clipPath></defs><g clip-path="url(#8f3c8999f3)"><g clip-path="url(#79f9f2f311)"><g transform="matrix(1, 0, 0, 1, 37, 37)"><g clip-path="url(#8eee50a572)"><g clip-path="url(#3e920d8b70)"><g clip-path="url(#a437ac998f)"><path fill="#ffffff" d="M 0.5 0.507812 L 300.492188 0.507812 L 300.492188 300.5 L 0.5 300.5 Z M 0.5 0.507812 " fill-opacity="1" fill-rule="nonzero"/></g></g></g></g></g></g><g clip-path="url(#6385fe76fd)"><g clip-path="url(#0b845b7a02)"><path stroke-linecap="butt" transform="matrix(0.75, 0, 0, 0.75, 37.50106, 37.509592)" fill="none" stroke-linejoin="miter" d="M 22.998588 -0.00237301 L 376.998611 -0.00237301 C 383.09757 -0.00237301 388.946528 2.42471 393.259029 6.737211 C 397.571529 11.049711 399.998612 16.89867 399.998612 22.997629 L 399.998612 376.982027 C 399.998612 383.086194 397.571529 388.935153 393.259029 393.247653 C 388.946528 397.560153 383.09757 399.982028 376.998611 399.982028 L 22.998588 399.982028 C 16.899629 399.982028 11.05067 397.560153 6.73817 393.247653 C 2.42567 388.935153 -0.00141392 383.086194 -0.00141392 376.982027 L -0.00141392 22.997629 C -0.00141392 16.89867 2.42567 11.049711 6.73817 6.737211 C 11.05067 2.42471 16.899629 -0.00237301 22.998588 -0.00237301 Z M 22.998588 -0.00237301 " stroke="#ffffff" stroke-width="16" stroke-opacity="1" stroke-miterlimit="4"/></g></g><g fill="#080a0f" fill-opacity="1"><g transform="translate(76.347656, 308.24998)"><g><path d="M 195.601562 0 L 196.5 0 C 202.800781 0 205.5 -3.601562 203.398438 -9.898438 L 122.699219 -237.601562 C 120.898438 -242.398438 117.601562 -244.5 112.800781 -244.5 L 109.800781 -244.5 C 105 -244.5 101.699219 -242.398438 99.898438 -237.601562 L 19.199219 -9.898438 C 17.101562 -3.601562 19.800781 0 26.101562 0 L 26.699219 0 C 31.5 0 34.800781 -2.101562 36.601562 -6.898438 L 64.800781 -85.800781 L 157.800781 -85.800781 L 185.699219 -6.898438 C 187.199219 -2.101562 190.800781 0 195.601562 0 Z M 70.800781 -102.898438 L 107.101562 -204.601562 L 110.699219 -217.199219 L 111.898438 -217.199219 L 115.800781 -204.601562 L 151.800781 -102.898438 Z M 70.800781 -102.898438 "/></g></g></g></svg>