<svg width="128" height="128" viewBox="0 0 128 128" fill="none" xmlns="http://www.w3.org/2000/svg">
  <rect width="128" height="128" rx="32" fill="rgba(255,255,255,0.08)"/>
  <path d="M64 18C49.5 18 37 29.7 37 45.6C37 62.4 51.3 74.8 64 88.8C76.7 74.8 91 62.4 91 45.6C91 29.7 78.5 18 64 18Z" fill="white" fill-opacity="0.92"/>
  <path d="M64 30C56.6 30 50.7 35.8 50.7 43.1C50.7 50.5 56.6 56.3 64 62.5C71.4 56.3 77.3 50.5 77.3 43.1C77.3 35.8 71.4 30 64 30Z" fill="black" fill-opacity="0.18"/>
  <path d="M64 70C51.6 82.8 42.7 93.3 41.4 107.2C53.3 102.6 60.4 97.8 64 92.7C67.6 97.8 74.7 102.6 86.6 107.2C85.3 93.3 76.4 82.8 64 70Z" fill="white" fill-opacity="0.92"/>
</svg>
