<svg xmlns="http://www.w3.org/2000/svg" xmlns:xlink="http://www.w3.org/1999/xlink" width="500" zoomAndPan="magnify" viewBox="0 0 375 374.999991" height="500" preserveAspectRatio="xMidYMid meet" version="1.0"><defs><clipPath id="ai_23daa8c786"><path d="M 192 18.601562 L 354.792969 18.601562 L 354.792969 181 L 192 181 Z M 192 18.601562 " clip-rule="nonzero"/></clipPath><clipPath id="ai_aea0c6aae8"><path d="M 351.804688 96.648438 L 351.804688 96.640625 C 351.804688 96.640625 351.503906 96.597656 351.503906 96.597656 L 350.496094 96.460938 C 350.496094 96.460938 350.480469 96.457031 350.46875 96.457031 L 350.3125 96.433594 L 350.320312 96.441406 C 339.605469 95.613281 329.363281 92.964844 320.078125 88.382812 C 312.34375 84.777344 305.238281 79.90625 299.035156 73.703125 C 285.289062 59.960938 278.058594 41.808594 276.777344 22.148438 C 276.769531 22.074219 276.765625 21.996094 276.757812 21.917969 C 276.742188 21.671875 276.71875 21.421875 276.703125 21.171875 C 276.363281 19.765625 275.105469 18.71875 273.597656 18.71875 C 271.917969 18.71875 270.554688 20.015625 270.421875 21.660156 L 270.414062 21.660156 C 270.414062 21.660156 270.375 21.917969 270.375 21.917969 L 270.230469 22.984375 C 270.230469 22.984375 270.230469 23.003906 270.226562 23.011719 L 270.207031 23.171875 L 270.214844 23.164062 C 268.925781 40.125 263.179688 55.914062 252.613281 68.664062 C 251.015625 70.648438 249.304688 72.558594 247.472656 74.390625 C 233.730469 88.132812 215.582031 95.363281 195.921875 96.648438 C 195.84375 96.652344 195.769531 96.660156 195.691406 96.664062 C 195.445312 96.683594 195.191406 96.707031 194.941406 96.71875 C 193.539062 97.058594 192.488281 98.316406 192.488281 99.824219 C 192.488281 101.503906 193.789062 102.867188 195.433594 103 L 195.433594 103.011719 C 195.433594 103.011719 195.6875 103.046875 195.6875 103.046875 L 196.753906 103.191406 C 196.753906 103.191406 196.773438 103.195312 196.78125 103.195312 L 196.941406 103.21875 L 196.933594 103.210938 C 216.203125 104.675781 233.964844 111.882812 247.46875 125.386719 C 251.933594 129.855469 255.703125 134.785156 258.816406 140.082031 C 265.710938 151.199219 269.519531 164.007812 270.417969 177.554688 C 270.421875 177.617188 270.425781 177.675781 270.429688 177.738281 C 270.453125 177.996094 270.476562 178.257812 270.488281 178.519531 C 270.828125 179.90625 272.085938 180.941406 273.59375 180.941406 C 275.273438 180.941406 276.636719 179.660156 276.769531 178.039062 L 276.78125 178.039062 C 276.78125 178.039062 276.824219 177.738281 276.824219 177.738281 L 276.960938 176.730469 C 276.960938 176.730469 276.960938 176.714844 276.964844 176.703125 L 276.984375 176.546875 L 276.980469 176.554688 C 278.398438 158.125 285.242188 141.105469 297.972656 127.945312 C 298.78125 127.035156 299.617188 126.140625 300.480469 125.265625 C 314.03125 111.523438 331.929688 104.289062 351.320312 103.007812 C 351.382812 103.003906 351.441406 103 351.5 102.992188 C 351.757812 102.972656 352.019531 102.949219 352.28125 102.933594 C 353.667969 102.597656 354.699219 101.339844 354.699219 99.828125 C 354.699219 98.152344 353.421875 96.789062 351.800781 96.652344 Z M 351.804688 96.648438 " clip-rule="nonzero"/></clipPath><linearGradient x1="729.249885" gradientTransform="matrix(0.236129, 0, 0, 0.236129, 20.292315, 18.71463)" y1="343.5" x2="1416.210089" gradientUnits="userSpaceOnUse" y2="343.5" id="ai_9de89bcbf0"><stop stop-opacity="1" stop-color="#48c2fd" offset="0%"/><stop stop-opacity="1" stop-color="#8b1efd" offset="50%"/><stop stop-opacity="1" stop-color="#bd0cb7" offset="100%"/></linearGradient><clipPath id="ai_5352d832fc"><path d="M 20.292969 64 L 313 64 L 313 356.101562 L 20.292969 356.101562 Z M 20.292969 64 " clip-rule="nonzero"/></clipPath><clipPath id="ai_8a66f4758a"><path d="M 292.414062 179.242188 L 292.414062 316.945312 C 292.414062 327.808594 283.605469 336.617188 272.742188 336.617188 L 59.636719 336.617188 C 48.773438 336.617188 39.964844 327.808594 39.964844 316.945312 L 39.964844 103.835938 C 39.964844 92.96875 48.773438 84.164062 59.636719 84.164062 L 194.058594 84.164062 C 199.488281 84.164062 203.890625 79.757812 203.890625 74.328125 C 203.890625 68.898438 199.488281 64.492188 194.058594 64.492188 L 59.636719 64.492188 C 37.90625 64.492188 20.292969 82.105469 20.292969 103.835938 L 20.292969 316.941406 C 20.292969 338.667969 37.90625 356.285156 59.636719 356.285156 L 272.742188 356.285156 C 294.472656 356.285156 312.085938 338.667969 312.085938 316.941406 L 312.085938 179.238281 C 312.085938 173.808594 307.683594 169.40625 302.25 169.40625 C 296.820312 169.40625 292.417969 173.808594 292.417969 179.238281 Z M 292.414062 179.242188 " clip-rule="nonzero"/></clipPath><linearGradient x1="0.000000654248" gradientTransform="matrix(0.236129, 0, 0, 0.236129, 20.292315, 18.71463)" y1="811.72998" x2="1235.739998" gradientUnits="userSpaceOnUse" y2="811.72998" id="ai_ceca17e2ef"><stop stop-opacity="1" stop-color="#9651ff" offset="0%"/><stop stop-opacity="1" stop-color="#5681fc" offset="50%"/><stop stop-opacity="1" stop-color="#32eee9" offset="100%"/></linearGradient></defs><path fill="#ffffff" d="M 150.027344 152.898438 C 149.226562 150.78125 147.96875 149.121094 146.25 147.929688 C 144.527344 146.738281 142.601562 146.140625 140.484375 146.140625 C 138.363281 146.007812 136.410156 146.539062 134.621094 147.730469 C 132.832031 148.921875 131.542969 150.648438 130.742188 152.898438 L 80.261719 274.929688 C 79.867188 276.121094 79.667969 277.183594 79.667969 278.105469 C 79.667969 280.625 80.394531 282.710938 81.855469 284.371094 C 83.308594 286.027344 85.5625 286.855469 88.613281 286.855469 C 90.597656 286.855469 92.386719 286.257812 93.980469 285.0625 C 95.566406 283.871094 96.761719 282.214844 97.554688 280.09375 L 109.335938 251.875 L 170.292969 251.875 L 182.222656 280.09375 C 183.015625 282.082031 184.238281 283.707031 185.898438 284.964844 C 187.554688 286.222656 189.378906 286.855469 191.367188 286.855469 C 193.75 286.855469 195.902344 285.957031 197.824219 284.171875 C 199.746094 282.382812 200.703125 280.03125 200.703125 277.117188 C 200.703125 275.792969 200.4375 274.46875 199.910156 273.140625 Z M 117.300781 232.792969 L 139.621094 179.320312 L 162.226562 232.792969 Z M 117.300781 232.792969 " fill-opacity="1" fill-rule="nonzero"/><path fill="#ffffff" d="M 237.175781 149.816406 C 235.117188 147.894531 232.765625 146.933594 230.117188 146.933594 C 226.941406 146.933594 224.355469 147.894531 222.367188 149.816406 C 220.378906 151.738281 219.386719 154.160156 219.386719 157.070312 L 219.386719 275.921875 C 219.386719 278.835938 220.3125 281.257812 222.167969 283.175781 C 224.023438 285.097656 226.542969 286.058594 229.722656 286.058594 C 232.503906 286.058594 234.921875 285.097656 236.980469 283.175781 C 239.03125 281.257812 240.125 278.839844 240.257812 275.921875 L 240.257812 157.070312 C 240.257812 154.160156 239.230469 151.742188 237.175781 149.816406 Z M 237.175781 149.816406 " fill-opacity="1" fill-rule="nonzero"/><g clip-path="url(#ai_23daa8c786)"><g clip-path="url(#ai_aea0c6aae8)"><path fill="url(#ai_9de89bcbf0)" d="M 192.488281 18.71875 L 192.488281 180.941406 L 354.699219 180.941406 L 354.699219 18.71875 Z M 192.488281 18.71875 " fill-rule="nonzero"/></g></g><g clip-path="url(#ai_5352d832fc)"><g clip-path="url(#ai_8a66f4758a)"><path fill="url(#ai_ceca17e2ef)" d="M 20.292969 64.492188 L 20.292969 356.101562 L 312.085938 356.101562 L 312.085938 64.492188 Z M 20.292969 64.492188 " fill-rule="nonzero"/></g></g></svg>