<svg xmlns="http://www.w3.org/2000/svg" xmlns:xlink="http://www.w3.org/1999/xlink" width="500" zoomAndPan="magnify" viewBox="0 0 375 374.999991" height="500" preserveAspectRatio="xMidYMid meet" version="1.0"><path fill="#ffffff" d="M 187.5 69.375 C 186.394531 69.375 185.292969 69.429688 184.191406 69.539062 C 183.09375 69.644531 182 69.808594 180.914062 70.023438 C 179.832031 70.238281 178.761719 70.507812 177.703125 70.828125 C 176.644531 71.148438 175.605469 71.519531 174.585938 71.945312 C 173.5625 72.367188 172.566406 72.839844 171.589844 73.359375 C 170.617188 73.882812 169.667969 74.449219 168.75 75.0625 C 167.832031 75.675781 166.945312 76.335938 166.089844 77.035156 C 165.234375 77.738281 164.417969 78.480469 163.636719 79.261719 C 162.855469 80.042969 162.113281 80.859375 161.410156 81.714844 C 160.710938 82.570312 160.050781 83.457031 159.4375 84.375 C 158.824219 85.292969 158.257812 86.242188 157.734375 87.214844 C 157.214844 88.191406 156.742188 89.1875 156.320312 90.210938 C 155.894531 91.230469 155.523438 92.269531 155.203125 93.328125 C 154.882812 94.386719 154.613281 95.457031 154.398438 96.539062 C 154.183594 97.625 154.019531 98.71875 153.914062 99.816406 C 153.804688 100.917969 153.75 102.019531 153.75 103.125 C 153.75 104.230469 153.804688 105.332031 153.914062 106.433594 C 154.019531 107.53125 154.183594 108.625 154.398438 109.710938 C 154.613281 110.792969 154.882812 111.863281 155.203125 112.921875 C 155.523438 113.980469 155.894531 115.019531 156.320312 116.039062 C 156.742188 117.0625 157.214844 118.058594 157.734375 119.035156 C 158.257812 120.007812 158.824219 120.957031 159.4375 121.875 C 160.050781 122.792969 160.710938 123.679688 161.410156 124.535156 C 162.113281 125.390625 162.855469 126.207031 163.636719 126.988281 C 164.417969 127.769531 165.234375 128.511719 166.089844 129.214844 C 166.945312 129.914062 167.832031 130.574219 168.75 131.1875 C 169.667969 131.800781 170.617188 132.367188 171.589844 132.890625 C 172.566406 133.410156 173.5625 133.882812 174.585938 134.304688 C 175.605469 134.730469 176.644531 135.101562 177.703125 135.421875 C 178.761719 135.742188 179.832031 136.011719 180.914062 136.226562 C 182 136.441406 183.09375 136.605469 184.191406 136.710938 C 185.292969 136.820312 186.394531 136.875 187.5 136.875 C 188.605469 136.875 189.707031 136.820312 190.808594 136.710938 C 191.90625 136.605469 193 136.441406 194.085938 136.226562 C 195.167969 136.011719 196.238281 135.742188 197.296875 135.421875 C 198.355469 135.101562 199.394531 134.730469 200.414062 134.304688 C 201.4375 133.882812 202.433594 133.410156 203.410156 132.890625 C 204.382812 132.367188 205.332031 131.800781 206.25 131.1875 C 207.167969 130.574219 208.054688 129.914062 208.910156 129.214844 C 209.765625 128.511719 210.582031 127.769531 211.363281 126.988281 C 212.144531 126.207031 212.886719 125.390625 213.589844 124.535156 C 214.289062 123.679688 214.949219 122.792969 215.5625 121.875 C 216.175781 120.957031 216.742188 120.007812 217.265625 119.035156 C 217.785156 118.058594 218.257812 117.0625 218.679688 116.039062 C 219.105469 115.019531 219.476562 113.980469 219.796875 112.921875 C 220.117188 111.863281 220.386719 110.792969 220.601562 109.710938 C 220.816406 108.625 220.980469 107.53125 221.085938 106.433594 C 221.195312 105.332031 221.25 104.230469 221.25 103.125 C 221.25 102.019531 221.195312 100.917969 221.085938 99.816406 C 220.980469 98.71875 220.816406 97.625 220.601562 96.539062 C 220.386719 95.457031 220.117188 94.386719 219.796875 93.328125 C 219.476562 92.269531 219.105469 91.230469 218.679688 90.210938 C 218.257812 89.1875 217.785156 88.191406 217.265625 87.214844 C 216.742188 86.242188 216.175781 85.292969 215.5625 84.375 C 214.949219 83.457031 214.289062 82.570312 213.589844 81.714844 C 212.886719 80.859375 212.144531 80.042969 211.363281 79.261719 C 210.582031 78.480469 209.765625 77.738281 208.910156 77.035156 C 208.054688 76.335938 207.167969 75.675781 206.25 75.0625 C 205.332031 74.449219 204.382812 73.882812 203.410156 73.359375 C 202.433594 72.839844 201.4375 72.367188 200.414062 71.945312 C 199.394531 71.519531 198.355469 71.148438 197.296875 70.828125 C 196.238281 70.507812 195.167969 70.238281 194.085938 70.023438 C 193 69.808594 191.90625 69.644531 190.808594 69.539062 C 189.707031 69.429688 188.605469 69.375 187.5 69.375 M 136.875 103.125 C 136.875 101.46875 136.957031 99.8125 137.117188 98.164062 C 137.28125 96.511719 137.523438 94.875 137.847656 93.25 C 138.171875 91.621094 138.574219 90.015625 139.054688 88.429688 C 139.535156 86.84375 140.09375 85.285156 140.730469 83.75 C 141.363281 82.21875 142.070312 80.722656 142.851562 79.261719 C 143.632812 77.796875 144.484375 76.378906 145.40625 75 C 146.328125 73.621094 147.316406 72.289062 148.367188 71.007812 C 149.417969 69.726562 150.53125 68.5 151.703125 67.328125 C 152.875 66.15625 154.101562 65.042969 155.382812 63.992188 C 156.664062 62.941406 157.996094 61.953125 159.375 61.03125 C 160.753906 60.109375 162.171875 59.257812 163.636719 58.476562 C 165.097656 57.695312 166.59375 56.988281 168.125 56.355469 C 169.660156 55.71875 171.21875 55.160156 172.804688 54.679688 C 174.390625 54.199219 175.996094 53.796875 177.625 53.472656 C 179.25 53.148438 180.886719 52.90625 182.539062 52.742188 C 184.1875 52.582031 185.84375 52.5 187.5 52.5 C 189.15625 52.5 190.8125 52.582031 192.460938 52.742188 C 194.113281 52.90625 195.75 53.148438 197.375 53.472656 C 199.003906 53.796875 200.609375 54.199219 202.195312 54.679688 C 203.78125 55.160156 205.339844 55.71875 206.875 56.355469 C 208.40625 56.988281 209.902344 57.695312 211.363281 58.476562 C 212.828125 59.257812 214.246094 60.109375 215.625 61.03125 C 217.003906 61.953125 218.335938 62.941406 219.617188 63.992188 C 220.898438 65.042969 222.125 66.15625 223.296875 67.328125 C 224.46875 68.5 225.582031 69.726562 226.632812 71.007812 C 227.683594 72.289062 228.671875 73.621094 229.59375 75 C 230.515625 76.378906 231.367188 77.796875 232.148438 79.261719 C 232.929688 80.722656 233.636719 82.21875 234.269531 83.75 C 234.90625 85.285156 235.464844 86.84375 235.945312 88.429688 C 236.425781 90.015625 236.828125 91.621094 237.152344 93.25 C 237.476562 94.875 237.71875 96.511719 237.882812 98.164062 C 238.042969 99.8125 238.125 101.46875 238.125 103.125 C 238.125 104.78125 238.042969 106.4375 237.882812 108.085938 C 237.71875 109.738281 237.476562 111.375 237.152344 113 C 236.828125 114.628906 236.425781 116.234375 235.945312 117.820312 C 235.464844 119.40625 234.90625 120.964844 234.269531 122.5 C 233.636719 124.03125 232.929688 125.527344 232.148438 126.988281 C 231.367188 128.453125 230.515625 129.871094 229.59375 131.25 C 228.671875 132.628906 227.683594 133.960938 226.632812 135.242188 C 225.582031 136.523438 224.46875 137.75 223.296875 138.921875 C 222.125 140.09375 220.898438 141.207031 219.617188 142.257812 C 218.335938 143.308594 217.003906 144.296875 215.625 145.21875 C 214.246094 146.140625 212.828125 146.992188 211.363281 147.773438 C 209.902344 148.554688 208.40625 149.261719 206.875 149.894531 C 205.339844 150.53125 203.78125 151.089844 202.195312 151.570312 C 200.609375 152.050781 199.003906 152.453125 197.375 152.777344 C 195.75 153.101562 194.113281 153.34375 192.460938 153.507812 C 190.8125 153.667969 189.15625 153.75 187.5 153.75 C 185.84375 153.75 184.1875 153.667969 182.539062 153.507812 C 180.886719 153.34375 179.25 153.101562 177.625 152.777344 C 175.996094 152.453125 174.390625 152.050781 172.804688 151.570312 C 171.21875 151.089844 169.660156 150.53125 168.125 149.894531 C 166.59375 149.261719 165.097656 148.554688 163.636719 147.773438 C 162.171875 146.992188 160.753906 146.140625 159.375 145.21875 C 157.996094 144.296875 156.664062 143.308594 155.382812 142.257812 C 154.101562 141.207031 152.875 140.09375 151.703125 138.921875 C 150.53125 137.75 149.417969 136.523438 148.367188 135.242188 C 147.316406 133.960938 146.328125 132.628906 145.40625 131.25 C 144.484375 129.871094 143.632812 128.453125 142.851562 126.988281 C 142.070312 125.527344 141.363281 124.03125 140.730469 122.5 C 140.09375 120.964844 139.535156 119.40625 139.054688 117.820312 C 138.574219 116.234375 138.171875 114.628906 137.847656 113 C 137.523438 111.375 137.28125 109.738281 137.117188 108.085938 C 136.957031 106.4375 136.875 104.78125 136.875 103.125 M 104.019531 187.433594 C 103.445312 190.175781 103.160156 193.011719 103.160156 195.9375 L 103.160156 205.132812 L 58.761719 217.03125 C 58.226562 217.175781 57.710938 217.367188 57.210938 217.613281 C 56.714844 217.855469 56.246094 218.148438 55.808594 218.484375 C 55.367188 218.820312 54.964844 219.199219 54.597656 219.613281 C 54.234375 220.03125 53.914062 220.480469 53.636719 220.957031 C 53.359375 221.4375 53.128906 221.9375 52.953125 222.464844 C 52.773438 222.988281 52.648438 223.523438 52.574219 224.074219 C 52.5 224.625 52.484375 225.175781 52.519531 225.726562 C 52.554688 226.28125 52.644531 226.824219 52.785156 227.359375 L 63.703125 268.113281 C 64.101562 269.589844 64.5625 271.042969 65.089844 272.480469 C 65.621094 273.914062 66.210938 275.320312 66.867188 276.703125 C 67.523438 278.082031 68.238281 279.433594 69.019531 280.75 C 69.796875 282.0625 70.632812 283.34375 71.523438 284.582031 C 72.417969 285.824219 73.367188 287.019531 74.371094 288.175781 C 75.371094 289.328125 76.421875 290.4375 77.527344 291.496094 C 78.628906 292.554688 79.777344 293.5625 80.96875 294.515625 C 82.164062 295.472656 83.398438 296.371094 84.671875 297.214844 C 85.949219 298.058594 87.257812 298.84375 88.605469 299.566406 C 89.953125 300.292969 91.328125 300.953125 92.734375 301.554688 C 94.140625 302.152344 95.570312 302.6875 97.027344 303.160156 C 98.480469 303.628906 99.953125 304.03125 101.445312 304.371094 C 102.9375 304.707031 104.4375 304.976562 105.953125 305.175781 C 107.46875 305.375 108.992188 305.507812 110.519531 305.570312 C 112.046875 305.632812 113.574219 305.628906 115.101562 305.550781 C 116.628906 305.476562 118.148438 305.332031 119.664062 305.117188 C 123.542969 310.351562 128.015625 315.140625 132.976562 319.34375 L 130.089844 320.1875 C 129.023438 320.472656 127.949219 320.734375 126.871094 320.96875 C 125.789062 321.203125 124.707031 321.410156 123.617188 321.589844 C 122.527344 321.769531 121.433594 321.921875 120.335938 322.046875 C 119.238281 322.175781 118.136719 322.273438 117.035156 322.347656 C 115.933594 322.417969 114.828125 322.464844 113.722656 322.484375 C 112.617188 322.5 111.515625 322.492188 110.410156 322.457031 C 109.304688 322.421875 108.203125 322.359375 107.101562 322.269531 C 106 322.179688 104.902344 322.0625 103.808594 321.917969 C 102.710938 321.773438 101.621094 321.601562 100.535156 321.40625 C 99.445312 321.207031 98.363281 320.984375 97.289062 320.734375 C 96.210938 320.480469 95.144531 320.207031 94.082031 319.902344 C 93.019531 319.597656 91.964844 319.269531 90.917969 318.914062 C 89.871094 318.558594 88.835938 318.179688 87.808594 317.773438 C 86.78125 317.367188 85.761719 316.9375 84.753906 316.480469 C 83.75 316.023438 82.753906 315.546875 81.773438 315.039062 C 80.789062 314.535156 79.820312 314.007812 78.863281 313.453125 C 77.90625 312.902344 76.960938 312.328125 76.035156 311.730469 C 75.105469 311.128906 74.191406 310.507812 73.292969 309.867188 C 72.394531 309.222656 71.511719 308.558594 70.648438 307.871094 C 69.78125 307.183594 68.933594 306.476562 68.105469 305.746094 C 67.273438 305.019531 66.460938 304.269531 65.667969 303.503906 C 64.871094 302.734375 64.097656 301.945312 63.34375 301.140625 C 62.585938 300.335938 61.851562 299.511719 61.136719 298.667969 C 60.421875 297.824219 59.726562 296.964844 59.054688 296.089844 C 58.382812 295.214844 57.730469 294.320312 57.101562 293.410156 C 56.472656 292.503906 55.867188 291.582031 55.285156 290.640625 C 54.703125 289.703125 54.140625 288.753906 53.605469 287.785156 C 53.066406 286.820312 52.554688 285.84375 52.066406 284.851562 C 51.578125 283.859375 51.113281 282.859375 50.671875 281.84375 C 50.234375 280.832031 49.820312 279.808594 49.429688 278.773438 C 49.042969 277.738281 48.679688 276.695312 48.339844 275.644531 C 48 274.59375 47.691406 273.53125 47.402344 272.464844 L 36.484375 231.710938 C 36.269531 230.910156 36.097656 230.101562 35.960938 229.285156 C 35.828125 228.464844 35.730469 227.644531 35.679688 226.816406 C 35.625 225.988281 35.609375 225.160156 35.636719 224.332031 C 35.664062 223.503906 35.734375 222.679688 35.839844 221.855469 C 35.949219 221.035156 36.097656 220.21875 36.285156 219.414062 C 36.472656 218.605469 36.703125 217.808594 36.96875 217.023438 C 37.234375 216.238281 37.539062 215.46875 37.882812 214.714844 C 38.222656 213.957031 38.601562 213.222656 39.015625 212.503906 C 39.433594 211.785156 39.878906 211.089844 40.363281 210.417969 C 40.847656 209.742188 41.363281 209.09375 41.910156 208.472656 C 42.457031 207.847656 43.03125 207.253906 43.636719 206.6875 C 44.242188 206.121094 44.875 205.585938 45.53125 205.078125 C 46.1875 204.574219 46.871094 204.105469 47.574219 203.667969 C 48.277344 203.230469 49 202.828125 49.746094 202.460938 C 50.488281 202.09375 51.25 201.765625 52.023438 201.472656 C 52.800781 201.179688 53.589844 200.925781 54.390625 200.714844 Z M 271.875 128.4375 C 271.875 127.609375 271.914062 126.78125 271.996094 125.957031 C 272.078125 125.132812 272.199219 124.3125 272.359375 123.5 C 272.523438 122.6875 272.722656 121.882812 272.964844 121.089844 C 273.207031 120.296875 273.484375 119.515625 273.800781 118.75 C 274.117188 117.984375 274.472656 117.238281 274.863281 116.503906 C 275.253906 115.773438 275.679688 115.0625 276.140625 114.375 C 276.601562 113.683594 277.09375 113.019531 277.621094 112.378906 C 278.148438 111.738281 278.703125 111.125 279.289062 110.539062 C 279.875 109.953125 280.488281 109.398438 281.128906 108.871094 C 281.769531 108.34375 282.433594 107.851562 283.125 107.390625 C 283.8125 106.929688 284.523438 106.503906 285.253906 106.113281 C 285.988281 105.722656 286.734375 105.367188 287.5 105.050781 C 288.265625 104.734375 289.046875 104.457031 289.839844 104.214844 C 290.632812 103.972656 291.4375 103.773438 292.25 103.613281 C 293.0625 103.449219 293.882812 103.328125 294.707031 103.246094 C 295.53125 103.164062 296.359375 103.125 297.1875 103.125 C 298.015625 103.125 298.84375 103.164062 299.667969 103.246094 C 300.492188 103.328125 301.3125 103.449219 302.125 103.613281 C 302.9375 103.773438 303.742188 103.972656 304.535156 104.214844 C 305.328125 104.457031 306.109375 104.734375 306.875 105.050781 C 307.640625 105.367188 308.386719 105.722656 309.121094 106.113281 C 309.851562 106.503906 310.5625 106.929688 311.25 107.390625 C 311.941406 107.851562 312.605469 108.34375 313.246094 108.871094 C 313.886719 109.398438 314.5 109.953125 315.085938 110.539062 C 315.671875 111.125 316.226562 111.738281 316.753906 112.378906 C 317.28125 113.019531 317.773438 113.683594 318.234375 114.375 C 318.695312 115.0625 319.121094 115.773438 319.511719 116.503906 C 319.902344 117.238281 320.257812 117.984375 320.574219 118.75 C 320.890625 119.515625 321.167969 120.296875 321.410156 121.089844 C 321.652344 121.882812 321.851562 122.6875 322.011719 123.5 C 322.175781 124.3125 322.296875 125.132812 322.378906 125.957031 C 322.460938 126.78125 322.5 127.609375 322.5 128.4375 C 322.5 129.265625 322.460938 130.09375 322.378906 130.917969 C 322.296875 131.742188 322.175781 132.5625 322.011719 133.375 C 321.851562 134.1875 321.652344 134.992188 321.410156 135.785156 C 321.167969 136.578125 320.890625 137.359375 320.574219 138.125 C 320.257812 138.890625 319.902344 139.636719 319.511719 140.371094 C 319.121094 141.101562 318.695312 141.8125 318.234375 142.5 C 317.773438 143.191406 317.28125 143.855469 316.753906 144.496094 C 316.226562 145.136719 315.671875 145.75 315.085938 146.335938 C 314.5 146.921875 313.886719 147.476562 313.246094 148.003906 C 312.605469 148.53125 311.941406 149.023438 311.25 149.484375 C 310.5625 149.945312 309.851562 150.371094 309.121094 150.761719 C 308.386719 151.152344 307.640625 151.507812 306.875 151.824219 C 306.109375 152.140625 305.328125 152.417969 304.535156 152.660156 C 303.742188 152.902344 302.9375 153.101562 302.125 153.261719 C 301.3125 153.425781 300.492188 153.546875 299.667969 153.628906 C 298.84375 153.710938 298.015625 153.75 297.1875 153.75 C 296.359375 153.75 295.53125 153.710938 294.707031 153.628906 C 293.882812 153.546875 293.0625 153.425781 292.25 153.261719 C 291.4375 153.101562 290.632812 152.902344 289.839844 152.660156 C 289.046875 152.417969 288.265625 152.140625 287.5 151.824219 C 286.734375 151.507812 285.988281 151.152344 285.253906 150.761719 C 284.523438 150.371094 283.8125 149.945312 283.125 149.484375 C 282.433594 149.023438 281.769531 148.53125 281.128906 148.003906 C 280.488281 147.476562 279.875 146.921875 279.289062 146.335938 C 278.703125 145.75 278.148438 145.136719 277.621094 144.496094 C 277.09375 143.855469 276.601562 143.191406 276.140625 142.5 C 275.679688 141.8125 275.253906 141.101562 274.863281 140.371094 C 274.472656 139.636719 274.117188 138.890625 273.800781 138.125 C 273.484375 137.359375 273.207031 136.578125 272.964844 135.785156 C 272.722656 134.992188 272.523438 134.1875 272.363281 133.375 C 272.199219 132.5625 272.078125 131.742188 271.996094 130.917969 C 271.914062 130.09375 271.875 129.265625 271.875 128.4375 M 297.1875 86.25 C 295.804688 86.25 294.425781 86.316406 293.050781 86.453125 C 291.675781 86.589844 290.3125 86.792969 288.957031 87.0625 C 287.601562 87.332031 286.261719 87.664062 284.941406 88.066406 C 283.617188 88.46875 282.320312 88.933594 281.042969 89.460938 C 279.765625 89.988281 278.519531 90.582031 277.300781 91.230469 C 276.082031 91.882812 274.898438 92.59375 273.75 93.359375 C 272.601562 94.128906 271.492188 94.949219 270.425781 95.824219 C 269.355469 96.703125 268.332031 97.628906 267.355469 98.605469 C 266.378906 99.582031 265.453125 100.605469 264.574219 101.675781 C 263.699219 102.742188 262.878906 103.851562 262.109375 105 C 261.34375 106.148438 260.632812 107.332031 259.980469 108.550781 C 259.332031 109.769531 258.738281 111.015625 258.210938 112.292969 C 257.683594 113.570312 257.21875 114.867188 256.816406 116.191406 C 256.414062 117.511719 256.082031 118.851562 255.8125 120.207031 C 255.542969 121.5625 255.339844 122.925781 255.203125 124.300781 C 255.066406 125.675781 255 127.054688 255 128.4375 C 255 129.820312 255.066406 131.199219 255.203125 132.574219 C 255.339844 133.949219 255.542969 135.3125 255.8125 136.667969 C 256.082031 138.023438 256.414062 139.363281 256.816406 140.683594 C 257.21875 142.007812 257.683594 143.304688 258.210938 144.582031 C 258.738281 145.859375 259.332031 147.105469 259.980469 148.324219 C 260.632812 149.542969 261.34375 150.726562 262.109375 151.875 C 262.878906 153.023438 263.699219 154.132812 264.574219 155.199219 C 265.453125 156.269531 266.378906 157.292969 267.355469 158.269531 C 268.332031 159.246094 269.355469 160.171875 270.425781 161.050781 C 271.492188 161.925781 272.601562 162.746094 273.75 163.515625 C 274.898438 164.28125 276.082031 164.992188 277.300781 165.644531 C 278.519531 166.292969 279.765625 166.886719 281.042969 167.414062 C 282.320312 167.941406 283.617188 168.40625 284.941406 168.808594 C 286.261719 169.210938 287.601562 169.542969 288.957031 169.8125 C 290.3125 170.082031 291.675781 170.285156 293.050781 170.421875 C 294.425781 170.558594 295.804688 170.625 297.1875 170.625 C 298.570312 170.625 299.949219 170.558594 301.324219 170.421875 C 302.699219 170.285156 304.0625 170.082031 305.417969 169.8125 C 306.773438 169.542969 308.113281 169.210938 309.433594 168.808594 C 310.757812 168.40625 312.054688 167.941406 313.332031 167.414062 C 314.609375 166.886719 315.855469 166.292969 317.074219 165.644531 C 318.292969 164.992188 319.476562 164.28125 320.625 163.515625 C 321.773438 162.746094 322.882812 161.925781 323.949219 161.050781 C 325.019531 160.171875 326.042969 159.246094 327.019531 158.269531 C 327.996094 157.292969 328.921875 156.269531 329.800781 155.199219 C 330.675781 154.132812 331.496094 153.023438 332.265625 151.875 C 333.03125 150.726562 333.742188 149.542969 334.394531 148.324219 C 335.042969 147.105469 335.636719 145.859375 336.164062 144.582031 C 336.691406 143.304688 337.15625 142.007812 337.558594 140.683594 C 337.960938 139.363281 338.292969 138.023438 338.5625 136.667969 C 338.832031 135.3125 339.035156 133.949219 339.171875 132.574219 C 339.308594 131.199219 339.375 129.820312 339.375 128.4375 C 339.375 127.054688 339.308594 125.675781 339.171875 124.300781 C 339.035156 122.925781 338.832031 121.5625 338.5625 120.207031 C 338.292969 118.851562 337.960938 117.511719 337.558594 116.191406 C 337.15625 114.867188 336.691406 113.570312 336.164062 112.292969 C 335.636719 111.015625 335.042969 109.769531 334.394531 108.550781 C 333.742188 107.332031 333.03125 106.148438 332.265625 105 C 331.496094 103.851562 330.675781 102.742188 329.800781 101.675781 C 328.921875 100.605469 327.996094 99.582031 327.019531 98.605469 C 326.042969 97.628906 325.019531 96.703125 323.949219 95.824219 C 322.882812 94.949219 321.773438 94.128906 320.625 93.359375 C 319.476562 92.59375 318.292969 91.882812 317.074219 91.230469 C 315.855469 90.582031 314.609375 89.988281 313.332031 89.460938 C 312.054688 88.933594 310.757812 88.46875 309.433594 88.066406 C 308.113281 87.664062 306.773438 87.332031 305.417969 87.0625 C 304.0625 86.792969 302.699219 86.589844 301.324219 86.453125 C 299.949219 86.316406 298.570312 86.25 297.1875 86.25 M 77.8125 103.125 C 76.984375 103.125 76.15625 103.164062 75.332031 103.246094 C 74.507812 103.328125 73.6875 103.449219 72.875 103.613281 C 72.0625 103.773438 71.257812 103.972656 70.464844 104.214844 C 69.671875 104.457031 68.890625 104.734375 68.125 105.050781 C 67.359375 105.367188 66.613281 105.722656 65.878906 106.113281 C 65.148438 106.503906 64.4375 106.929688 63.75 107.390625 C 63.058594 107.851562 62.394531 108.34375 61.753906 108.871094 C 61.113281 109.398438 60.5 109.953125 59.914062 110.539062 C 59.328125 111.125 58.773438 111.738281 58.246094 112.378906 C 57.71875 113.019531 57.226562 113.683594 56.765625 114.375 C 56.304688 115.0625 55.878906 115.773438 55.488281 116.503906 C 55.097656 117.238281 54.742188 117.984375 54.425781 118.75 C 54.109375 119.515625 53.832031 120.296875 53.589844 121.089844 C 53.347656 121.882812 53.148438 122.6875 52.988281 123.5 C 52.824219 124.3125 52.703125 125.132812 52.621094 125.957031 C 52.539062 126.78125 52.5 127.609375 52.5 128.4375 C 52.5 129.265625 52.539062 130.09375 52.621094 130.917969 C 52.703125 131.742188 52.824219 132.5625 52.988281 133.375 C 53.148438 134.1875 53.347656 134.992188 53.589844 135.785156 C 53.832031 136.578125 54.109375 137.359375 54.425781 138.125 C 54.742188 138.890625 55.097656 139.636719 55.488281 140.371094 C 55.878906 141.101562 56.304688 141.8125 56.765625 142.5 C 57.226562 143.191406 57.71875 143.855469 58.246094 144.496094 C 58.773438 145.136719 59.328125 145.75 59.914062 146.335938 C 60.5 146.921875 61.113281 147.476562 61.753906 148.003906 C 62.394531 148.53125 63.058594 149.023438 63.75 149.484375 C 64.4375 149.945312 65.148438 150.371094 65.878906 150.761719 C 66.613281 151.152344 67.359375 151.507812 68.125 151.824219 C 68.890625 152.140625 69.671875 152.417969 70.464844 152.660156 C 71.257812 152.902344 72.0625 153.101562 72.875 153.261719 C 73.6875 153.425781 74.507812 153.546875 75.332031 153.628906 C 76.15625 153.710938 76.984375 153.75 77.8125 153.75 C 78.640625 153.75 79.46875 153.710938 80.292969 153.628906 C 81.117188 153.546875 81.9375 153.425781 82.75 153.261719 C 83.5625 153.101562 84.367188 152.902344 85.160156 152.660156 C 85.953125 152.417969 86.734375 152.140625 87.5 151.824219 C 88.265625 151.507812 89.011719 151.152344 89.746094 150.761719 C 90.476562 150.371094 91.1875 149.945312 91.875 149.484375 C 92.566406 149.023438 93.230469 148.53125 93.871094 148.003906 C 94.511719 147.476562 95.125 146.921875 95.710938 146.335938 C 96.296875 145.75 96.851562 145.136719 97.378906 144.496094 C 97.90625 143.855469 98.398438 143.191406 98.859375 142.5 C 99.320312 141.8125 99.746094 141.101562 100.136719 140.371094 C 100.527344 139.636719 100.882812 138.890625 101.199219 138.125 C 101.515625 137.359375 101.792969 136.578125 102.035156 135.785156 C 102.277344 134.992188 102.476562 134.1875 102.636719 133.375 C 102.800781 132.5625 102.921875 131.742188 103.003906 130.917969 C 103.085938 130.09375 103.125 129.265625 103.125 128.4375 C 103.125 127.609375 103.085938 126.78125 103.003906 125.957031 C 102.921875 125.132812 102.800781 124.3125 102.636719 123.5 C 102.476562 122.6875 102.277344 121.882812 102.035156 121.089844 C 101.792969 120.296875 101.515625 119.515625 101.199219 118.75 C 100.882812 117.984375 100.527344 117.238281 100.136719 116.503906 C 99.746094 115.773438 99.320312 115.0625 98.859375 114.375 C 98.398438 113.683594 97.90625 113.019531 97.378906 112.378906 C 96.851562 111.738281 96.296875 111.125 95.710938 110.539062 C 95.125 109.953125 94.511719 109.398438 93.871094 108.871094 C 93.230469 108.34375 92.566406 107.851562 91.875 107.390625 C 91.1875 106.929688 90.476562 106.503906 89.746094 106.113281 C 89.011719 105.722656 88.265625 105.367188 87.5 105.050781 C 86.734375 104.734375 85.953125 104.457031 85.160156 104.214844 C 84.367188 103.972656 83.5625 103.773438 82.75 103.613281 C 81.9375 103.449219 81.117188 103.328125 80.292969 103.246094 C 79.46875 103.164062 78.640625 103.125 77.8125 103.125 M 35.625 128.4375 C 35.625 127.054688 35.691406 125.675781 35.828125 124.300781 C 35.964844 122.925781 36.167969 121.5625 36.4375 120.207031 C 36.707031 118.851562 37.039062 117.511719 37.441406 116.191406 C 37.84375 114.867188 38.308594 113.570312 38.835938 112.292969 C 39.363281 111.015625 39.957031 109.769531 40.605469 108.550781 C 41.257812 107.332031 41.96875 106.148438 42.734375 105 C 43.503906 103.851562 44.324219 102.742188 45.199219 101.675781 C 46.078125 100.605469 47.003906 99.582031 47.980469 98.605469 C 48.957031 97.628906 49.980469 96.703125 51.050781 95.824219 C 52.117188 94.949219 53.226562 94.128906 54.375 93.359375 C 55.523438 92.59375 56.707031 91.882812 57.925781 91.230469 C 59.144531 90.582031 60.390625 89.988281 61.667969 89.460938 C 62.945312 88.933594 64.242188 88.46875 65.566406 88.066406 C 66.886719 87.664062 68.226562 87.332031 69.582031 87.0625 C 70.9375 86.792969 72.300781 86.589844 73.675781 86.453125 C 75.050781 86.316406 76.429688 86.25 77.8125 86.25 C 79.195312 86.25 80.574219 86.316406 81.949219 86.453125 C 83.324219 86.589844 84.6875 86.792969 86.042969 87.0625 C 87.398438 87.332031 88.738281 87.664062 90.058594 88.066406 C 91.382812 88.46875 92.679688 88.933594 93.957031 89.460938 C 95.234375 89.988281 96.480469 90.582031 97.699219 91.230469 C 98.917969 91.882812 100.101562 92.59375 101.25 93.359375 C 102.398438 94.128906 103.507812 94.949219 104.574219 95.824219 C 105.644531 96.703125 106.667969 97.628906 107.644531 98.605469 C 108.621094 99.582031 109.546875 100.605469 110.425781 101.675781 C 111.300781 102.742188 112.121094 103.851562 112.890625 105 C 113.65625 106.148438 114.367188 107.332031 115.019531 108.550781 C 115.667969 109.769531 116.261719 111.015625 116.789062 112.292969 C 117.316406 113.570312 117.78125 114.867188 118.183594 116.191406 C 118.585938 117.511719 118.917969 118.851562 119.1875 120.207031 C 119.457031 121.5625 119.660156 122.925781 119.796875 124.300781 C 119.933594 125.675781 120 127.054688 120 128.4375 C 120 129.820312 119.933594 131.199219 119.796875 132.574219 C 119.660156 133.949219 119.457031 135.3125 119.1875 136.667969 C 118.917969 138.023438 118.585938 139.363281 118.183594 140.683594 C 117.78125 142.007812 117.316406 143.304688 116.789062 144.582031 C 116.261719 145.859375 115.667969 147.105469 115.019531 148.324219 C 114.367188 149.542969 113.65625 150.726562 112.890625 151.875 C 112.121094 153.023438 111.300781 154.132812 110.425781 155.199219 C 109.546875 156.269531 108.621094 157.292969 107.644531 158.269531 C 106.667969 159.246094 105.644531 160.171875 104.574219 161.050781 C 103.507812 161.925781 102.398438 162.746094 101.25 163.515625 C 100.101562 164.28125 98.917969 164.992188 97.699219 165.644531 C 96.480469 166.292969 95.234375 166.886719 93.957031 167.414062 C 92.679688 167.941406 91.382812 168.40625 90.058594 168.808594 C 88.738281 169.210938 87.398438 169.542969 86.042969 169.8125 C 84.6875 170.082031 83.324219 170.285156 81.949219 170.421875 C 80.574219 170.558594 79.195312 170.625 77.8125 170.625 C 76.429688 170.625 75.050781 170.558594 73.675781 170.421875 C 72.300781 170.285156 70.9375 170.082031 69.582031 169.8125 C 68.226562 169.542969 66.886719 169.210938 65.566406 168.808594 C 64.242188 168.40625 62.945312 167.941406 61.667969 167.414062 C 60.390625 166.886719 59.144531 166.292969 57.925781 165.644531 C 56.707031 164.992188 55.523438 164.28125 54.375 163.515625 C 53.226562 162.746094 52.117188 161.925781 51.050781 161.050781 C 49.980469 160.171875 48.957031 159.246094 47.980469 158.269531 C 47.003906 157.292969 46.078125 156.269531 45.199219 155.199219 C 44.324219 154.132812 43.503906 153.023438 42.734375 151.875 C 41.96875 150.726562 41.257812 149.542969 40.605469 148.324219 C 39.957031 147.105469 39.363281 145.859375 38.835938 144.582031 C 38.308594 143.304688 37.84375 142.007812 37.441406 140.683594 C 37.039062 139.363281 36.707031 138.023438 36.4375 136.667969 C 36.167969 135.3125 35.964844 133.949219 35.828125 132.574219 C 35.691406 131.199219 35.625 129.820312 35.625 128.4375 M 145.3125 170.625 C 144.484375 170.625 143.65625 170.664062 142.832031 170.746094 C 142.007812 170.828125 141.1875 170.949219 140.375 171.113281 C 139.5625 171.273438 138.757812 171.472656 137.964844 171.714844 C 137.171875 171.957031 136.390625 172.234375 135.625 172.550781 C 134.859375 172.867188 134.113281 173.222656 133.378906 173.613281 C 132.648438 174.003906 131.9375 174.429688 131.25 174.890625 C 130.558594 175.351562 129.894531 175.84375 129.253906 176.371094 C 128.613281 176.898438 128 177.453125 127.414062 178.039062 C 126.828125 178.625 126.273438 179.238281 125.746094 179.878906 C 125.21875 180.519531 124.726562 181.183594 124.265625 181.875 C 123.804688 182.5625 123.378906 183.273438 122.988281 184.003906 C 122.597656 184.738281 122.242188 185.484375 121.925781 186.25 C 121.609375 187.015625 121.332031 187.796875 121.089844 188.589844 C 120.847656 189.382812 120.648438 190.1875 120.488281 191 C 120.324219 191.8125 120.203125 192.632812 120.121094 193.457031 C 120.039062 194.28125 120 195.109375 120 195.9375 L 120 255 C 120 256.148438 120.03125 257.296875 120.089844 258.445312 C 120.148438 259.589844 120.234375 260.734375 120.351562 261.878906 C 120.46875 263.019531 120.613281 264.160156 120.789062 265.296875 C 120.964844 266.429688 121.167969 267.558594 121.402344 268.683594 C 121.636719 269.808594 121.898438 270.929688 122.1875 272.039062 C 122.476562 273.152344 122.796875 274.253906 123.140625 275.347656 C 123.488281 276.445312 123.863281 277.53125 124.261719 278.605469 C 124.664062 279.683594 125.09375 280.746094 125.550781 281.800781 C 126.007812 282.855469 126.488281 283.898438 127 284.925781 C 127.507812 285.957031 128.042969 286.972656 128.605469 287.976562 C 129.164062 288.976562 129.753906 289.964844 130.363281 290.9375 C 130.976562 291.910156 131.609375 292.867188 132.273438 293.804688 C 132.933594 294.746094 133.617188 295.667969 134.324219 296.574219 C 135.03125 297.476562 135.761719 298.363281 136.515625 299.230469 C 137.265625 300.097656 138.042969 300.945312 138.835938 301.773438 C 139.632812 302.601562 140.449219 303.410156 141.285156 304.195312 C 142.125 304.984375 142.980469 305.746094 143.855469 306.492188 C 144.734375 307.234375 145.628906 307.953125 146.542969 308.648438 C 147.453125 309.347656 148.382812 310.019531 149.332031 310.667969 C 150.277344 311.320312 151.242188 311.945312 152.222656 312.542969 C 153.199219 313.144531 154.195312 313.71875 155.203125 314.269531 C 156.210938 314.820312 157.234375 315.34375 158.269531 315.839844 C 159.304688 316.335938 160.351562 316.808594 161.410156 317.25 C 162.472656 317.695312 163.542969 318.113281 164.621094 318.5 C 165.703125 318.890625 166.792969 319.253906 167.890625 319.585938 C 168.992188 319.917969 170.097656 320.226562 171.210938 320.503906 C 172.328125 320.78125 173.449219 321.027344 174.574219 321.25 C 175.703125 321.46875 176.835938 321.660156 177.972656 321.820312 C 179.109375 321.984375 180.25 322.117188 181.394531 322.21875 C 182.539062 322.324219 183.683594 322.398438 184.832031 322.445312 C 185.980469 322.488281 187.128906 322.503906 188.277344 322.492188 C 189.425781 322.480469 190.574219 322.4375 191.71875 322.363281 C 187.339844 317.042969 183.597656 311.304688 180.496094 305.152344 C 179 304.945312 177.515625 304.667969 176.042969 304.324219 C 174.570312 303.984375 173.117188 303.578125 171.679688 303.105469 C 170.242188 302.632812 168.832031 302.097656 167.445312 301.496094 C 166.054688 300.898438 164.699219 300.238281 163.367188 299.519531 C 162.039062 298.796875 160.746094 298.019531 159.488281 297.183594 C 158.226562 296.347656 157.007812 295.453125 155.828125 294.507812 C 154.648438 293.5625 153.515625 292.566406 152.425781 291.519531 C 151.335938 290.472656 150.292969 289.378906 149.300781 288.238281 C 148.308594 287.097656 147.371094 285.914062 146.484375 284.691406 C 145.597656 283.464844 144.769531 282.203125 143.996094 280.90625 C 143.222656 279.605469 142.507812 278.273438 141.855469 276.910156 C 141.203125 275.550781 140.609375 274.160156 140.082031 272.742188 C 139.550781 271.328125 139.085938 269.890625 138.6875 268.433594 C 138.285156 266.976562 137.949219 265.503906 137.683594 264.015625 C 137.414062 262.527344 137.210938 261.03125 137.078125 259.527344 C 136.941406 258.019531 136.875 256.511719 136.875 255 L 136.875 195.9375 C 136.875 195.382812 136.929688 194.835938 137.039062 194.292969 C 137.144531 193.75 137.304688 193.21875 137.515625 192.707031 C 137.730469 192.195312 137.988281 191.710938 138.296875 191.25 C 138.605469 190.789062 138.953125 190.363281 139.347656 189.972656 C 139.738281 189.578125 140.164062 189.230469 140.625 188.921875 C 141.085938 188.613281 141.570312 188.355469 142.082031 188.140625 C 142.59375 187.929688 143.125 187.769531 143.667969 187.664062 C 144.210938 187.554688 144.757812 187.5 145.3125 187.5 L 210.0625 187.5 C 219.523438 180.839844 229.867188 176.117188 241.09375 173.324219 C 237.507812 171.519531 233.703125 170.621094 229.6875 170.625 Z M 339.375 263.4375 C 339.375 264.679688 339.34375 265.921875 339.285156 267.164062 C 339.222656 268.40625 339.132812 269.644531 339.007812 270.878906 C 338.886719 272.117188 338.734375 273.351562 338.554688 274.578125 C 338.371094 275.808594 338.160156 277.035156 337.914062 278.253906 C 337.671875 279.472656 337.402344 280.683594 337.097656 281.890625 C 336.796875 283.09375 336.464844 284.292969 336.105469 285.480469 C 335.746094 286.671875 335.355469 287.851562 334.9375 289.019531 C 334.515625 290.191406 334.070312 291.347656 333.59375 292.496094 C 333.117188 293.644531 332.617188 294.78125 332.085938 295.90625 C 331.554688 297.027344 330.996094 298.136719 330.410156 299.234375 C 329.824219 300.332031 329.210938 301.410156 328.570312 302.476562 C 327.933594 303.542969 327.269531 304.59375 326.578125 305.625 C 325.886719 306.660156 325.171875 307.675781 324.429688 308.671875 C 323.691406 309.671875 322.925781 310.652344 322.136719 311.613281 C 321.347656 312.574219 320.539062 313.511719 319.703125 314.433594 C 318.867188 315.355469 318.011719 316.253906 317.132812 317.132812 C 316.253906 318.011719 315.355469 318.867188 314.433594 319.703125 C 313.511719 320.539062 312.574219 321.347656 311.613281 322.136719 C 310.652344 322.925781 309.671875 323.691406 308.671875 324.429688 C 307.675781 325.171875 306.660156 325.886719 305.625 326.578125 C 304.59375 327.269531 303.542969 327.933594 302.476562 328.570312 C 301.410156 329.210938 300.332031 329.824219 299.234375 330.410156 C 298.136719 330.996094 297.027344 331.554688 295.90625 332.085938 C 294.78125 332.617188 293.644531 333.117188 292.496094 333.59375 C 291.347656 334.070312 290.191406 334.515625 289.019531 334.9375 C 287.851562 335.355469 286.671875 335.746094 285.480469 336.105469 C 284.292969 336.464844 283.09375 336.796875 281.890625 337.097656 C 280.683594 337.402344 279.472656 337.671875 278.253906 337.914062 C 277.035156 338.160156 275.808594 338.371094 274.578125 338.554688 C 273.351562 338.734375 272.117188 338.886719 270.878906 339.007812 C 269.644531 339.132812 268.40625 339.222656 267.164062 339.285156 C 265.921875 339.34375 264.679688 339.375 263.4375 339.375 C 262.195312 339.375 260.953125 339.34375 259.710938 339.285156 C 258.46875 339.222656 257.230469 339.132812 255.996094 339.007812 C 254.757812 338.886719 253.523438 338.734375 252.296875 338.554688 C 251.066406 338.371094 249.839844 338.160156 248.621094 337.914062 C 247.402344 337.671875 246.191406 337.402344 244.984375 337.097656 C 243.78125 336.796875 242.582031 336.464844 241.394531 336.105469 C 240.203125 335.746094 239.023438 335.355469 237.855469 334.9375 C 236.683594 334.515625 235.527344 334.070312 234.378906 333.59375 C 233.230469 333.117188 232.09375 332.617188 230.96875 332.085938 C 229.847656 331.554688 228.738281 330.996094 227.640625 330.410156 C 226.542969 329.824219 225.464844 329.210938 224.398438 328.570312 C 223.332031 327.933594 222.28125 327.269531 221.25 326.578125 C 220.214844 325.886719 219.199219 325.171875 218.203125 324.429688 C 217.203125 323.691406 216.222656 322.925781 215.261719 322.136719 C 214.300781 321.347656 213.363281 320.539062 212.441406 319.703125 C 211.519531 318.867188 210.621094 318.011719 209.742188 317.132812 C 208.863281 316.253906 208.007812 315.355469 207.171875 314.433594 C 206.335938 313.511719 205.523438 312.574219 204.738281 311.613281 C 203.949219 310.652344 203.183594 309.671875 202.445312 308.671875 C 201.703125 307.675781 200.988281 306.660156 200.296875 305.625 C 199.605469 304.59375 198.941406 303.542969 198.304688 302.476562 C 197.664062 301.410156 197.050781 300.332031 196.464844 299.234375 C 195.878906 298.136719 195.320312 297.027344 194.789062 295.90625 C 194.257812 294.78125 193.757812 293.644531 193.28125 292.496094 C 192.804688 291.347656 192.359375 290.191406 191.9375 289.019531 C 191.519531 287.851562 191.128906 286.671875 190.769531 285.480469 C 190.410156 284.292969 190.078125 283.09375 189.777344 281.890625 C 189.472656 280.683594 189.203125 279.472656 188.960938 278.253906 C 188.714844 277.035156 188.503906 275.808594 188.320312 274.578125 C 188.140625 273.351562 187.988281 272.117188 187.867188 270.878906 C 187.742188 269.644531 187.652344 268.40625 187.589844 267.164062 C 187.53125 265.921875 187.5 264.679688 187.5 263.4375 C 187.5 262.195312 187.53125 260.953125 187.589844 259.710938 C 187.652344 258.46875 187.742188 257.230469 187.867188 255.996094 C 187.988281 254.757812 188.140625 253.523438 188.320312 252.296875 C 188.503906 251.066406 188.714844 249.839844 188.960938 248.621094 C 189.203125 247.402344 189.472656 246.191406 189.777344 244.984375 C 190.078125 243.78125 190.410156 242.582031 190.769531 241.394531 C 191.128906 240.203125 191.519531 239.023438 191.9375 237.855469 C 192.359375 236.683594 192.804688 235.527344 193.28125 234.378906 C 193.757812 233.230469 194.257812 232.09375 194.789062 230.96875 C 195.320312 229.847656 195.878906 228.738281 196.464844 227.640625 C 197.050781 226.542969 197.664062 225.464844 198.304688 224.398438 C 198.941406 223.332031 199.605469 222.28125 200.296875 221.25 C 200.988281 220.214844 201.703125 219.199219 202.445312 218.203125 C 203.183594 217.203125 203.949219 216.222656 204.738281 215.261719 C 205.523438 214.300781 206.335938 213.363281 207.171875 212.441406 C 208.007812 211.519531 208.863281 210.621094 209.742188 209.742188 C 210.621094 208.863281 211.519531 208.007812 212.441406 207.171875 C 213.363281 206.335938 214.300781 205.523438 215.261719 204.738281 C 216.222656 203.949219 217.203125 203.183594 218.203125 202.445312 C 219.199219 201.703125 220.214844 200.988281 221.25 200.296875 C 222.28125 199.605469 223.332031 198.941406 224.398438 198.304688 C 225.464844 197.664062 226.542969 197.050781 227.640625 196.464844 C 228.738281 195.878906 229.847656 195.320312 230.96875 194.789062 C 232.09375 194.257812 233.230469 193.757812 234.378906 193.28125 C 235.527344 192.804688 236.683594 192.359375 237.855469 191.9375 C 239.023438 191.519531 240.203125 191.128906 241.394531 190.769531 C 242.582031 190.410156 243.78125 190.078125 244.984375 189.777344 C 246.191406 189.472656 247.402344 189.203125 248.621094 188.960938 C 249.839844 188.714844 251.066406 188.503906 252.296875 188.320312 C 253.523438 188.140625 254.757812 187.988281 255.996094 187.867188 C 257.230469 187.742188 258.46875 187.652344 259.710938 187.589844 C 260.953125 187.53125 262.195312 187.5 263.4375 187.5 C 264.679688 187.5 265.921875 187.53125 267.164062 187.589844 C 268.40625 187.652344 269.644531 187.742188 270.878906 187.867188 C 272.117188 187.988281 273.351562 188.140625 274.578125 188.320312 C 275.808594 188.503906 277.035156 188.714844 278.253906 188.960938 C 279.472656 189.203125 280.683594 189.472656 281.890625 189.777344 C 283.09375 190.078125 284.292969 190.410156 285.480469 190.769531 C 286.671875 191.128906 287.851562 191.519531 289.019531 191.9375 C 290.191406 192.359375 291.347656 192.804688 292.496094 193.28125 C 293.644531 193.757812 294.78125 194.257812 295.90625 194.789062 C 297.027344 195.320312 298.136719 195.878906 299.234375 196.464844 C 300.332031 197.050781 301.410156 197.664062 302.476562 198.304688 C 303.542969 198.941406 304.59375 199.605469 305.625 200.296875 C 306.660156 200.988281 307.675781 201.703125 308.671875 202.445312 C 309.671875 203.183594 310.652344 203.949219 311.613281 204.738281 C 312.574219 205.527344 313.511719 206.335938 314.433594 207.171875 C 315.355469 208.007812 316.253906 208.863281 317.132812 209.742188 C 318.011719 210.621094 318.867188 211.519531 319.703125 212.441406 C 320.539062 213.363281 321.347656 214.300781 322.136719 215.261719 C 322.925781 216.222656 323.691406 217.203125 324.429688 218.203125 C 325.171875 219.199219 325.886719 220.214844 326.578125 221.25 C 327.269531 222.28125 327.933594 223.332031 328.570312 224.398438 C 329.210938 225.464844 329.824219 226.542969 330.410156 227.640625 C 330.996094 228.738281 331.554688 229.847656 332.085938 230.96875 C 332.617188 232.09375 333.117188 233.230469 333.59375 234.378906 C 334.070312 235.527344 334.515625 236.683594 334.9375 237.855469 C 335.355469 239.023438 335.746094 240.203125 336.105469 241.394531 C 336.464844 242.582031 336.796875 243.78125 337.097656 244.984375 C 337.402344 246.191406 337.671875 247.402344 337.914062 248.621094 C 338.160156 249.839844 338.371094 251.066406 338.554688 252.296875 C 338.734375 253.523438 338.886719 254.757812 339.007812 255.996094 C 339.132812 257.230469 339.222656 258.46875 339.285156 259.710938 C 339.34375 260.953125 339.375 262.195312 339.375 263.4375 M 271.875 229.6875 C 271.875 229.132812 271.820312 228.585938 271.710938 228.042969 C 271.605469 227.496094 271.445312 226.96875 271.234375 226.457031 C 271.019531 225.945312 270.761719 225.460938 270.453125 225 C 270.144531 224.539062 269.796875 224.113281 269.402344 223.722656 C 269.011719 223.328125 268.585938 222.980469 268.125 222.671875 C 267.664062 222.363281 267.179688 222.105469 266.667969 221.890625 C 266.15625 221.679688 265.625 221.519531 265.082031 221.410156 C 264.539062 221.304688 263.992188 221.25 263.4375 221.25 C 262.882812 221.25 262.335938 221.304688 261.792969 221.410156 C 261.246094 221.519531 260.71875 221.679688 260.207031 221.890625 C 259.695312 222.105469 259.210938 222.363281 258.75 222.671875 C 258.289062 222.980469 257.863281 223.328125 257.472656 223.722656 C 257.078125 224.113281 256.730469 224.539062 256.421875 225 C 256.113281 225.460938 255.855469 225.945312 255.640625 226.457031 C 255.429688 226.96875 255.269531 227.496094 255.160156 228.042969 C 255.054688 228.585938 255 229.132812 255 229.6875 L 255 255 L 229.6875 255 C 229.132812 255 228.585938 255.054688 228.042969 255.160156 C 227.496094 255.269531 226.96875 255.429688 226.457031 255.640625 C 225.945312 255.855469 225.460938 256.113281 225 256.421875 C 224.539062 256.730469 224.113281 257.078125 223.722656 257.472656 C 223.328125 257.863281 222.980469 258.289062 222.671875 258.75 C 222.363281 259.210938 222.105469 259.695312 221.890625 260.207031 C 221.679688 260.71875 221.519531 261.246094 221.410156 261.792969 C 221.304688 262.335938 221.25 262.882812 221.25 263.4375 C 221.25 263.992188 221.304688 264.539062 221.410156 265.082031 C 221.519531 265.625 221.679688 266.15625 221.890625 266.667969 C 222.105469 267.179688 222.363281 267.664062 222.671875 268.125 C 222.980469 268.585938 223.328125 269.011719 223.722656 269.402344 C 224.113281 269.796875 224.539062 270.144531 225 270.453125 C 225.460938 270.761719 225.945312 271.019531 226.457031 271.234375 C 226.96875 271.445312 227.496094 271.605469 228.042969 271.710938 C 228.585938 271.820312 229.132812 271.875 229.6875 271.875 L 255 271.875 L 255 297.1875 C 255 297.742188 255.054688 298.289062 255.160156 298.832031 C 255.269531 299.375 255.429688 299.90625 255.640625 300.417969 C 255.855469 300.929688 256.113281 301.414062 256.421875 301.875 C 256.730469 302.335938 257.078125 302.761719 257.472656 303.152344 C 257.863281 303.546875 258.289062 303.894531 258.75 304.203125 C 259.210938 304.511719 259.695312 304.769531 260.207031 304.984375 C 260.71875 305.195312 261.246094 305.355469 261.792969 305.460938 C 262.335938 305.570312 262.882812 305.625 263.4375 305.625 C 263.992188 305.625 264.539062 305.570312 265.082031 305.460938 C 265.625 305.355469 266.15625 305.195312 266.667969 304.984375 C 267.179688 304.769531 267.664062 304.511719 268.125 304.203125 C 268.585938 303.894531 269.011719 303.546875 269.402344 303.152344 C 269.796875 302.761719 270.144531 302.335938 270.453125 301.875 C 270.761719 301.414062 271.019531 300.929688 271.234375 300.417969 C 271.445312 299.90625 271.605469 299.375 271.710938 298.832031 C 271.820312 298.289062 271.875 297.742188 271.875 297.1875 L 271.875 271.875 L 297.1875 271.875 C 297.742188 271.875 298.289062 271.820312 298.832031 271.710938 C 299.375 271.605469 299.90625 271.445312 300.417969 271.234375 C 300.929688 271.019531 301.414062 270.761719 301.875 270.453125 C 302.335938 270.144531 302.761719 269.796875 303.152344 269.402344 C 303.546875 269.011719 303.894531 268.585938 304.203125 268.125 C 304.511719 267.664062 304.769531 267.179688 304.984375 266.667969 C 305.195312 266.15625 305.355469 265.625 305.460938 265.082031 C 305.570312 264.539062 305.625 263.992188 305.625 263.4375 C 305.625 262.882812 305.570312 262.335938 305.460938 261.792969 C 305.355469 261.246094 305.195312 260.71875 304.984375 260.207031 C 304.769531 259.695312 304.511719 259.210938 304.203125 258.75 C 303.894531 258.289062 303.546875 257.863281 303.152344 257.472656 C 302.761719 257.078125 302.335938 256.730469 301.875 256.421875 C 301.414062 256.113281 300.929688 255.855469 300.417969 255.640625 C 299.90625 255.429688 299.375 255.269531 298.832031 255.160156 C 298.289062 255.054688 297.742188 255 297.1875 255 L 271.875 255 Z M 271.875 229.6875 " fill-opacity="1" fill-rule="nonzero"/></svg>