<svg xmlns="http://www.w3.org/2000/svg" xmlns:xlink="http://www.w3.org/1999/xlink" width="40" zoomAndPan="magnify" viewBox="0 0 30 30.000001" height="40" preserveAspectRatio="xMidYMid meet" version="1.0"><defs><clipPath id="54377c3c59"><path d="M 0.484375 0 L 29.515625 0 L 29.515625 29.03125 L 0.484375 29.03125 Z M 0.484375 0 " clip-rule="nonzero"/></clipPath></defs><g clip-path="url(#54377c3c59)"><path fill="#ffffff" d="M 10.160156 19.355469 C 9.582031 19.351562 9.007812 19.402344 8.441406 19.503906 C 7.871094 19.601562 7.3125 19.753906 6.769531 19.953125 C 6.230469 20.152344 5.707031 20.394531 5.207031 20.6875 C 4.710938 20.980469 4.238281 21.3125 3.800781 21.6875 C 3.359375 22.0625 2.957031 22.476562 2.589844 22.921875 C 2.222656 23.371094 1.898438 23.847656 1.617188 24.351562 C 1.335938 24.855469 1.101562 25.382812 0.910156 25.929688 C 0.722656 26.472656 0.585938 27.035156 0.496094 27.605469 C 0.398438 28.355469 0.957031 29.03125 1.714844 29.03125 L 18.605469 29.03125 C 19.363281 29.03125 19.925781 28.355469 19.828125 27.605469 C 19.109375 22.863281 15 19.355469 10.160156 19.355469 M 10.160156 4.839844 C 10.558594 4.839844 10.953125 4.878906 11.339844 4.953125 C 11.730469 5.03125 12.109375 5.148438 12.476562 5.300781 C 12.84375 5.449219 13.191406 5.636719 13.523438 5.859375 C 13.851562 6.078125 14.15625 6.328125 14.4375 6.609375 C 14.71875 6.890625 14.96875 7.195312 15.191406 7.527344 C 15.410156 7.855469 15.597656 8.207031 15.75 8.574219 C 15.902344 8.9375 16.015625 9.316406 16.09375 9.707031 C 16.171875 10.097656 16.210938 10.488281 16.210938 10.886719 C 16.210938 11.285156 16.171875 11.675781 16.09375 12.066406 C 16.015625 12.457031 15.902344 12.835938 15.75 13.203125 C 15.597656 13.570312 15.410156 13.917969 15.191406 14.246094 C 14.96875 14.578125 14.71875 14.882812 14.4375 15.164062 C 14.15625 15.445312 13.851562 15.695312 13.523438 15.917969 C 13.191406 16.136719 12.84375 16.324219 12.476562 16.476562 C 12.109375 16.628906 11.730469 16.742188 11.339844 16.820312 C 10.953125 16.898438 10.558594 16.933594 10.160156 16.933594 C 9.765625 16.933594 9.371094 16.898438 8.980469 16.820312 C 8.589844 16.742188 8.214844 16.628906 7.847656 16.476562 C 7.480469 16.324219 7.132812 16.136719 6.800781 15.917969 C 6.472656 15.695312 6.164062 15.445312 5.882812 15.164062 C 5.605469 14.882812 5.351562 14.578125 5.132812 14.246094 C 4.910156 13.917969 4.726562 13.570312 4.574219 13.203125 C 4.421875 12.835938 4.304688 12.457031 4.230469 12.066406 C 4.152344 11.675781 4.113281 11.285156 4.113281 10.886719 C 4.113281 10.488281 4.152344 10.097656 4.230469 9.707031 C 4.304688 9.316406 4.421875 8.9375 4.574219 8.574219 C 4.726562 8.207031 4.910156 7.855469 5.132812 7.527344 C 5.351562 7.195312 5.605469 6.890625 5.882812 6.609375 C 6.164062 6.328125 6.472656 6.078125 6.800781 5.859375 C 7.132812 5.636719 7.480469 5.449219 7.847656 5.300781 C 8.214844 5.148438 8.589844 5.03125 8.980469 4.953125 C 9.371094 4.878906 9.765625 4.839844 10.160156 4.839844 M 23.46875 0 C 23.761719 0 24.019531 0.09375 24.242188 0.28125 C 24.46875 0.46875 24.605469 0.703125 24.65625 0.992188 L 24.675781 1.210938 L 24.675781 4.839844 L 28.304688 4.839844 C 28.597656 4.839844 28.855469 4.933594 29.082031 5.117188 C 29.304688 5.304688 29.445312 5.542969 29.496094 5.832031 L 29.515625 6.046875 C 29.515625 6.207031 29.484375 6.363281 29.425781 6.511719 C 29.363281 6.660156 29.273438 6.789062 29.160156 6.902344 C 29.046875 7.015625 28.917969 7.105469 28.769531 7.164062 C 28.621094 7.226562 28.46875 7.257812 28.304688 7.257812 L 24.675781 7.257812 L 24.675781 10.886719 C 24.679688 11.199219 24.574219 11.472656 24.363281 11.703125 C 24.152344 11.9375 23.890625 12.066406 23.578125 12.09375 C 23.265625 12.121094 22.984375 12.042969 22.734375 11.851562 C 22.484375 11.664062 22.332031 11.414062 22.277344 11.105469 L 22.257812 10.886719 L 22.257812 7.257812 L 18.628906 7.257812 C 18.335938 7.257812 18.078125 7.164062 17.855469 6.976562 C 17.628906 6.789062 17.492188 6.554688 17.4375 6.265625 L 17.417969 6.046875 C 17.417969 5.886719 17.449219 5.734375 17.511719 5.585938 C 17.574219 5.4375 17.660156 5.304688 17.773438 5.191406 C 17.886719 5.078125 18.019531 4.992188 18.167969 4.929688 C 18.3125 4.871094 18.46875 4.839844 18.628906 4.839844 L 22.257812 4.839844 L 22.257812 1.210938 C 22.257812 1.050781 22.289062 0.894531 22.351562 0.746094 C 22.410156 0.597656 22.5 0.46875 22.613281 0.355469 C 22.726562 0.242188 22.855469 0.152344 23.003906 0.09375 C 23.152344 0.03125 23.308594 0 23.46875 0 " fill-opacity="1" fill-rule="nonzero"/></g></svg>