<svg xmlns="http://www.w3.org/2000/svg" xmlns:xlink="http://www.w3.org/1999/xlink" width="40" zoomAndPan="magnify" viewBox="0 0 30 30.000001" height="40" preserveAspectRatio="xMidYMid meet" version="1.0"><path fill="#ffffff" d="M 8.488281 25.402344 C 7.929688 25.402344 7.464844 25.21875 7.09375 24.84375 C 6.71875 24.472656 6.53125 24.007812 6.53125 23.449219 L 6.53125 10.421875 C 6.53125 9.863281 6.71875 9.402344 7.09375 9.027344 C 7.464844 8.65625 7.929688 8.46875 8.488281 8.46875 L 10.765625 8.46875 L 10.765625 7.863281 C 10.765625 6.6875 11.179688 5.6875 12 4.863281 C 12.824219 4.039062 13.824219 3.628906 15 3.628906 C 16.175781 3.628906 17.175781 4.039062 18 4.863281 C 18.820312 5.6875 19.234375 6.6875 19.234375 7.863281 L 19.234375 8.46875 L 21.515625 8.46875 C 22.070312 8.46875 22.535156 8.65625 22.90625 9.027344 C 23.28125 9.402344 23.46875 9.867188 23.46875 10.421875 L 23.46875 23.449219 C 23.46875 24.007812 23.28125 24.472656 22.90625 24.84375 C 22.535156 25.21875 22.070312 25.402344 21.515625 25.402344 Z M 11.976562 8.46875 L 18.023438 8.46875 L 18.023438 7.863281 C 18.023438 7.011719 17.734375 6.292969 17.152344 5.710938 C 16.570312 5.128906 15.851562 4.839844 15 4.839844 C 14.148438 4.839844 13.429688 5.128906 12.847656 5.710938 C 12.265625 6.292969 11.976562 7.011719 11.976562 7.863281 Z M 18.628906 13.304688 C 18.800781 13.304688 18.945312 13.25 19.0625 13.132812 C 19.175781 13.019531 19.234375 12.875 19.234375 12.703125 L 19.234375 9.675781 L 18.023438 9.675781 L 18.023438 12.703125 C 18.023438 12.875 18.082031 13.019531 18.195312 13.132812 C 18.3125 13.25 18.457031 13.304688 18.628906 13.304688 M 11.371094 13.304688 C 11.542969 13.304688 11.6875 13.25 11.804688 13.132812 C 11.917969 13.019531 11.976562 12.875 11.976562 12.703125 L 11.976562 9.675781 L 10.765625 9.675781 L 10.765625 12.703125 C 10.765625 12.875 10.824219 13.019531 10.9375 13.132812 C 11.054688 13.25 11.199219 13.304688 11.371094 13.304688 " fill-opacity="1" fill-rule="nonzero"/></svg>