<svg xmlns="http://www.w3.org/2000/svg" xmlns:xlink="http://www.w3.org/1999/xlink" width="500" zoomAndPan="magnify" viewBox="0 0 375 149.999998" height="200" preserveAspectRatio="xMidYMid meet" version="1.0"><defs><g/><clipPath id="4307687ba3"><path d="M 45 27 L 110.425781 27 L 110.425781 122.980469 L 45 122.980469 Z M 45 27 " clip-rule="nonzero"/></clipPath><clipPath id="b286f8f02d"><path d="M 46 29.558594 L 110.558594 29.558594 L 110.558594 125.558594 L 46 125.558594 Z M 46 29.558594 " clip-rule="nonzero"/></clipPath></defs><path stroke-linecap="round" transform="matrix(0, 0.75, -0.75, 0, 119.651401, 24.404297)" fill="none" stroke-linejoin="miter" d="M 1.002604 0.998743 L 133.924486 0.998743 " stroke="#ffffff" stroke-width="2" stroke-opacity="1" stroke-miterlimit="4"/><g fill="#ffffff" fill-opacity="1"><g transform="translate(123.742014, 73.681644)"><g><path d="M 25.25 -22.953125 C 24.644531 -24.066406 23.773438 -24.921875 22.640625 -25.515625 C 21.515625 -26.109375 20.1875 -26.40625 18.65625 -26.40625 C 16.007812 -26.40625 13.890625 -25.535156 12.296875 -23.796875 C 10.703125 -22.054688 9.90625 -19.734375 9.90625 -16.828125 C 9.90625 -13.742188 10.738281 -11.332031 12.40625 -9.59375 C 14.082031 -7.851562 16.390625 -6.984375 19.328125 -6.984375 C 21.328125 -6.984375 23.019531 -7.492188 24.40625 -8.515625 C 25.800781 -9.535156 26.816406 -11 27.453125 -12.90625 L 17.078125 -12.90625 L 17.078125 -18.9375 L 34.859375 -18.9375 L 34.859375 -11.328125 C 34.253906 -9.296875 33.226562 -7.398438 31.78125 -5.640625 C 30.332031 -3.890625 28.488281 -2.472656 26.25 -1.390625 C 24.019531 -0.304688 21.503906 0.234375 18.703125 0.234375 C 15.390625 0.234375 12.429688 -0.488281 9.828125 -1.9375 C 7.234375 -3.382812 5.207031 -5.398438 3.75 -7.984375 C 2.300781 -10.566406 1.578125 -13.515625 1.578125 -16.828125 C 1.578125 -20.148438 2.300781 -23.109375 3.75 -25.703125 C 5.207031 -28.304688 7.222656 -30.332031 9.796875 -31.78125 C 12.378906 -33.226562 15.332031 -33.953125 18.65625 -33.953125 C 22.664062 -33.953125 26.050781 -32.976562 28.8125 -31.03125 C 31.570312 -29.09375 33.398438 -26.398438 34.296875 -22.953125 Z M 25.25 -22.953125 "/></g></g></g><g fill="#ffffff" fill-opacity="1"><g transform="translate(163.627853, 73.681644)"><g><path d="M 11 -33.578125 L 11 -13.484375 C 11 -11.472656 11.492188 -9.925781 12.484375 -8.84375 C 13.472656 -7.757812 14.921875 -7.21875 16.828125 -7.21875 C 18.742188 -7.21875 20.210938 -7.757812 21.234375 -8.84375 C 22.253906 -9.925781 22.765625 -11.472656 22.765625 -13.484375 L 22.765625 -33.578125 L 30.9375 -33.578125 L 30.9375 -13.53125 C 30.9375 -10.539062 30.300781 -8.007812 29.03125 -5.9375 C 27.757812 -3.863281 26.046875 -2.300781 23.890625 -1.25 C 21.734375 -0.195312 19.332031 0.328125 16.6875 0.328125 C 14.039062 0.328125 11.671875 -0.1875 9.578125 -1.21875 C 7.492188 -2.257812 5.847656 -3.820312 4.640625 -5.90625 C 3.429688 -8 2.828125 -10.539062 2.828125 -13.53125 L 2.828125 -33.578125 Z M 12.046875 -36.640625 C 11.054688 -36.640625 10.226562 -36.972656 9.5625 -37.640625 C 8.894531 -38.304688 8.5625 -39.132812 8.5625 -40.125 C 8.5625 -41.113281 8.894531 -41.953125 9.5625 -42.640625 C 10.226562 -43.328125 11.054688 -43.671875 12.046875 -43.671875 C 13.066406 -43.671875 13.910156 -43.332031 14.578125 -42.65625 C 15.253906 -41.988281 15.59375 -41.144531 15.59375 -40.125 C 15.59375 -39.132812 15.25 -38.304688 14.5625 -37.640625 C 13.875 -36.972656 13.035156 -36.640625 12.046875 -36.640625 Z M 21.609375 -36.640625 C 20.617188 -36.640625 19.789062 -36.972656 19.125 -37.640625 C 18.457031 -38.304688 18.125 -39.132812 18.125 -40.125 C 18.125 -41.113281 18.457031 -41.953125 19.125 -42.640625 C 19.789062 -43.328125 20.617188 -43.671875 21.609375 -43.671875 C 22.628906 -43.671875 23.472656 -43.332031 24.140625 -42.65625 C 24.816406 -41.988281 25.15625 -41.144531 25.15625 -40.125 C 25.15625 -39.132812 24.8125 -38.304688 24.125 -37.640625 C 23.4375 -36.972656 22.597656 -36.640625 21.609375 -36.640625 Z M 21.609375 -36.640625 "/></g></g></g><g fill="#ffffff" fill-opacity="1"><g transform="translate(200.787721, 73.681644)"><g><path d="M 34.484375 -33.578125 L 22.578125 0 L 12.34375 0 L 0.4375 -33.578125 L 9.140625 -33.578125 L 17.453125 -8.21875 L 25.828125 -33.578125 Z M 34.484375 -33.578125 "/></g></g></g><g fill="#ffffff" fill-opacity="1"><g transform="translate(239.143188, 73.681644)"><g><path d="M 11.140625 -27.015625 L 11.140625 -20.234375 L 22.09375 -20.234375 L 22.09375 -13.921875 L 11.140625 -13.921875 L 11.140625 -6.546875 L 23.53125 -6.546875 L 23.53125 0 L 2.96875 0 L 2.96875 -33.578125 L 23.53125 -33.578125 L 23.53125 -27.015625 Z M 11.140625 -27.015625 "/></g></g></g><g fill="#ffffff" fill-opacity="1"><g transform="translate(268.459893, 73.681644)"><g><path d="M 20.09375 0 L 13.109375 -12.671875 L 11.140625 -12.671875 L 11.140625 0 L 2.96875 0 L 2.96875 -33.578125 L 16.6875 -33.578125 C 19.332031 -33.578125 21.585938 -33.113281 23.453125 -32.1875 C 25.316406 -31.257812 26.710938 -29.988281 27.640625 -28.375 C 28.566406 -26.769531 29.03125 -24.976562 29.03125 -23 C 29.03125 -20.769531 28.398438 -18.773438 27.140625 -17.015625 C 25.878906 -15.265625 24.023438 -14.023438 21.578125 -13.296875 L 29.3125 0 Z M 11.140625 -18.46875 L 16.21875 -18.46875 C 17.71875 -18.46875 18.835938 -18.832031 19.578125 -19.5625 C 20.328125 -20.289062 20.703125 -21.328125 20.703125 -22.671875 C 20.703125 -23.941406 20.328125 -24.941406 19.578125 -25.671875 C 18.835938 -26.410156 17.71875 -26.78125 16.21875 -26.78125 L 11.140625 -26.78125 Z M 11.140625 -18.46875 "/></g></g></g><g fill="#ffffff" fill-opacity="1"><g transform="translate(303.085078, 73.681644)"><g><path d="M 27.125 -33.578125 L 27.125 -27.015625 L 18.21875 -27.015625 L 18.21875 0 L 10.046875 0 L 10.046875 -27.015625 L 1.140625 -27.015625 L 1.140625 -33.578125 Z M 27.125 -33.578125 "/></g></g></g><g fill="#ffffff" fill-opacity="1"><g transform="translate(334.792981, 73.681644)"><g><path d="M 11.140625 -27.015625 L 11.140625 -20.234375 L 22.09375 -20.234375 L 22.09375 -13.921875 L 11.140625 -13.921875 L 11.140625 -6.546875 L 23.53125 -6.546875 L 23.53125 0 L 2.96875 0 L 2.96875 -33.578125 L 23.53125 -33.578125 L 23.53125 -27.015625 Z M 11.140625 -27.015625 "/></g></g></g><g fill="#ffffff" fill-opacity="1"><g transform="translate(123.742014, 111.866187)"><g><path d="M 18.125 -24.96875 L 18.125 -22.3125 L 11.3125 -22.3125 L 11.3125 0 L 8.0625 0 L 8.0625 -22.3125 L 1.21875 -22.3125 L 1.21875 -24.96875 Z M 18.125 -24.96875 "/></g></g></g><g fill="#ffffff" fill-opacity="1"><g transform="translate(150.916683, 111.866187)"><g><path d="M 6.015625 -22.3125 L 6.015625 -13.96875 L 15.109375 -13.96875 L 15.109375 -11.28125 L 6.015625 -11.28125 L 6.015625 -2.6875 L 16.1875 -2.6875 L 16.1875 0 L 2.75 0 L 2.75 -25 L 16.1875 -25 L 16.1875 -22.3125 Z M 6.015625 -22.3125 "/></g></g></g><g fill="#ffffff" fill-opacity="1"><g transform="translate(177.088931, 111.866187)"><g><path d="M 17.515625 -5.546875 L 6.625 -5.546875 L 4.625 0 L 1.1875 0 L 10.203125 -24.8125 L 13.96875 -24.8125 L 22.953125 0 L 19.515625 0 Z M 16.578125 -8.203125 L 12.0625 -20.8125 L 7.5625 -8.203125 Z M 16.578125 -8.203125 "/></g></g></g><g fill="#ffffff" fill-opacity="1"><g transform="translate(209.025097, 111.866187)"><g><path d="M 16.296875 0 L 6.015625 -11.390625 L 6.015625 0 L 2.75 0 L 2.75 -24.96875 L 6.015625 -24.96875 L 6.015625 -13.390625 L 16.328125 -24.96875 L 20.453125 -24.96875 L 9.125 -12.46875 L 20.5625 0 Z M 16.296875 0 "/></g></g></g><g clip-path="url(#4307687ba3)"><path fill="#080a0f" d="M 53.742188 89.195312 L 50.464844 85.027344 C 42.179688 74.492188 45.710938 59.003906 57.742188 53.09375 L 110.789062 27.03125 L 110.789062 37.761719 C 110.789062 45.964844 106.105469 53.453125 98.726562 57.050781 L 63.460938 74.234375 C 60.894531 75.484375 58.644531 77.320312 56.949219 79.613281 C 55.246094 81.921875 53.777344 85.085938 53.890625 89.074219 C 55.054688 88.152344 56.339844 87.335938 57.738281 86.648438 L 110.789062 60.585938 L 110.789062 71.316406 C 110.789062 79.523438 106.101562 87.007812 98.726562 90.605469 L 63.460938 107.789062 C 60.894531 109.039062 58.644531 110.871094 56.949219 113.167969 C 55.195312 115.539062 53.699219 118.8125 53.90625 122.960938 L 50.464844 118.585938 C 43.1875 109.324219 45.027344 96.242188 53.742188 89.195312 Z M 88.199219 111.207031 L 110.773438 122.96875 L 110.765625 93.589844 L 88.242188 104.925781 C 85.671875 106.222656 85.648438 109.878906 88.199219 111.207031 Z M 88.199219 111.207031 " fill-opacity="1" fill-rule="nonzero"/></g><g clip-path="url(#b286f8f02d)"><path fill="#38b6ff" d="M 53.871094 91.773438 L 50.597656 87.605469 C 42.3125 77.070312 45.84375 61.582031 57.875 55.671875 L 110.921875 29.609375 L 110.921875 40.339844 C 110.921875 48.542969 106.238281 56.03125 98.859375 59.625 L 63.59375 76.8125 C 61.027344 78.0625 58.777344 79.894531 57.078125 82.191406 C 55.375 84.5 53.910156 87.660156 54.023438 91.652344 C 55.1875 90.730469 56.472656 89.914062 57.871094 89.226562 L 110.921875 63.164062 L 110.921875 73.894531 C 110.921875 82.097656 106.234375 89.585938 98.859375 93.179688 L 63.59375 110.367188 C 61.027344 111.617188 58.777344 113.449219 57.078125 115.746094 C 55.328125 118.117188 53.828125 121.390625 54.039062 125.539062 L 50.597656 121.160156 C 43.316406 111.902344 45.160156 98.820312 53.871094 91.773438 Z M 88.332031 113.785156 L 110.90625 125.546875 L 110.898438 96.164062 L 88.375 107.503906 C 85.804688 108.796875 85.78125 112.457031 88.332031 113.785156 Z M 88.332031 113.785156 " fill-opacity="1" fill-rule="nonzero"/></g></svg>