<svg xmlns="http://www.w3.org/2000/svg" xmlns:xlink="http://www.w3.org/1999/xlink" width="500" zoomAndPan="magnify" viewBox="0 0 375 149.999998" height="200" preserveAspectRatio="xMidYMid meet" version="1.0"><defs><filter x="0%" y="0%" width="100%" height="100%" id="4ca7421b98"><feColorMatrix values="0 0 0 0 1 0 0 0 0 1 0 0 0 0 1 0 0 0 1 0" color-interpolation-filters="sRGB"/></filter><g/><clipPath id="7cdd669622"><path d="M 52.492188 3.867188 L 309.742188 3.867188 L 309.742188 150 L 52.492188 150 Z M 52.492188 3.867188 " clip-rule="nonzero"/></clipPath><clipPath id="142f582768"><path d="M 0.492188 0.867188 L 257.742188 0.867188 L 257.742188 147 L 0.492188 147 Z M 0.492188 0.867188 " clip-rule="nonzero"/></clipPath><clipPath id="8db8363fb5"><path d="M 0.492188 0.867188 L 257.742188 0.867188 L 257.742188 147 L 0.492188 147 Z M 0.492188 0.867188 " clip-rule="nonzero"/></clipPath><linearGradient x1="-95.491997" gradientTransform="matrix(0.748464, 0, 0, 0.747171, 71.964318, 72.215066)" y1="32.5" x2="248.211994" gradientUnits="userSpaceOnUse" y2="32.5" id="1cc7e26545"><stop stop-opacity="1" stop-color="rgb(36.468506%, 87.838745%, 90.19928%)" offset="0"/><stop stop-opacity="1" stop-color="rgb(36.468506%, 87.838745%, 90.19928%)" offset="0.25"/><stop stop-opacity="1" stop-color="rgb(36.468506%, 87.838745%, 90.19928%)" offset="0.265625"/><stop stop-opacity="1" stop-color="rgb(36.468506%, 87.838745%, 90.19928%)" offset="0.273438"/><stop stop-opacity="1" stop-color="rgb(36.328125%, 87.612915%, 90.112305%)" offset="0.277344"/><stop stop-opacity="1" stop-color="rgb(36.18927%, 87.387085%, 90.026855%)" offset="0.28125"/><stop stop-opacity="1" stop-color="rgb(35.86731%, 86.869812%, 89.830017%)" offset="0.285156"/><stop stop-opacity="1" stop-color="rgb(35.546875%, 86.352539%, 89.634705%)" offset="0.289063"/><stop stop-opacity="1" stop-color="rgb(35.22644%, 85.835266%, 89.437866%)" offset="0.292969"/><stop stop-opacity="1" stop-color="rgb(34.906006%, 85.317993%, 89.241028%)" offset="0.296875"/><stop stop-opacity="1" stop-color="rgb(34.585571%, 84.80072%, 89.044189%)" offset="0.300781"/><stop stop-opacity="1" stop-color="rgb(34.265137%, 84.283447%, 88.847351%)" offset="0.304688"/><stop stop-opacity="1" stop-color="rgb(33.944702%, 83.766174%, 88.650513%)" offset="0.308594"/><stop stop-opacity="1" stop-color="rgb(33.624268%, 83.250427%, 88.4552%)" offset="0.3125"/><stop stop-opacity="1" stop-color="rgb(33.302307%, 82.733154%, 88.258362%)" offset="0.316406"/><stop stop-opacity="1" stop-color="rgb(32.981873%, 82.215881%, 88.061523%)" offset="0.320312"/><stop stop-opacity="1" stop-color="rgb(32.661438%, 81.698608%, 87.864685%)" offset="0.324219"/><stop stop-opacity="1" stop-color="rgb(32.341003%, 81.181335%, 87.667847%)" offset="0.328125"/><stop stop-opacity="1" stop-color="rgb(32.020569%, 80.664062%, 87.471008%)" offset="0.332031"/><stop stop-opacity="1" stop-color="rgb(31.700134%, 80.14679%, 87.275696%)" offset="0.335938"/><stop stop-opacity="1" stop-color="rgb(31.3797%, 79.629517%, 87.078857%)" offset="0.339844"/><stop stop-opacity="1" stop-color="rgb(31.059265%, 79.11377%, 86.882019%)" offset="0.34375"/><stop stop-opacity="1" stop-color="rgb(30.737305%, 78.596497%, 86.685181%)" offset="0.347656"/><stop stop-opacity="1" stop-color="rgb(30.41687%, 78.079224%, 86.488342%)" offset="0.351563"/><stop stop-opacity="1" stop-color="rgb(30.096436%, 77.561951%, 86.291504%)" offset="0.355469"/><stop stop-opacity="1" stop-color="rgb(29.776001%, 77.044678%, 86.096191%)" offset="0.359375"/><stop stop-opacity="1" stop-color="rgb(29.455566%, 76.527405%, 85.899353%)" offset="0.363281"/><stop stop-opacity="1" stop-color="rgb(29.135132%, 76.010132%, 85.702515%)" offset="0.367188"/><stop stop-opacity="1" stop-color="rgb(28.814697%, 75.492859%, 85.505676%)" offset="0.371094"/><stop stop-opacity="1" stop-color="rgb(28.494263%, 74.975586%, 85.308838%)" offset="0.375"/><stop stop-opacity="1" stop-color="rgb(28.173828%, 74.458313%, 85.112%)" offset="0.378906"/><stop stop-opacity="1" stop-color="rgb(27.853394%, 73.942566%, 84.916687%)" offset="0.382812"/><stop stop-opacity="1" stop-color="rgb(27.531433%, 73.425293%, 84.719849%)" offset="0.386719"/><stop stop-opacity="1" stop-color="rgb(27.210999%, 72.90802%, 84.52301%)" offset="0.390625"/><stop stop-opacity="1" stop-color="rgb(26.890564%, 72.390747%, 84.326172%)" offset="0.394531"/><stop stop-opacity="1" stop-color="rgb(26.570129%, 71.873474%, 84.129333%)" offset="0.398438"/><stop stop-opacity="1" stop-color="rgb(26.249695%, 71.356201%, 83.932495%)" offset="0.402344"/><stop stop-opacity="1" stop-color="rgb(25.92926%, 70.838928%, 83.737183%)" offset="0.40625"/><stop stop-opacity="1" stop-color="rgb(25.608826%, 70.321655%, 83.540344%)" offset="0.410156"/><stop stop-opacity="1" stop-color="rgb(25.288391%, 69.805908%, 83.343506%)" offset="0.414062"/><stop stop-opacity="1" stop-color="rgb(24.966431%, 69.288635%, 83.146667%)" offset="0.417969"/><stop stop-opacity="1" stop-color="rgb(24.645996%, 68.771362%, 82.951355%)" offset="0.421875"/><stop stop-opacity="1" stop-color="rgb(24.325562%, 68.254089%, 82.754517%)" offset="0.425781"/><stop stop-opacity="1" stop-color="rgb(24.005127%, 67.736816%, 82.557678%)" offset="0.429688"/><stop stop-opacity="1" stop-color="rgb(23.684692%, 67.219543%, 82.36084%)" offset="0.433594"/><stop stop-opacity="1" stop-color="rgb(23.364258%, 66.702271%, 82.164001%)" offset="0.4375"/><stop stop-opacity="1" stop-color="rgb(23.043823%, 66.184998%, 81.967163%)" offset="0.441406"/><stop stop-opacity="1" stop-color="rgb(22.723389%, 65.667725%, 81.771851%)" offset="0.445312"/><stop stop-opacity="1" stop-color="rgb(22.401428%, 65.150452%, 81.575012%)" offset="0.449219"/><stop stop-opacity="1" stop-color="rgb(22.080994%, 64.634705%, 81.378174%)" offset="0.453125"/><stop stop-opacity="1" stop-color="rgb(21.760559%, 64.117432%, 81.181335%)" offset="0.457031"/><stop stop-opacity="1" stop-color="rgb(21.440125%, 63.600159%, 80.984497%)" offset="0.460938"/><stop stop-opacity="1" stop-color="rgb(21.11969%, 63.082886%, 80.787659%)" offset="0.464844"/><stop stop-opacity="1" stop-color="rgb(20.799255%, 62.565613%, 80.592346%)" offset="0.46875"/><stop stop-opacity="1" stop-color="rgb(20.478821%, 62.04834%, 80.395508%)" offset="0.472656"/><stop stop-opacity="1" stop-color="rgb(20.158386%, 61.531067%, 80.198669%)" offset="0.476563"/><stop stop-opacity="1" stop-color="rgb(19.836426%, 61.013794%, 80.001831%)" offset="0.480469"/><stop stop-opacity="1" stop-color="rgb(19.515991%, 60.498047%, 79.804993%)" offset="0.484375"/><stop stop-opacity="1" stop-color="rgb(19.195557%, 59.980774%, 79.608154%)" offset="0.488281"/><stop stop-opacity="1" stop-color="rgb(18.875122%, 59.463501%, 79.412842%)" offset="0.492188"/><stop stop-opacity="1" stop-color="rgb(18.554688%, 58.946228%, 79.216003%)" offset="0.496094"/><stop stop-opacity="1" stop-color="rgb(18.234253%, 58.428955%, 79.019165%)" offset="0.5"/><stop stop-opacity="1" stop-color="rgb(17.913818%, 57.911682%, 78.822327%)" offset="0.503906"/><stop stop-opacity="1" stop-color="rgb(17.593384%, 57.394409%, 78.625488%)" offset="0.507812"/><stop stop-opacity="1" stop-color="rgb(17.271423%, 56.877136%, 78.42865%)" offset="0.511719"/><stop stop-opacity="1" stop-color="rgb(16.950989%, 56.361389%, 78.233337%)" offset="0.515625"/><stop stop-opacity="1" stop-color="rgb(16.630554%, 55.844116%, 78.036499%)" offset="0.519531"/><stop stop-opacity="1" stop-color="rgb(16.31012%, 55.326843%, 77.839661%)" offset="0.523438"/><stop stop-opacity="1" stop-color="rgb(15.989685%, 54.80957%, 77.642822%)" offset="0.527344"/><stop stop-opacity="1" stop-color="rgb(15.66925%, 54.292297%, 77.445984%)" offset="0.53125"/><stop stop-opacity="1" stop-color="rgb(15.348816%, 53.775024%, 77.249146%)" offset="0.535156"/><stop stop-opacity="1" stop-color="rgb(15.028381%, 53.257751%, 77.053833%)" offset="0.539062"/><stop stop-opacity="1" stop-color="rgb(14.706421%, 52.740479%, 76.856995%)" offset="0.542969"/><stop stop-opacity="1" stop-color="rgb(14.385986%, 52.223206%, 76.660156%)" offset="0.546875"/><stop stop-opacity="1" stop-color="rgb(14.065552%, 51.705933%, 76.463318%)" offset="0.550781"/><stop stop-opacity="1" stop-color="rgb(13.745117%, 51.190186%, 76.266479%)" offset="0.554688"/><stop stop-opacity="1" stop-color="rgb(13.424683%, 50.672913%, 76.069641%)" offset="0.558594"/><stop stop-opacity="1" stop-color="rgb(13.104248%, 50.15564%, 75.874329%)" offset="0.5625"/><stop stop-opacity="1" stop-color="rgb(12.783813%, 49.638367%, 75.67749%)" offset="0.566406"/><stop stop-opacity="1" stop-color="rgb(12.463379%, 49.121094%, 75.480652%)" offset="0.570312"/><stop stop-opacity="1" stop-color="rgb(12.142944%, 48.603821%, 75.283813%)" offset="0.574219"/><stop stop-opacity="1" stop-color="rgb(11.82251%, 48.086548%, 75.086975%)" offset="0.578125"/><stop stop-opacity="1" stop-color="rgb(11.500549%, 47.569275%, 74.890137%)" offset="0.582031"/><stop stop-opacity="1" stop-color="rgb(11.180115%, 47.053528%, 74.694824%)" offset="0.585938"/><stop stop-opacity="1" stop-color="rgb(10.85968%, 46.536255%, 74.497986%)" offset="0.589844"/><stop stop-opacity="1" stop-color="rgb(10.539246%, 46.018982%, 74.301147%)" offset="0.59375"/><stop stop-opacity="1" stop-color="rgb(10.218811%, 45.501709%, 74.104309%)" offset="0.597656"/><stop stop-opacity="1" stop-color="rgb(9.898376%, 44.984436%, 73.908997%)" offset="0.601563"/><stop stop-opacity="1" stop-color="rgb(9.577942%, 44.467163%, 73.712158%)" offset="0.605469"/><stop stop-opacity="1" stop-color="rgb(9.257507%, 43.94989%, 73.51532%)" offset="0.609375"/><stop stop-opacity="1" stop-color="rgb(8.935547%, 43.432617%, 73.318481%)" offset="0.613281"/><stop stop-opacity="1" stop-color="rgb(8.615112%, 42.915344%, 73.121643%)" offset="0.617188"/><stop stop-opacity="1" stop-color="rgb(8.294678%, 42.398071%, 72.924805%)" offset="0.621094"/><stop stop-opacity="1" stop-color="rgb(7.974243%, 41.882324%, 72.729492%)" offset="0.625"/><stop stop-opacity="1" stop-color="rgb(7.653809%, 41.365051%, 72.532654%)" offset="0.628906"/><stop stop-opacity="1" stop-color="rgb(7.333374%, 40.847778%, 72.335815%)" offset="0.632813"/><stop stop-opacity="1" stop-color="rgb(7.012939%, 40.330505%, 72.138977%)" offset="0.636719"/><stop stop-opacity="1" stop-color="rgb(6.692505%, 39.813232%, 71.942139%)" offset="0.640625"/><stop stop-opacity="1" stop-color="rgb(6.370544%, 39.295959%, 71.7453%)" offset="0.644531"/><stop stop-opacity="1" stop-color="rgb(6.05011%, 38.778687%, 71.549988%)" offset="0.648438"/><stop stop-opacity="1" stop-color="rgb(5.729675%, 38.261414%, 71.353149%)" offset="0.652344"/><stop stop-opacity="1" stop-color="rgb(5.409241%, 37.745667%, 71.156311%)" offset="0.65625"/><stop stop-opacity="1" stop-color="rgb(5.088806%, 37.228394%, 70.959473%)" offset="0.660156"/><stop stop-opacity="1" stop-color="rgb(4.768372%, 36.711121%, 70.762634%)" offset="0.664062"/><stop stop-opacity="1" stop-color="rgb(4.447937%, 36.193848%, 70.565796%)" offset="0.667969"/><stop stop-opacity="1" stop-color="rgb(4.127502%, 35.676575%, 70.370483%)" offset="0.671875"/><stop stop-opacity="1" stop-color="rgb(3.805542%, 35.159302%, 70.173645%)" offset="0.675781"/><stop stop-opacity="1" stop-color="rgb(3.485107%, 34.642029%, 69.976807%)" offset="0.679688"/><stop stop-opacity="1" stop-color="rgb(3.164673%, 34.124756%, 69.779968%)" offset="0.683594"/><stop stop-opacity="1" stop-color="rgb(2.844238%, 33.607483%, 69.58313%)" offset="0.6875"/><stop stop-opacity="1" stop-color="rgb(2.523804%, 33.09021%, 69.386292%)" offset="0.691406"/><stop stop-opacity="1" stop-color="rgb(2.203369%, 32.574463%, 69.190979%)" offset="0.695313"/><stop stop-opacity="1" stop-color="rgb(1.882935%, 32.05719%, 68.994141%)" offset="0.699219"/><stop stop-opacity="1" stop-color="rgb(1.5625%, 31.539917%, 68.797302%)" offset="0.703125"/><stop stop-opacity="1" stop-color="rgb(1.24054%, 31.022644%, 68.600464%)" offset="0.707031"/><stop stop-opacity="1" stop-color="rgb(0.920105%, 30.505371%, 68.403625%)" offset="0.710938"/><stop stop-opacity="1" stop-color="rgb(0.59967%, 29.988098%, 68.206787%)" offset="0.714844"/><stop stop-opacity="1" stop-color="rgb(0.279236%, 29.470825%, 68.011475%)" offset="0.71875"/><stop stop-opacity="1" stop-color="rgb(0.138855%, 29.244995%, 67.9245%)" offset="0.722656"/><stop stop-opacity="1" stop-color="rgb(0%, 29.019165%, 67.83905%)" offset="0.726563"/><stop stop-opacity="1" stop-color="rgb(0%, 29.019165%, 67.83905%)" offset="0.734375"/><stop stop-opacity="1" stop-color="rgb(0%, 29.019165%, 67.83905%)" offset="0.75"/><stop stop-opacity="1" stop-color="rgb(0%, 29.019165%, 67.83905%)" offset="1"/></linearGradient><clipPath id="2a3afb481e"><rect x="0" width="258" y="0" height="147"/></clipPath><clipPath id="a1b69c7beb"><path d="M 0.492188 0.867188 L 257.742188 0.867188 L 257.742188 147 L 0.492188 147 Z M 0.492188 0.867188 " clip-rule="nonzero"/></clipPath><clipPath id="256d5ba255"><rect x="0" width="258" y="0" height="147"/></clipPath><clipPath id="321e01deb0"><rect x="0" width="258" y="0" height="147"/></clipPath><mask id="1e07868c0c"><g filter="url(#4ca7421b98)"><g transform="matrix(1, 0, 0, 1, 0, -0.00000000000000755)"><g clip-path="url(#321e01deb0)"><g clip-path="url(#a1b69c7beb)"><g transform="matrix(1, 0, 0, 1, 0, -0.00000000000000755)"><g clip-path="url(#256d5ba255)"><g fill="#000000" fill-opacity="1"><g transform="translate(71.742014, 108.866187)"><g><path d="M 18.125 -24.96875 L 18.125 -22.3125 L 11.3125 -22.3125 L 11.3125 0 L 8.0625 0 L 8.0625 -22.3125 L 1.21875 -22.3125 L 1.21875 -24.96875 Z M 18.125 -24.96875 "/></g></g></g><g fill="#000000" fill-opacity="1"><g transform="translate(98.916683, 108.866187)"><g><path d="M 6.015625 -22.3125 L 6.015625 -13.96875 L 15.109375 -13.96875 L 15.109375 -11.28125 L 6.015625 -11.28125 L 6.015625 -2.6875 L 16.1875 -2.6875 L 16.1875 0 L 2.75 0 L 2.75 -25 L 16.1875 -25 L 16.1875 -22.3125 Z M 6.015625 -22.3125 "/></g></g></g><g fill="#000000" fill-opacity="1"><g transform="translate(125.088931, 108.866187)"><g><path d="M 17.515625 -5.546875 L 6.625 -5.546875 L 4.625 0 L 1.1875 0 L 10.203125 -24.8125 L 13.96875 -24.8125 L 22.953125 0 L 19.515625 0 Z M 16.578125 -8.203125 L 12.0625 -20.8125 L 7.5625 -8.203125 Z M 16.578125 -8.203125 "/></g></g></g><g fill="#000000" fill-opacity="1"><g transform="translate(157.025097, 108.866187)"><g><path d="M 16.296875 0 L 6.015625 -11.390625 L 6.015625 0 L 2.75 0 L 2.75 -24.96875 L 6.015625 -24.96875 L 6.015625 -13.390625 L 16.328125 -24.96875 L 20.453125 -24.96875 L 9.125 -12.46875 L 20.5625 0 Z M 16.296875 0 "/></g></g></g></g></g></g></g></g></g></mask><clipPath id="e0d259eae0"><path d="M 0.492188 0.867188 L 257.742188 0.867188 L 257.742188 147 L 0.492188 147 Z M 0.492188 0.867188 " clip-rule="nonzero"/></clipPath><clipPath id="dc30a7b1ad"><rect x="0" width="258" y="0" height="147"/></clipPath><clipPath id="e82418d9ce"><rect x="0" width="258" y="0" height="147"/></clipPath><clipPath id="7ebe881c12"><path d="M 45 27 L 110.425781 27 L 110.425781 122.980469 L 45 122.980469 Z M 45 27 " clip-rule="nonzero"/></clipPath><clipPath id="0cdec94e31"><path d="M 46 29.558594 L 110.558594 29.558594 L 110.558594 125.558594 L 46 125.558594 Z M 46 29.558594 " clip-rule="nonzero"/></clipPath></defs><path stroke-linecap="round" transform="matrix(0, 0.75, -0.75, 0, 119.651401, 24.404297)" fill="none" stroke-linejoin="miter" d="M 1.002604 0.998743 L 133.924486 0.998743 " stroke="#ffffff" stroke-width="2" stroke-opacity="1" stroke-miterlimit="4"/><g fill="#080a0f" fill-opacity="1"><g transform="translate(123.742014, 73.681644)"><g><path d="M 25.25 -22.953125 C 24.644531 -24.066406 23.773438 -24.921875 22.640625 -25.515625 C 21.515625 -26.109375 20.1875 -26.40625 18.65625 -26.40625 C 16.007812 -26.40625 13.890625 -25.535156 12.296875 -23.796875 C 10.703125 -22.054688 9.90625 -19.734375 9.90625 -16.828125 C 9.90625 -13.742188 10.738281 -11.332031 12.40625 -9.59375 C 14.082031 -7.851562 16.390625 -6.984375 19.328125 -6.984375 C 21.328125 -6.984375 23.019531 -7.492188 24.40625 -8.515625 C 25.800781 -9.535156 26.816406 -11 27.453125 -12.90625 L 17.078125 -12.90625 L 17.078125 -18.9375 L 34.859375 -18.9375 L 34.859375 -11.328125 C 34.253906 -9.296875 33.226562 -7.398438 31.78125 -5.640625 C 30.332031 -3.890625 28.488281 -2.472656 26.25 -1.390625 C 24.019531 -0.304688 21.503906 0.234375 18.703125 0.234375 C 15.390625 0.234375 12.429688 -0.488281 9.828125 -1.9375 C 7.234375 -3.382812 5.207031 -5.398438 3.75 -7.984375 C 2.300781 -10.566406 1.578125 -13.515625 1.578125 -16.828125 C 1.578125 -20.148438 2.300781 -23.109375 3.75 -25.703125 C 5.207031 -28.304688 7.222656 -30.332031 9.796875 -31.78125 C 12.378906 -33.226562 15.332031 -33.953125 18.65625 -33.953125 C 22.664062 -33.953125 26.050781 -32.976562 28.8125 -31.03125 C 31.570312 -29.09375 33.398438 -26.398438 34.296875 -22.953125 Z M 25.25 -22.953125 "/></g></g></g><g fill="#080a0f" fill-opacity="1"><g transform="translate(163.627853, 73.681644)"><g><path d="M 11 -33.578125 L 11 -13.484375 C 11 -11.472656 11.492188 -9.925781 12.484375 -8.84375 C 13.472656 -7.757812 14.921875 -7.21875 16.828125 -7.21875 C 18.742188 -7.21875 20.210938 -7.757812 21.234375 -8.84375 C 22.253906 -9.925781 22.765625 -11.472656 22.765625 -13.484375 L 22.765625 -33.578125 L 30.9375 -33.578125 L 30.9375 -13.53125 C 30.9375 -10.539062 30.300781 -8.007812 29.03125 -5.9375 C 27.757812 -3.863281 26.046875 -2.300781 23.890625 -1.25 C 21.734375 -0.195312 19.332031 0.328125 16.6875 0.328125 C 14.039062 0.328125 11.671875 -0.1875 9.578125 -1.21875 C 7.492188 -2.257812 5.847656 -3.820312 4.640625 -5.90625 C 3.429688 -8 2.828125 -10.539062 2.828125 -13.53125 L 2.828125 -33.578125 Z M 12.046875 -36.640625 C 11.054688 -36.640625 10.226562 -36.972656 9.5625 -37.640625 C 8.894531 -38.304688 8.5625 -39.132812 8.5625 -40.125 C 8.5625 -41.113281 8.894531 -41.953125 9.5625 -42.640625 C 10.226562 -43.328125 11.054688 -43.671875 12.046875 -43.671875 C 13.066406 -43.671875 13.910156 -43.332031 14.578125 -42.65625 C 15.253906 -41.988281 15.59375 -41.144531 15.59375 -40.125 C 15.59375 -39.132812 15.25 -38.304688 14.5625 -37.640625 C 13.875 -36.972656 13.035156 -36.640625 12.046875 -36.640625 Z M 21.609375 -36.640625 C 20.617188 -36.640625 19.789062 -36.972656 19.125 -37.640625 C 18.457031 -38.304688 18.125 -39.132812 18.125 -40.125 C 18.125 -41.113281 18.457031 -41.953125 19.125 -42.640625 C 19.789062 -43.328125 20.617188 -43.671875 21.609375 -43.671875 C 22.628906 -43.671875 23.472656 -43.332031 24.140625 -42.65625 C 24.816406 -41.988281 25.15625 -41.144531 25.15625 -40.125 C 25.15625 -39.132812 24.8125 -38.304688 24.125 -37.640625 C 23.4375 -36.972656 22.597656 -36.640625 21.609375 -36.640625 Z M 21.609375 -36.640625 "/></g></g></g><g fill="#080a0f" fill-opacity="1"><g transform="translate(200.787721, 73.681644)"><g><path d="M 34.484375 -33.578125 L 22.578125 0 L 12.34375 0 L 0.4375 -33.578125 L 9.140625 -33.578125 L 17.453125 -8.21875 L 25.828125 -33.578125 Z M 34.484375 -33.578125 "/></g></g></g><g fill="#080a0f" fill-opacity="1"><g transform="translate(239.143188, 73.681644)"><g><path d="M 11.140625 -27.015625 L 11.140625 -20.234375 L 22.09375 -20.234375 L 22.09375 -13.921875 L 11.140625 -13.921875 L 11.140625 -6.546875 L 23.53125 -6.546875 L 23.53125 0 L 2.96875 0 L 2.96875 -33.578125 L 23.53125 -33.578125 L 23.53125 -27.015625 Z M 11.140625 -27.015625 "/></g></g></g><g fill="#080a0f" fill-opacity="1"><g transform="translate(268.459893, 73.681644)"><g><path d="M 20.09375 0 L 13.109375 -12.671875 L 11.140625 -12.671875 L 11.140625 0 L 2.96875 0 L 2.96875 -33.578125 L 16.6875 -33.578125 C 19.332031 -33.578125 21.585938 -33.113281 23.453125 -32.1875 C 25.316406 -31.257812 26.710938 -29.988281 27.640625 -28.375 C 28.566406 -26.769531 29.03125 -24.976562 29.03125 -23 C 29.03125 -20.769531 28.398438 -18.773438 27.140625 -17.015625 C 25.878906 -15.265625 24.023438 -14.023438 21.578125 -13.296875 L 29.3125 0 Z M 11.140625 -18.46875 L 16.21875 -18.46875 C 17.71875 -18.46875 18.835938 -18.832031 19.578125 -19.5625 C 20.328125 -20.289062 20.703125 -21.328125 20.703125 -22.671875 C 20.703125 -23.941406 20.328125 -24.941406 19.578125 -25.671875 C 18.835938 -26.410156 17.71875 -26.78125 16.21875 -26.78125 L 11.140625 -26.78125 Z M 11.140625 -18.46875 "/></g></g></g><g fill="#080a0f" fill-opacity="1"><g transform="translate(303.085078, 73.681644)"><g><path d="M 27.125 -33.578125 L 27.125 -27.015625 L 18.21875 -27.015625 L 18.21875 0 L 10.046875 0 L 10.046875 -27.015625 L 1.140625 -27.015625 L 1.140625 -33.578125 Z M 27.125 -33.578125 "/></g></g></g><g fill="#080a0f" fill-opacity="1"><g transform="translate(334.792981, 73.681644)"><g><path d="M 11.140625 -27.015625 L 11.140625 -20.234375 L 22.09375 -20.234375 L 22.09375 -13.921875 L 11.140625 -13.921875 L 11.140625 -6.546875 L 23.53125 -6.546875 L 23.53125 0 L 2.96875 0 L 2.96875 -33.578125 L 23.53125 -33.578125 L 23.53125 -27.015625 Z M 11.140625 -27.015625 "/></g></g></g><g clip-path="url(#7cdd669622)"><g transform="matrix(1, 0, 0, 1, 52, 3)"><g clip-path="url(#e82418d9ce)"><g clip-path="url(#142f582768)"><g mask="url(#1e07868c0c)"><g transform="matrix(1, 0, 0, 1, 0, -0.00000000000000755)"><g clip-path="url(#dc30a7b1ad)"><g clip-path="url(#e0d259eae0)"><path fill="url(#1cc7e26545)" d="M 0.492188 0.867188 L 0.492188 147 L 257.742188 147 L 257.742188 0.867188 Z M 0.492188 0.867188 " fill-rule="nonzero"/></g></g></g></g></g></g></g></g><g clip-path="url(#7ebe881c12)"><path fill="#080a0f" d="M 53.742188 89.195312 L 50.464844 85.027344 C 42.179688 74.492188 45.710938 59.003906 57.742188 53.09375 L 110.789062 27.03125 L 110.789062 37.761719 C 110.789062 45.964844 106.105469 53.453125 98.726562 57.050781 L 63.460938 74.234375 C 60.894531 75.484375 58.644531 77.320312 56.949219 79.613281 C 55.246094 81.921875 53.777344 85.085938 53.890625 89.074219 C 55.054688 88.152344 56.339844 87.335938 57.738281 86.648438 L 110.789062 60.585938 L 110.789062 71.316406 C 110.789062 79.523438 106.101562 87.007812 98.726562 90.605469 L 63.460938 107.789062 C 60.894531 109.039062 58.644531 110.871094 56.949219 113.167969 C 55.195312 115.539062 53.699219 118.8125 53.90625 122.960938 L 50.464844 118.585938 C 43.1875 109.324219 45.027344 96.242188 53.742188 89.195312 Z M 88.199219 111.207031 L 110.773438 122.96875 L 110.765625 93.589844 L 88.242188 104.925781 C 85.671875 106.222656 85.648438 109.878906 88.199219 111.207031 Z M 88.199219 111.207031 " fill-opacity="1" fill-rule="nonzero"/></g><g clip-path="url(#0cdec94e31)"><path fill="#38b6ff" d="M 53.871094 91.773438 L 50.597656 87.605469 C 42.3125 77.070312 45.84375 61.582031 57.875 55.671875 L 110.921875 29.609375 L 110.921875 40.339844 C 110.921875 48.542969 106.238281 56.03125 98.859375 59.625 L 63.59375 76.8125 C 61.027344 78.0625 58.777344 79.894531 57.078125 82.191406 C 55.375 84.5 53.910156 87.660156 54.023438 91.652344 C 55.1875 90.730469 56.472656 89.914062 57.871094 89.226562 L 110.921875 63.164062 L 110.921875 73.894531 C 110.921875 82.097656 106.234375 89.585938 98.859375 93.179688 L 63.59375 110.367188 C 61.027344 111.617188 58.777344 113.449219 57.078125 115.746094 C 55.328125 118.117188 53.828125 121.390625 54.039062 125.539062 L 50.597656 121.160156 C 43.316406 111.902344 45.160156 98.820312 53.871094 91.773438 Z M 88.332031 113.785156 L 110.90625 125.546875 L 110.898438 96.164062 L 88.375 107.503906 C 85.804688 108.796875 85.78125 112.457031 88.332031 113.785156 Z M 88.332031 113.785156 " fill-opacity="1" fill-rule="nonzero"/></g></svg>