<svg xmlns="http://www.w3.org/2000/svg" xmlns:xlink="http://www.w3.org/1999/xlink" width="40" zoomAndPan="magnify" viewBox="0 0 30 30.000001" height="40" preserveAspectRatio="xMidYMid meet" version="1.0"><path fill="#ffffff" d="M 22.257812 13.304688 L 20.445312 13.304688 L 20.445312 12.703125 L 18.023438 12.703125 L 18.023438 16.332031 L 20.445312 16.332031 L 20.445312 15.726562 L 22.257812 15.726562 L 22.257812 16.933594 C 22.257812 17.097656 22.226562 17.25 22.164062 17.398438 C 22.105469 17.546875 22.015625 17.675781 21.902344 17.789062 C 21.789062 17.902344 21.660156 17.992188 21.511719 18.054688 C 21.363281 18.113281 21.207031 18.144531 21.046875 18.144531 L 17.417969 18.144531 C 17.257812 18.144531 17.105469 18.113281 16.957031 18.054688 C 16.808594 17.992188 16.675781 17.902344 16.5625 17.789062 C 16.449219 17.675781 16.363281 17.546875 16.300781 17.398438 C 16.242188 17.25 16.210938 17.097656 16.210938 16.933594 L 16.210938 12.097656 C 16.210938 11.9375 16.242188 11.78125 16.300781 11.632812 C 16.363281 11.484375 16.449219 11.355469 16.5625 11.242188 C 16.675781 11.128906 16.808594 11.039062 16.957031 10.980469 C 17.105469 10.917969 17.257812 10.886719 17.417969 10.886719 L 21.046875 10.886719 C 21.207031 10.886719 21.363281 10.917969 21.511719 10.980469 C 21.660156 11.039062 21.789062 11.128906 21.902344 11.242188 C 22.015625 11.355469 22.105469 11.484375 22.164062 11.632812 C 22.226562 11.78125 22.257812 11.9375 22.257812 12.097656 M 13.789062 13.304688 L 11.976562 13.304688 L 11.976562 12.703125 L 9.554688 12.703125 L 9.554688 16.332031 L 11.976562 16.332031 L 11.976562 15.726562 L 13.789062 15.726562 L 13.789062 16.933594 C 13.789062 17.097656 13.757812 17.25 13.699219 17.398438 C 13.636719 17.546875 13.550781 17.675781 13.4375 17.789062 C 13.324219 17.902344 13.191406 17.992188 13.042969 18.054688 C 12.894531 18.113281 12.742188 18.144531 12.582031 18.144531 L 8.953125 18.144531 C 8.792969 18.144531 8.636719 18.113281 8.488281 18.054688 C 8.339844 17.992188 8.210938 17.902344 8.097656 17.789062 C 7.984375 17.675781 7.894531 17.546875 7.835938 17.398438 C 7.773438 17.25 7.742188 17.097656 7.742188 16.933594 L 7.742188 12.097656 C 7.742188 11.9375 7.773438 11.78125 7.835938 11.632812 C 7.894531 11.484375 7.984375 11.355469 8.097656 11.242188 C 8.210938 11.128906 8.339844 11.039062 8.488281 10.980469 C 8.636719 10.917969 8.792969 10.886719 8.953125 10.886719 L 12.582031 10.886719 C 12.742188 10.886719 12.894531 10.917969 13.042969 10.980469 C 13.191406 11.039062 13.324219 11.128906 13.4375 11.242188 C 13.550781 11.355469 13.636719 11.484375 13.699219 11.632812 C 13.757812 11.78125 13.789062 11.9375 13.789062 12.097656 M 23.46875 4.839844 L 6.53125 4.839844 C 5.191406 4.839844 4.113281 5.914062 4.113281 7.257812 L 4.113281 21.773438 C 4.113281 22.09375 4.175781 22.402344 4.296875 22.699219 C 4.417969 22.996094 4.59375 23.257812 4.820312 23.484375 C 5.046875 23.710938 5.308594 23.886719 5.605469 24.007812 C 5.902344 24.132812 6.210938 24.195312 6.53125 24.195312 L 23.46875 24.195312 C 23.789062 24.195312 24.097656 24.132812 24.394531 24.007812 C 24.691406 23.886719 24.953125 23.710938 25.179688 23.484375 C 25.40625 23.257812 25.582031 22.996094 25.703125 22.699219 C 25.824219 22.402344 25.886719 22.09375 25.886719 21.773438 L 25.886719 7.257812 C 25.886719 6.9375 25.824219 6.628906 25.703125 6.332031 C 25.582031 6.035156 25.40625 5.773438 25.179688 5.546875 C 24.953125 5.320312 24.691406 5.144531 24.394531 5.023438 C 24.097656 4.898438 23.789062 4.839844 23.46875 4.839844 " fill-opacity="1" fill-rule="nonzero"/></svg>
