<svg xmlns="http://www.w3.org/2000/svg" xmlns:xlink="http://www.w3.org/1999/xlink" width="40" zoomAndPan="magnify" viewBox="0 0 30 30.000001" height="40" preserveAspectRatio="xMidYMid meet" version="1.0"><defs><clipPath id="1bedf8522c"><path d="M 7 6.238281 L 25.453125 6.238281 L 25.453125 26.683594 L 7 26.683594 Z M 7 6.238281 " clip-rule="nonzero"/></clipPath><clipPath id="c8957c3ebd"><path d="M 4.535156 2.007812 L 24 2.007812 L 24 24 L 4.535156 24 Z M 4.535156 2.007812 " clip-rule="nonzero"/></clipPath></defs><g clip-path="url(#1bedf8522c)"><path fill="#080a0f" d="M 7 25.125 L 7 8.097656 C 7 6.671875 8.546875 5.777344 9.78125 6.492188 L 24.527344 15.007812 C 25.765625 15.71875 25.765625 17.503906 24.527344 18.21875 L 9.78125 26.730469 C 8.546875 27.445312 7 26.554688 7 25.125 " fill-opacity="1" fill-rule="nonzero"/></g><g clip-path="url(#c8957c3ebd)"><path fill="#080a0f" d="M 6.878906 3.117188 C 6.644531 3.117188 6.410156 3.179688 6.195312 3.304688 C 5.765625 3.550781 5.511719 3.992188 5.511719 4.488281 L 5.511719 21.515625 C 5.511719 22.007812 5.765625 22.453125 6.195312 22.699219 C 6.625 22.945312 7.132812 22.945312 7.5625 22.699219 L 22.308594 14.1875 C 22.738281 13.9375 22.992188 13.496094 22.992188 13 C 22.992188 12.507812 22.738281 12.066406 22.308594 11.816406 L 7.5625 3.304688 C 7.347656 3.179688 7.113281 3.117188 6.878906 3.117188 Z M 6.878906 23.859375 C 6.476562 23.859375 6.074219 23.753906 5.707031 23.542969 C 4.976562 23.121094 4.535156 22.363281 4.535156 21.515625 L 4.535156 4.488281 C 4.535156 3.640625 4.976562 2.882812 5.707031 2.460938 C 6.441406 2.035156 7.316406 2.035156 8.050781 2.460938 L 22.796875 10.972656 C 23.527344 11.394531 23.96875 12.15625 23.96875 13 C 23.96875 13.847656 23.527344 14.605469 22.796875 15.03125 L 8.050781 23.542969 C 7.683594 23.753906 7.28125 23.859375 6.878906 23.859375 " fill-opacity="1" fill-rule="nonzero"/></g></svg>