<svg xmlns="http://www.w3.org/2000/svg" xmlns:xlink="http://www.w3.org/1999/xlink" width="40" zoomAndPan="magnify" viewBox="0 0 30 30.000001" height="40" preserveAspectRatio="xMidYMid meet" version="1.0"><path fill="currentColor" d="M 10.160156 8.46875 C 10.160156 8.148438 10.191406 7.835938 10.253906 7.523438 C 10.316406 7.210938 10.40625 6.910156 10.53125 6.617188 C 10.652344 6.324219 10.800781 6.042969 10.976562 5.78125 C 11.152344 5.515625 11.355469 5.269531 11.578125 5.046875 C 11.804688 4.820312 12.046875 4.621094 12.3125 4.445312 C 12.574219 4.269531 12.855469 4.117188 13.148438 3.996094 C 13.441406 3.875 13.746094 3.785156 14.054688 3.722656 C 14.367188 3.660156 14.683594 3.628906 15 3.628906 C 15.316406 3.628906 15.632812 3.660156 15.945312 3.722656 C 16.253906 3.785156 16.558594 3.875 16.851562 3.996094 C 17.144531 4.117188 17.425781 4.269531 17.6875 4.445312 C 17.953125 4.621094 18.195312 4.820312 18.421875 5.046875 C 18.644531 5.269531 18.847656 5.515625 19.023438 5.78125 C 19.199219 6.042969 19.347656 6.324219 19.46875 6.617188 C 19.59375 6.910156 19.683594 7.210938 19.746094 7.523438 C 19.808594 7.835938 19.839844 8.148438 19.839844 8.46875 C 19.839844 8.785156 19.808594 9.101562 19.746094 9.410156 C 19.683594 9.722656 19.59375 10.027344 19.46875 10.320312 C 19.347656 10.613281 19.199219 10.890625 19.023438 11.15625 C 18.847656 11.421875 18.644531 11.664062 18.421875 11.890625 C 18.195312 12.113281 17.953125 12.316406 17.6875 12.492188 C 17.425781 12.667969 17.144531 12.816406 16.851562 12.9375 C 16.558594 13.058594 16.253906 13.152344 15.945312 13.214844 C 15.632812 13.277344 15.316406 13.304688 15 13.304688 C 14.683594 13.304688 14.367188 13.277344 14.054688 13.214844 C 13.746094 13.152344 13.441406 13.058594 13.148438 12.9375 C 12.855469 12.816406 12.574219 12.667969 12.3125 12.492188 C 12.046875 12.316406 11.804688 12.113281 11.578125 11.890625 C 11.355469 11.664062 11.152344 11.421875 10.976562 11.15625 C 10.800781 10.890625 10.652344 10.613281 10.53125 10.320312 C 10.40625 10.027344 10.316406 9.722656 10.253906 9.410156 C 10.191406 9.101562 10.160156 8.785156 10.160156 8.46875 M 10.160156 15.726562 C 9.765625 15.726562 9.371094 15.765625 8.980469 15.84375 C 8.589844 15.917969 8.214844 16.035156 7.847656 16.1875 C 7.480469 16.339844 7.132812 16.523438 6.800781 16.746094 C 6.472656 16.964844 6.164062 17.214844 5.882812 17.496094 C 5.605469 17.777344 5.351562 18.082031 5.132812 18.414062 C 4.910156 18.742188 4.726562 19.09375 4.574219 19.460938 C 4.421875 19.828125 4.304688 20.203125 4.230469 20.59375 C 4.152344 20.984375 4.113281 21.378906 4.113281 21.773438 C 4.113281 22.253906 4.203125 22.71875 4.390625 23.164062 C 4.574219 23.609375 4.835938 24 5.175781 24.339844 C 5.515625 24.679688 5.910156 24.941406 6.351562 25.128906 C 6.796875 25.3125 7.261719 25.402344 7.742188 25.402344 L 22.257812 25.402344 C 22.738281 25.402344 23.203125 25.3125 23.648438 25.128906 C 24.089844 24.941406 24.484375 24.679688 24.824219 24.339844 C 25.164062 24 25.425781 23.609375 25.609375 23.164062 C 25.796875 22.71875 25.886719 22.253906 25.886719 21.773438 C 25.886719 21.378906 25.847656 20.984375 25.769531 20.59375 C 25.695312 20.203125 25.578125 19.828125 25.425781 19.460938 C 25.273438 19.09375 25.089844 18.742188 24.867188 18.414062 C 24.648438 18.082031 24.394531 17.777344 24.117188 17.496094 C 23.835938 17.214844 23.527344 16.964844 23.199219 16.746094 C 22.867188 16.570312 22.519531 16.339844 22.152344 16.1875 C 21.785156 16.035156 21.40625 15.917969 21.019531 15.84375 C 20.628906 15.765625 20.234375 15.726562 19.839844 15.726562 Z M 10.160156 15.726562 " fill-opacity="1" fill-rule="evenodd"/></svg>