<svg xmlns="http://www.w3.org/2000/svg" xmlns:xlink="http://www.w3.org/1999/xlink" width="40" zoomAndPan="magnify" viewBox="0 0 30 30.000001" height="40" preserveAspectRatio="xMidYMid meet" version="1.0"><path fill="#080a0f" d="M 24.675781 4.839844 L 5.324219 4.839844 C 3.992188 4.839844 2.902344 5.925781 2.902344 7.257812 L 2.902344 21.773438 C 2.902344 23.105469 3.992188 24.195312 5.324219 24.195312 L 24.675781 24.195312 C 26.007812 24.195312 27.097656 23.105469 27.097656 21.773438 L 27.097656 7.257812 C 27.097656 5.925781 26.007812 4.839844 24.675781 4.839844 M 7.742188 12.097656 L 11.371094 12.097656 L 11.371094 14.515625 L 7.742188 14.515625 Z M 16.210938 19.355469 L 7.742188 19.355469 L 7.742188 16.933594 L 16.210938 16.933594 Z M 22.257812 19.355469 L 18.628906 19.355469 L 18.628906 16.933594 L 22.257812 16.933594 Z M 22.257812 14.515625 L 13.789062 14.515625 L 13.789062 12.097656 L 22.257812 12.097656 Z M 22.257812 14.515625 " fill-opacity="1" fill-rule="nonzero"/></svg>