<svg xmlns="http://www.w3.org/2000/svg" xmlns:xlink="http://www.w3.org/1999/xlink" width="40" zoomAndPan="magnify" viewBox="0 0 30 30.000001" height="40" preserveAspectRatio="xMidYMid meet" version="1.0"><defs><clipPath id="4af160dea8"><path d="M 2.660156 2.175781 L 24.207031 2.175781 L 24.207031 23.722656 L 2.660156 23.722656 Z M 2.660156 2.175781 " clip-rule="nonzero"/></clipPath><clipPath id="6d19c0b2e3"><path d="M 24.207031 9.433594 L 24.207031 16.464844 C 24.207031 20.476562 20.957031 23.722656 16.949219 23.722656 L 9.917969 23.722656 C 5.910156 23.722656 2.660156 20.476562 2.660156 16.464844 L 2.660156 9.433594 C 2.660156 5.425781 5.910156 2.175781 9.917969 2.175781 L 16.949219 2.175781 C 20.957031 2.175781 24.207031 5.425781 24.207031 9.433594 Z M 24.207031 9.433594 " clip-rule="nonzero"/></clipPath><clipPath id="34ba5a6ae4"><path d="M 0.660156 0.175781 L 22.207031 0.175781 L 22.207031 21.722656 L 0.660156 21.722656 Z M 0.660156 0.175781 " clip-rule="nonzero"/></clipPath><clipPath id="80a648e678"><path d="M 22.207031 7.433594 L 22.207031 14.464844 C 22.207031 18.476562 18.957031 21.722656 14.949219 21.722656 L 7.917969 21.722656 C 3.910156 21.722656 0.660156 18.476562 0.660156 14.464844 L 0.660156 7.433594 C 0.660156 3.425781 3.910156 0.175781 7.917969 0.175781 L 14.949219 0.175781 C 18.957031 0.175781 22.207031 3.425781 22.207031 7.433594 Z M 22.207031 7.433594 " clip-rule="nonzero"/></clipPath><clipPath id="b457a691f8"><rect x="0" width="23" y="0" height="22"/></clipPath><clipPath id="cd493d74d8"><path d="M 0.484375 0 L 29.515625 0 L 29.515625 29.03125 L 0.484375 29.03125 Z M 0.484375 0 " clip-rule="nonzero"/></clipPath></defs><g clip-path="url(#4af160dea8)"><g clip-path="url(#6d19c0b2e3)"><g transform="matrix(1, 0, 0, 1, 2, 2)"><g clip-path="url(#b457a691f8)"><g clip-path="url(#34ba5a6ae4)"><g clip-path="url(#80a648e678)"><path fill="#ffffff" d="M 0.660156 0.175781 L 22.207031 0.175781 L 22.207031 21.722656 L 0.660156 21.722656 Z M 0.660156 0.175781 " fill-opacity="1" fill-rule="nonzero"/></g></g></g></g></g></g><g clip-path="url(#cd493d74d8)"><path stroke-linecap="round" transform="matrix(0.725806, 0, 0, 0.725806, 7.59222, 5.169017)" fill="none" stroke-linejoin="miter" d="M 1.498288 28.377549 L 13.602281 28.377549 C 16.815302 28.377549 19.893774 27.102028 22.159573 24.830848 C 24.430753 22.565049 25.706274 19.486577 25.706274 16.273556 L 25.706274 1.500118 " stroke="#ffffff" stroke-width="3" stroke-opacity="1" stroke-miterlimit="4"/></g></svg>