<svg xmlns="http://www.w3.org/2000/svg" xmlns:xlink="http://www.w3.org/1999/xlink" width="40" zoomAndPan="magnify" viewBox="0 0 30 30.000001" height="40" preserveAspectRatio="xMidYMid meet" version="1.0"><path fill="currentColor" d="M 15.152344 8.371094 C 14.886719 8.371094 14.632812 8.320312 14.386719 8.21875 C 14.144531 8.117188 13.925781 7.972656 13.738281 7.785156 C 13.550781 7.597656 13.410156 7.382812 13.308594 7.136719 C 13.207031 6.894531 13.15625 6.640625 13.15625 6.375 C 13.15625 6.109375 13.207031 5.855469 13.308594 5.609375 C 13.410156 5.367188 13.550781 5.148438 13.738281 4.960938 C 13.925781 4.777344 14.144531 4.632812 14.386719 4.53125 C 14.632812 4.429688 14.886719 4.378906 15.152344 4.378906 C 15.414062 4.378906 15.671875 4.429688 15.914062 4.53125 C 16.160156 4.632812 16.375 4.777344 16.5625 4.960938 C 16.75 5.148438 16.894531 5.367188 16.996094 5.609375 C 17.097656 5.855469 17.148438 6.109375 17.148438 6.375 C 17.148438 6.640625 17.097656 6.894531 16.996094 7.136719 C 16.894531 7.382812 16.75 7.597656 16.5625 7.785156 C 16.375 7.972656 16.160156 8.117188 15.914062 8.21875 C 15.671875 8.320312 15.414062 8.371094 15.152344 8.371094 Z M 15.152344 8.371094 " fill-opacity="1" fill-rule="nonzero"/><path fill="currentColor" d="M 15.152344 16.355469 C 14.886719 16.355469 14.632812 16.304688 14.386719 16.203125 C 14.144531 16.101562 13.925781 15.957031 13.738281 15.769531 C 13.550781 15.582031 13.410156 15.367188 13.308594 15.121094 C 13.207031 14.878906 13.15625 14.621094 13.15625 14.359375 C 13.15625 14.09375 13.207031 13.839844 13.308594 13.59375 C 13.410156 13.351562 13.550781 13.132812 13.738281 12.945312 C 13.925781 12.757812 14.144531 12.617188 14.386719 12.515625 C 14.632812 12.414062 14.886719 12.363281 15.152344 12.363281 C 15.414062 12.363281 15.671875 12.414062 15.914062 12.515625 C 16.160156 12.617188 16.375 12.757812 16.5625 12.945312 C 16.75 13.132812 16.894531 13.351562 16.996094 13.59375 C 17.097656 13.839844 17.148438 14.09375 17.148438 14.359375 C 17.148438 14.621094 17.097656 14.878906 16.996094 15.121094 C 16.894531 15.367188 16.75 15.582031 16.5625 15.769531 C 16.375 15.957031 16.160156 16.101562 15.914062 16.203125 C 15.671875 16.304688 15.414062 16.355469 15.152344 16.355469 Z M 15.152344 16.355469 " fill-opacity="1" fill-rule="nonzero"/><path fill="currentColor" d="M 15.152344 24.339844 C 14.886719 24.339844 14.632812 24.289062 14.386719 24.1875 C 14.144531 24.085938 13.925781 23.941406 13.738281 23.753906 C 13.550781 23.566406 13.410156 23.351562 13.308594 23.105469 C 13.207031 22.859375 13.15625 22.605469 13.15625 22.34375 C 13.15625 22.078125 13.207031 21.824219 13.308594 21.578125 C 13.410156 21.332031 13.550781 21.117188 13.738281 20.929688 C 13.925781 20.742188 14.144531 20.597656 14.386719 20.496094 C 14.632812 20.398438 14.886719 20.347656 15.152344 20.347656 C 15.414062 20.347656 15.671875 20.398438 15.914062 20.496094 C 16.160156 20.597656 16.375 20.742188 16.5625 20.929688 C 16.75 21.117188 16.894531 21.332031 16.996094 21.578125 C 17.097656 21.824219 17.148438 22.078125 17.148438 22.34375 C 17.148438 22.605469 17.097656 22.859375 16.996094 23.105469 C 16.894531 23.351562 16.75 23.566406 16.5625 23.753906 C 16.375 23.941406 16.160156 24.085938 15.914062 24.1875 C 15.671875 24.289062 15.414062 24.339844 15.152344 24.339844 Z M 15.152344 24.339844 " fill-opacity="1" fill-rule="nonzero"/></svg>