<svg xmlns="http://www.w3.org/2000/svg" xmlns:xlink="http://www.w3.org/1999/xlink" width="40" zoomAndPan="magnify" viewBox="0 0 30 30.000001" height="40" preserveAspectRatio="xMidYMid meet" version="1.0"><defs><clipPath id="0f34c359ac"><path d="M 1.882812 0 L 28.011719 0 L 28.011719 27 L 1.882812 27 Z M 1.882812 0 " clip-rule="nonzero"/></clipPath><clipPath id="c71121c1a1"><path d="M 2 18 L 28 18 L 28 29.03125 L 2 29.03125 Z M 2 18 " clip-rule="nonzero"/></clipPath></defs><g clip-path="url(#0f34c359ac)"><path fill="#ffffff" d="M 28.015625 13.125 C 28.015625 20.371094 22.164062 26.242188 14.949219 26.242188 C 7.734375 26.242188 1.882812 20.371094 1.882812 13.125 C 1.882812 5.882812 7.734375 0.0078125 14.949219 0.0078125 C 22.164062 0.0078125 28.015625 5.882812 28.015625 13.125 " fill-opacity="1" fill-rule="nonzero"/></g><path fill="#c3633a" d="M 17.1875 17.710938 C 17.363281 17.023438 16.820312 16.121094 16.820312 16.121094 C 17.015625 15.089844 16.53125 14.542969 16.53125 14.542969 L 13.855469 14.542969 C 13.855469 14.542969 13.300781 15.089844 13.496094 16.121094 C 13.496094 16.121094 12.953125 17.023438 13.125 17.710938 C 13.125 17.710938 11.628906 18.714844 12.546875 20.679688 C 12.675781 20.957031 13.070312 21.367188 13.609375 21.367188 C 14.453125 21.367188 14.84375 21.253906 15.15625 21.078125 C 15.554688 21.253906 15.863281 21.367188 16.703125 21.367188 C 17.246094 21.367188 17.640625 20.957031 17.769531 20.679688 C 18.6875 18.714844 17.1875 17.710938 17.1875 17.710938 " fill-opacity="1" fill-rule="nonzero"/><path fill="#d77445" d="M 17.707031 15.097656 C 17.667969 14.722656 17.285156 12.945312 16.894531 12.628906 C 16.539062 12.339844 16.070312 12.203125 15.777344 12.113281 C 15.953125 12.222656 16.101562 12.375 16.152344 12.578125 C 16.289062 13.136719 16.238281 13.148438 16.539062 13.558594 C 16.582031 13.617188 16.609375 13.765625 16.597656 13.941406 C 16.644531 14.054688 16.871094 14.480469 17.039062 15.390625 C 17.109375 15.769531 17.792969 15.980469 17.792969 15.980469 C 17.792969 15.980469 17.746094 15.472656 17.707031 15.097656 " fill-opacity="1" fill-rule="nonzero"/><path fill="#f9a995" d="M 17.039062 15.390625 C 17.109375 15.769531 17.792969 15.980469 17.792969 15.980469 C 17.664062 15.726562 17.007812 13.765625 16.878906 13.316406 C 16.785156 13 16.402344 12.789062 16.179688 12.691406 C 16.28125 13.140625 16.261719 13.179688 16.539062 13.558594 C 16.582031 13.617188 16.609375 13.765625 16.597656 13.941406 C 16.644531 14.054688 16.871094 14.480469 17.039062 15.390625 " fill-opacity="1" fill-rule="nonzero"/><path fill="#d77445" d="M 12.652344 15.097656 C 12.691406 14.722656 13.078125 12.945312 13.46875 12.628906 C 13.824219 12.339844 14.292969 12.203125 14.582031 12.113281 C 14.410156 12.222656 14.257812 12.375 14.210938 12.578125 C 14.074219 13.136719 14.121094 13.148438 13.820312 13.558594 C 13.777344 13.617188 13.753906 13.765625 13.761719 13.941406 C 13.714844 14.054688 13.488281 14.480469 13.324219 15.390625 C 13.253906 15.769531 12.566406 15.980469 12.566406 15.980469 C 12.566406 15.980469 12.617188 15.472656 12.652344 15.097656 " fill-opacity="1" fill-rule="nonzero"/><path fill="#f9a995" d="M 13.324219 15.390625 C 13.253906 15.769531 12.566406 15.980469 12.566406 15.980469 C 12.699219 15.726562 13.351562 13.765625 13.484375 13.316406 C 13.574219 13 13.960938 12.789062 14.183594 12.691406 C 14.078125 13.140625 14.101562 13.179688 13.820312 13.558594 C 13.777344 13.617188 13.753906 13.765625 13.761719 13.941406 C 13.714844 14.054688 13.488281 14.480469 13.324219 15.390625 " fill-opacity="1" fill-rule="nonzero"/><path fill="#d77445" d="M 16.625 13.617188 C 16.324219 13.1875 16.375 13.179688 16.238281 12.597656 C 16.109375 12.046875 15.296875 11.867188 15.203125 11.867188 C 14.882812 11.871094 14.28125 12.046875 14.15625 12.597656 C 14.019531 13.179688 14.066406 13.238281 13.765625 13.617188 C 13.605469 13.820312 13.679688 15.203125 14.753906 14.960938 C 14.871094 14.933594 15.078125 14.765625 15.203125 14.765625 C 15.40625 14.765625 15.523438 14.933594 15.636719 14.960938 C 16.714844 15.203125 16.777344 13.832031 16.625 13.617188 " fill-opacity="1" fill-rule="nonzero"/><path fill="#4b1615" d="M 16.425781 13.050781 C 16.464844 13.207031 16.402344 13.351562 16.378906 13.359375 C 16.328125 13.371094 16.148438 13.363281 16.105469 13.128906 C 16.070312 12.921875 16.207031 12.8125 16.238281 12.800781 C 16.285156 12.789062 16.390625 12.898438 16.425781 13.050781 " fill-opacity="1" fill-rule="nonzero"/><path fill="#4b1615" d="M 13.921875 13.050781 C 13.882812 13.207031 13.945312 13.351562 13.972656 13.359375 C 14.019531 13.371094 14.203125 13.363281 14.242188 13.128906 C 14.28125 12.921875 14.144531 12.8125 14.109375 12.800781 C 14.0625 12.789062 13.960938 12.898438 13.921875 13.050781 " fill-opacity="1" fill-rule="nonzero"/><path fill="#ffffff" d="M 15.46875 13.792969 L 15.355469 11.894531 C 15.285156 11.875 15.230469 11.867188 15.210938 11.867188 C 15.164062 11.867188 15.113281 11.871094 15.058594 11.878906 L 14.9375 13.796875 C 14.613281 13.863281 14.316406 14.042969 14.316406 14.285156 C 14.316406 14.429688 14.515625 14.734375 14.636719 14.832031 C 14.703125 14.863281 14.785156 14.914062 14.863281 14.894531 C 15.003906 14.863281 15.109375 14.742188 15.199219 14.742188 C 15.347656 14.742188 15.445312 14.890625 15.550781 14.914062 C 15.625 14.929688 15.683594 14.890625 15.742188 14.851562 C 15.871094 14.769531 16.089844 14.371094 16.089844 14.226562 C 16.089844 13.984375 15.792969 13.839844 15.46875 13.792969 " fill-opacity="1" fill-rule="nonzero"/><path fill="#f9a995" d="M 14.992188 14.800781 C 15 14.90625 15.089844 14.988281 15.199219 14.988281 C 15.308594 14.988281 15.394531 14.90625 15.40625 14.800781 C 15.40625 14.800781 15.257812 14.726562 15.203125 14.726562 C 15.148438 14.726562 14.992188 14.800781 14.992188 14.800781 " fill-opacity="1" fill-rule="nonzero"/><path fill="#4b1615" d="M 15.835938 14.703125 C 15.824219 14.695312 15.804688 14.703125 15.800781 14.714844 C 15.75 14.800781 15.699219 14.851562 15.640625 14.863281 C 15.554688 14.886719 15.464844 14.820312 15.40625 14.777344 C 15.386719 14.765625 15.371094 14.75 15.359375 14.746094 C 15.304688 14.71875 15.261719 14.710938 15.230469 14.710938 L 15.230469 14.144531 C 15.324219 14.132812 15.417969 14.058594 15.464844 13.957031 C 15.46875 13.941406 15.460938 13.925781 15.449219 13.917969 C 15.433594 13.914062 15.417969 13.917969 15.410156 13.933594 C 15.371094 14.023438 15.285156 14.089844 15.207031 14.089844 C 15.136719 14.085938 15.023438 14.015625 14.976562 13.929688 C 14.96875 13.917969 14.953125 13.910156 14.9375 13.917969 C 14.925781 13.925781 14.917969 13.945312 14.925781 13.957031 C 14.972656 14.046875 15.082031 14.125 15.175781 14.144531 L 15.175781 14.710938 C 15.144531 14.710938 15.101562 14.71875 15.050781 14.746094 C 15.035156 14.75 15.019531 14.765625 15 14.777344 C 14.941406 14.820312 14.851562 14.882812 14.769531 14.863281 C 14.710938 14.851562 14.65625 14.800781 14.609375 14.714844 C 14.601562 14.703125 14.582031 14.695312 14.570312 14.703125 C 14.554688 14.710938 14.550781 14.730469 14.558594 14.742188 C 14.613281 14.84375 14.679688 14.902344 14.753906 14.921875 C 14.769531 14.921875 14.785156 14.925781 14.800781 14.925781 C 14.894531 14.925781 14.976562 14.867188 15.03125 14.824219 C 15.050781 14.8125 15.066406 14.800781 15.074219 14.792969 C 15.144531 14.757812 15.195312 14.769531 15.199219 14.769531 L 15.210938 14.769531 C 15.210938 14.769531 15.261719 14.757812 15.332031 14.792969 C 15.34375 14.800781 15.355469 14.8125 15.375 14.824219 C 15.433594 14.867188 15.515625 14.925781 15.605469 14.925781 C 15.621094 14.925781 15.636719 14.921875 15.652344 14.921875 C 15.726562 14.902344 15.792969 14.84375 15.847656 14.742188 C 15.855469 14.730469 15.851562 14.710938 15.835938 14.703125 " fill-opacity="1" fill-rule="nonzero"/><path fill="#e4d8c2" d="M 13.609375 21.367188 C 14.453125 21.367188 14.84375 21.253906 15.15625 21.078125 C 15.554688 21.253906 15.863281 21.367188 16.703125 21.367188 C 16.871094 21.367188 17.023438 21.328125 17.160156 21.265625 C 17.152344 21.195312 17.144531 21.117188 17.128906 21.039062 C 16.820312 19.171875 16.144531 16.292969 15.105469 16.292969 C 14.253906 16.292969 13.351562 19.269531 13.121094 21.136719 C 13.117188 21.171875 13.113281 21.207031 13.109375 21.246094 C 13.253906 21.320312 13.425781 21.367188 13.609375 21.367188 " fill-opacity="1" fill-rule="nonzero"/><path fill="#d0baa7" d="M 17.171875 21.589844 C 17.363281 21.589844 17.449219 21.449219 17.363281 21.277344 C 17.363281 21.277344 17.234375 20.796875 16.675781 20.796875 C 16.128906 20.796875 15.992188 21.277344 15.992188 21.277344 C 15.90625 21.449219 15.992188 21.589844 16.183594 21.589844 L 17.171875 21.589844 " fill-opacity="1" fill-rule="nonzero"/><path fill="#b8a27c" d="M 16.488281 20.835938 C 16.464844 20.90625 16.445312 20.96875 16.429688 21.035156 C 16.414062 21.09375 16.40625 21.15625 16.402344 21.214844 C 16.402344 21.269531 16.410156 21.328125 16.425781 21.386719 C 16.441406 21.449219 16.46875 21.507812 16.496094 21.578125 C 16.433594 21.554688 16.382812 21.507812 16.339844 21.441406 C 16.300781 21.378906 16.28125 21.292969 16.28125 21.210938 C 16.285156 21.125 16.308594 21.046875 16.34375 20.984375 C 16.378906 20.917969 16.425781 20.867188 16.488281 20.835938 " fill-opacity="1" fill-rule="nonzero"/><path fill="#b8a27c" d="M 16.886719 20.835938 C 16.910156 20.90625 16.929688 20.96875 16.945312 21.035156 C 16.960938 21.09375 16.96875 21.15625 16.96875 21.214844 C 16.972656 21.269531 16.964844 21.328125 16.949219 21.386719 C 16.933594 21.449219 16.90625 21.507812 16.878906 21.578125 C 16.941406 21.554688 16.992188 21.507812 17.03125 21.441406 C 17.070312 21.378906 17.09375 21.292969 17.09375 21.210938 C 17.089844 21.125 17.066406 21.046875 17.03125 20.984375 C 16.992188 20.917969 16.945312 20.867188 16.886719 20.835938 " fill-opacity="1" fill-rule="nonzero"/><path fill="#d0baa7" d="M 14.089844 21.589844 C 14.28125 21.589844 14.367188 21.449219 14.28125 21.277344 C 14.28125 21.277344 14.152344 20.796875 13.597656 20.796875 C 13.046875 20.796875 12.910156 21.277344 12.910156 21.277344 C 12.828125 21.449219 12.914062 21.589844 13.101562 21.589844 L 14.089844 21.589844 " fill-opacity="1" fill-rule="nonzero"/><path fill="#b8a27c" d="M 13.40625 20.835938 C 13.382812 20.90625 13.363281 20.96875 13.347656 21.035156 C 13.332031 21.09375 13.324219 21.15625 13.324219 21.214844 C 13.320312 21.269531 13.328125 21.328125 13.34375 21.386719 C 13.359375 21.449219 13.386719 21.507812 13.414062 21.578125 C 13.355469 21.554688 13.300781 21.507812 13.261719 21.441406 C 13.222656 21.378906 13.199219 21.292969 13.203125 21.210938 C 13.203125 21.125 13.226562 21.046875 13.261719 20.984375 C 13.300781 20.917969 13.347656 20.867188 13.40625 20.835938 " fill-opacity="1" fill-rule="nonzero"/><path fill="#b8a27c" d="M 13.804688 20.835938 C 13.828125 20.90625 13.847656 20.96875 13.863281 21.035156 C 13.878906 21.09375 13.886719 21.15625 13.890625 21.214844 C 13.890625 21.269531 13.882812 21.328125 13.867188 21.386719 C 13.851562 21.449219 13.824219 21.507812 13.796875 21.578125 C 13.859375 21.554688 13.914062 21.507812 13.953125 21.441406 C 13.992188 21.378906 14.015625 21.292969 14.011719 21.210938 C 14.011719 21.125 13.984375 21.046875 13.949219 20.984375 C 13.914062 20.917969 13.867188 20.867188 13.804688 20.835938 " fill-opacity="1" fill-rule="nonzero"/><path fill="#d77445" d="M 16.8125 15.203125 C 16.8125 15.203125 16.09375 15.960938 15.84375 16.503906 C 15.589844 17.050781 15.203125 18.21875 15.453125 18.742188 C 15.453125 18.742188 15.6875 18.859375 15.84375 18.449219 C 15.996094 18.042969 16.425781 17.121094 16.640625 17.019531 C 17.316406 16.710938 17.410156 15.902344 16.8125 15.203125 " fill-opacity="1" fill-rule="nonzero"/><path fill="#d77445" d="M 13.53125 15.203125 C 13.53125 15.203125 14.25 15.960938 14.503906 16.503906 C 14.753906 17.050781 15.140625 18.21875 14.890625 18.742188 C 14.890625 18.742188 14.65625 18.859375 14.503906 18.449219 C 14.347656 18.042969 13.917969 17.121094 13.707031 17.019531 C 13.03125 16.710938 12.933594 15.902344 13.53125 15.203125 " fill-opacity="1" fill-rule="nonzero"/><path fill="#2f9297" d="M 3.988281 23.4375 C 3.988281 23.4375 4.496094 24.714844 6.496094 25.480469 C 8.496094 26.246094 12.3125 28.582031 14.3125 28 C 14.3125 28 9.621094 22.488281 3.988281 23.4375 " fill-opacity="1" fill-rule="nonzero"/><path fill="#2f9297" d="M 14.75 27.632812 C 14.75 27.632812 18.203125 28.617188 20.785156 27.230469 C 23.367188 25.84375 25.882812 24.085938 25.882812 24.085938 C 25.882812 24.085938 19.585938 24.019531 14.75 27.632812 " fill-opacity="1" fill-rule="nonzero"/><g clip-path="url(#c71121c1a1)"><path fill="#61cac2" d="M 27.242188 23.796875 C 26.980469 23.445312 26.347656 23.324219 26.015625 23.285156 C 24.597656 22.128906 21.816406 19.902344 20.546875 19.238281 C 19.230469 18.550781 14.964844 18.214844 14.964844 18.214844 C 14.964844 18.214844 10.449219 18.632812 9.082031 19.375 C 7.945312 19.988281 5.402344 22.128906 4.269531 23.101562 C 4.058594 22.996094 3.511719 22.78125 2.976562 23.125 C 2.292969 23.558594 2.46875 24.355469 2.46875 24.355469 C 2.46875 24.355469 2.507812 23.953125 2.898438 23.972656 C 3.191406 23.988281 4 24.066406 4.289062 23.703125 C 5.460938 23.933594 8.566406 25.371094 9.621094 25.371094 C 12.3125 25.371094 13.257812 27.390625 14 27.894531 C 14.0625 28.128906 14.265625 28.390625 14.746094 28.621094 C 15.1875 28.832031 15.335938 29.027344 15.335938 29.027344 C 15.335938 29.027344 15.664062 28.667969 15.429688 28.09375 C 15.347656 27.890625 15.160156 27.71875 14.957031 27.582031 C 16.113281 26.960938 18.53125 25.113281 20.929688 25.445312 C 22.695312 25.683594 24.300781 24.238281 25.882812 24.085938 C 26.019531 24.257812 26.269531 24.410156 26.710938 24.488281 C 27.1875 24.574219 27.378906 24.722656 27.378906 24.722656 C 27.378906 24.722656 27.609375 24.285156 27.242188 23.796875 " fill-opacity="1" fill-rule="nonzero"/></g><path fill="#f57b2c" d="M 5.753906 19.9375 C 5.796875 20.203125 5.855469 20.601562 5.855469 20.601562 C 6.019531 21.367188 7.027344 21.894531 7.355469 21.609375 C 8.804688 20.335938 10.390625 21.460938 10.855469 20.125 C 11.011719 19.675781 10.351562 19.25 9.210938 19.238281 C 8.480469 19.230469 6.84375 20.140625 6.84375 20.140625 C 6.734375 19.417969 5.644531 19.210938 5.753906 19.9375 " fill-opacity="1" fill-rule="nonzero"/><path fill="#401e08" d="M 5.902344 19.542969 C 5.949219 19.527344 5.996094 19.53125 6.042969 19.542969 C 6.085938 19.554688 6.128906 19.578125 6.167969 19.609375 C 6.238281 19.675781 6.277344 19.78125 6.246094 19.875 C 6.214844 19.839844 6.1875 19.804688 6.164062 19.777344 C 6.136719 19.75 6.113281 19.726562 6.085938 19.699219 C 6.058594 19.675781 6.03125 19.652344 6 19.625 C 5.96875 19.601562 5.9375 19.574219 5.902344 19.542969 " fill-opacity="1" fill-rule="nonzero"/><path fill="#401e08" d="M 5.757812 19.832031 C 5.800781 19.804688 5.851562 19.800781 5.898438 19.804688 C 5.945312 19.808594 5.992188 19.828125 6.03125 19.855469 C 6.113281 19.914062 6.160156 20.019531 6.132812 20.113281 C 6.097656 20.078125 6.070312 20.046875 6.042969 20.023438 C 6.015625 19.996094 5.988281 19.976562 5.960938 19.953125 C 5.933594 19.933594 5.902344 19.914062 5.871094 19.894531 L 5.757812 19.832031 " fill-opacity="1" fill-rule="nonzero"/><path fill="#f57b2c" d="M 12.035156 19.441406 C 12.089844 19.703125 12.175781 20.101562 12.175781 20.101562 C 12.320312 20.632812 12.636719 20.605469 12.960938 20.578125 C 13.09375 20.566406 13.230469 20.554688 13.355469 20.585938 C 13.890625 20.714844 14.136719 20.871094 14.535156 20.851562 C 14.785156 20.839844 14.867188 20.523438 15.015625 20.550781 C 17.59375 21.007812 17.890625 19.339844 17.738281 18.769531 C 17.59375 18.230469 17.160156 17.539062 16.378906 17.539062 C 15.519531 17.535156 14.832031 17.992188 14.652344 18.765625 C 14.351562 20.082031 13.132812 19.582031 13.132812 19.582031 C 12.984375 18.867188 11.882812 18.722656 12.035156 19.441406 " fill-opacity="1" fill-rule="nonzero"/><path fill="#401e08" d="M 12.175781 19.066406 C 12.222656 19.042969 12.269531 19.046875 12.316406 19.054688 C 12.363281 19.0625 12.40625 19.085938 12.445312 19.117188 C 12.519531 19.175781 12.566406 19.28125 12.539062 19.375 C 12.503906 19.339844 12.476562 19.3125 12.449219 19.285156 C 12.421875 19.257812 12.394531 19.234375 12.367188 19.210938 C 12.339844 19.1875 12.308594 19.164062 12.277344 19.140625 C 12.246094 19.117188 12.214844 19.09375 12.175781 19.066406 " fill-opacity="1" fill-rule="nonzero"/><path fill="#401e08" d="M 12.050781 19.359375 C 12.089844 19.332031 12.140625 19.324219 12.1875 19.324219 C 12.234375 19.328125 12.28125 19.34375 12.324219 19.367188 C 12.40625 19.421875 12.460938 19.523438 12.4375 19.617188 C 12.402344 19.585938 12.375 19.558594 12.34375 19.535156 C 12.3125 19.511719 12.285156 19.492188 12.257812 19.472656 C 12.230469 19.453125 12.199219 19.433594 12.164062 19.417969 L 12.050781 19.359375 " fill-opacity="1" fill-rule="nonzero"/><path fill="#f7982a" d="M 17.710938 19.144531 C 17.792969 18.386719 17.179688 16.5 15.464844 16.597656 C 14.679688 16.644531 14.289062 16.976562 13.296875 17.21875 C 12.046875 17.523438 11.542969 16.878906 11.542969 16.878906 L 8.609375 17.285156 C 8.125 19.191406 9.023438 21.433594 12.703125 21.835938 C 14.941406 22.082031 17.453125 21.515625 17.710938 19.144531 " fill-opacity="1" fill-rule="nonzero"/><path fill="#f7982a" d="M 6.492188 20.503906 C 6.539062 20.765625 6.609375 21.164062 6.609375 21.164062 C 6.792969 21.925781 7.8125 22.433594 8.132812 22.136719 C 9.550781 20.832031 11.164062 21.917969 11.597656 20.574219 C 11.742188 20.117188 11.070312 19.710938 9.933594 19.726562 C 9.203125 19.734375 7.585938 20.679688 7.585938 20.679688 C 7.460938 19.960938 6.367188 19.78125 6.492188 20.503906 " fill-opacity="1" fill-rule="nonzero"/><path fill="#401e08" d="M 6.628906 20.105469 C 6.675781 20.089844 6.726562 20.089844 6.773438 20.101562 C 6.816406 20.113281 6.859375 20.136719 6.898438 20.167969 C 6.972656 20.230469 7.015625 20.335938 6.984375 20.429688 C 6.949219 20.394531 6.921875 20.363281 6.898438 20.335938 C 6.871094 20.308594 6.84375 20.285156 6.820312 20.257812 C 6.789062 20.234375 6.761719 20.214844 6.730469 20.1875 C 6.699219 20.164062 6.667969 20.140625 6.628906 20.105469 " fill-opacity="1" fill-rule="nonzero"/><path fill="#401e08" d="M 6.496094 20.398438 C 6.539062 20.371094 6.585938 20.363281 6.632812 20.367188 C 6.679688 20.371094 6.726562 20.390625 6.769531 20.417969 C 6.851562 20.472656 6.898438 20.574219 6.875 20.671875 C 6.839844 20.636719 6.8125 20.609375 6.785156 20.582031 C 6.753906 20.558594 6.726562 20.535156 6.699219 20.515625 C 6.671875 20.496094 6.640625 20.480469 6.605469 20.460938 L 6.496094 20.398438 " fill-opacity="1" fill-rule="nonzero"/><path fill="#f8a535" d="M 12.40625 20.964844 C 12.507812 21.21875 12.667969 21.597656 12.667969 21.597656 C 12.914062 22.101562 13.226562 22.011719 13.546875 21.925781 C 13.679688 21.890625 13.8125 21.851562 13.941406 21.859375 C 14.5 21.886719 14.773438 22 15.171875 21.902344 C 15.417969 21.84375 15.441406 21.511719 15.597656 21.507812 C 18.261719 21.480469 18.242188 19.753906 17.984375 19.210938 C 17.738281 18.703125 17.175781 18.09375 16.390625 18.238281 C 15.535156 18.402344 14.929688 18.988281 14.898438 19.792969 C 14.84375 21.167969 13.53125 20.894531 13.53125 20.894531 C 13.246094 20.210938 12.117188 20.273438 12.40625 20.964844 " fill-opacity="1" fill-rule="nonzero"/><path fill="#401e08" d="M 12.472656 20.5625 C 12.515625 20.535156 12.5625 20.523438 12.613281 20.523438 C 12.660156 20.527344 12.710938 20.539062 12.753906 20.5625 C 12.839844 20.609375 12.90625 20.703125 12.898438 20.804688 C 12.855469 20.777344 12.824219 20.75 12.789062 20.726562 C 12.757812 20.707031 12.726562 20.6875 12.695312 20.671875 C 12.664062 20.652344 12.628906 20.636719 12.59375 20.621094 C 12.554688 20.601562 12.519531 20.585938 12.472656 20.5625 " fill-opacity="1" fill-rule="nonzero"/><path fill="#401e08" d="M 12.40625 20.878906 C 12.441406 20.84375 12.488281 20.828125 12.535156 20.820312 C 12.582031 20.8125 12.632812 20.820312 12.679688 20.839844 C 12.773438 20.875 12.84375 20.964844 12.839844 21.066406 C 12.796875 21.042969 12.765625 21.019531 12.730469 21 C 12.699219 20.980469 12.667969 20.964844 12.632812 20.953125 C 12.601562 20.941406 12.566406 20.929688 12.53125 20.917969 L 12.40625 20.878906 " fill-opacity="1" fill-rule="nonzero"/><path fill="#f89e2a" d="M 10.785156 16.996094 C 10.785156 16.996094 10.949219 15.644531 10.304688 15.292969 C 10.304688 15.292969 9.363281 15.570312 9.171875 16.335938 C 9.171875 16.335938 9.800781 17.015625 10.785156 16.996094 " fill-opacity="1" fill-rule="nonzero"/><path fill="#fbc45a" d="M 10.433594 16.691406 C 10.125 16.496094 9.785156 16.375 9.449219 16.328125 C 9.636719 15.945312 10.117188 15.804688 10.117188 15.804688 C 10.40625 15.960938 10.441406 16.425781 10.433594 16.691406 " fill-opacity="1" fill-rule="nonzero"/><path fill="#f89e2a" d="M 6.964844 18.242188 C 6.964844 18.242188 6.042969 17.246094 6.359375 16.582031 C 6.359375 16.582031 7.28125 16.246094 7.886719 16.753906 C 7.886719 16.753906 7.773438 17.675781 6.964844 18.242188 " fill-opacity="1" fill-rule="nonzero"/><path fill="#fbc45a" d="M 7.097656 17.828125 C 6.941406 17.625 6.660156 17.199219 6.808594 16.886719 C 6.808594 16.886719 7 16.816406 7.234375 16.816406 C 7.375 16.816406 7.53125 16.839844 7.671875 16.921875 C 7.429688 17.164062 7.234375 17.472656 7.097656 17.828125 " fill-opacity="1" fill-rule="nonzero"/><path fill="#f89e2a" d="M 11.339844 17.671875 C 11.894531 18.675781 10.832031 19.488281 9.609375 19.886719 C 8.390625 20.285156 6.996094 20.257812 6.914062 19.113281 C 6.824219 17.808594 7.546875 16.710938 8.484375 16.40625 C 9.421875 16.101562 10.683594 16.484375 11.339844 17.671875 " fill-opacity="1" fill-rule="nonzero"/><path fill="#f9ab58" d="M 8.289062 20.121094 C 8.039062 20.121094 7.804688 20.085938 7.601562 20.015625 C 7.804688 20.085938 8.039062 20.121094 8.289062 20.121094 C 8.433594 20.121094 8.585938 20.109375 8.742188 20.089844 C 8.585938 20.109375 8.433594 20.121094 8.289062 20.121094 " fill-opacity="1" fill-rule="nonzero"/><path fill="#fbc059" d="M 8.742188 20.089844 C 8.859375 20.074219 8.980469 20.050781 9.101562 20.027344 C 8.980469 20.050781 8.859375 20.074219 8.742188 20.089844 " fill-opacity="1" fill-rule="nonzero"/><path fill="#fbc45a" d="M 8.289062 20.121094 C 8.039062 20.121094 7.804688 20.085938 7.601562 20.015625 C 7.570312 19.960938 7.542969 19.90625 7.523438 19.847656 C 7.316406 19.203125 7.984375 18.40625 9.015625 18.066406 C 9.328125 17.964844 9.636719 17.917969 9.921875 17.917969 C 10.582031 17.917969 11.117188 18.175781 11.265625 18.628906 C 11.265625 18.636719 11.269531 18.644531 11.273438 18.652344 C 10.757812 18.734375 10.230469 18.949219 9.699219 19.355469 C 9.671875 19.378906 9.640625 19.402344 9.609375 19.429688 C 9.578125 19.421875 9.515625 19.402344 9.464844 19.355469 C 9.386719 19.289062 9.328125 19.15625 9.328125 19.15625 C 9.328125 19.15625 9.355469 19.285156 9.34375 19.390625 C 9.324219 19.511719 9.253906 19.554688 9.253906 19.554688 L 9.285156 19.648438 C 9.292969 19.675781 9.304688 19.695312 9.324219 19.714844 C 9.238281 19.8125 9.167969 19.917969 9.101562 20.027344 C 8.980469 20.050781 8.859375 20.074219 8.742188 20.089844 C 8.585938 20.109375 8.433594 20.121094 8.289062 20.121094 " fill-opacity="1" fill-rule="nonzero"/><path fill="#401e08" d="M 10.226562 17.214844 C 10.277344 17.265625 10.316406 17.332031 10.328125 17.410156 C 10.332031 17.449219 10.332031 17.492188 10.316406 17.535156 C 10.300781 17.578125 10.257812 17.625 10.203125 17.640625 C 10.089844 17.664062 10.019531 17.597656 9.96875 17.542969 C 9.921875 17.484375 9.890625 17.414062 9.886719 17.34375 C 9.941406 17.390625 9.988281 17.433594 10.039062 17.46875 C 10.089844 17.5 10.148438 17.523438 10.167969 17.511719 C 10.191406 17.511719 10.214844 17.472656 10.222656 17.410156 C 10.234375 17.351562 10.230469 17.289062 10.226562 17.214844 " fill-opacity="1" fill-rule="nonzero"/><path fill="#401e08" d="M 7.773438 18.144531 C 7.828125 18.195312 7.863281 18.261719 7.875 18.339844 C 7.882812 18.375 7.878906 18.417969 7.867188 18.464844 C 7.851562 18.507812 7.808594 18.554688 7.753906 18.570312 C 7.640625 18.589844 7.570312 18.527344 7.519531 18.472656 C 7.46875 18.414062 7.441406 18.34375 7.4375 18.273438 C 7.492188 18.320312 7.539062 18.363281 7.589844 18.398438 C 7.636719 18.429688 7.695312 18.449219 7.71875 18.441406 C 7.742188 18.441406 7.765625 18.402344 7.773438 18.339844 C 7.78125 18.28125 7.777344 18.21875 7.773438 18.144531 " fill-opacity="1" fill-rule="nonzero"/><path fill="#f46a7f" d="M 9.253906 19.554688 L 9.285156 19.648438 C 9.320312 19.753906 9.433594 19.808594 9.539062 19.773438 C 9.640625 19.738281 9.699219 19.625 9.660156 19.519531 L 9.632812 19.433594 C 9.632812 19.433594 9.535156 19.421875 9.464844 19.355469 C 9.386719 19.289062 9.328125 19.15625 9.328125 19.15625 C 9.328125 19.15625 9.355469 19.285156 9.34375 19.390625 C 9.324219 19.511719 9.253906 19.554688 9.253906 19.554688 " fill-opacity="1" fill-rule="nonzero"/><path fill="#f89ca8" d="M 9.449219 19.578125 C 9.4375 19.546875 9.429688 19.515625 9.421875 19.484375 C 9.414062 19.453125 9.40625 19.421875 9.40625 19.390625 C 9.421875 19.417969 9.4375 19.445312 9.449219 19.476562 C 9.460938 19.5 9.46875 19.523438 9.480469 19.546875 C 9.46875 19.558594 9.460938 19.566406 9.449219 19.578125 " fill-opacity="1" fill-rule="nonzero"/><path fill="#401e08" d="M 9.601562 19.433594 C 9.53125 19.441406 9.464844 19.417969 9.410156 19.367188 C 9.335938 19.300781 9.304688 19.210938 9.292969 19.183594 L 9.097656 18.609375 L 9.175781 18.582031 L 9.371094 19.15625 C 9.375 19.179688 9.40625 19.253906 9.464844 19.304688 C 9.515625 19.351562 9.574219 19.367188 9.640625 19.34375 C 9.777344 19.296875 9.800781 19.195312 9.773438 19.113281 L 9.726562 18.96875 C 9.71875 18.949219 9.726562 18.925781 9.75 18.917969 C 9.773438 18.910156 9.792969 18.921875 9.800781 18.941406 L 9.851562 19.089844 C 9.890625 19.207031 9.847656 19.355469 9.664062 19.421875 C 9.644531 19.425781 9.621094 19.433594 9.601562 19.433594 " fill-opacity="1" fill-rule="nonzero"/><path fill="#401e08" d="M 9.136719 19.589844 C 9.070312 19.597656 9.019531 19.582031 8.984375 19.5625 C 8.914062 19.523438 8.882812 19.457031 8.871094 19.421875 L 8.824219 19.277344 C 8.816406 19.257812 8.828125 19.234375 8.847656 19.226562 C 8.867188 19.21875 8.890625 19.230469 8.898438 19.25 L 8.949219 19.398438 C 8.960938 19.4375 8.992188 19.472656 9.023438 19.492188 C 9.070312 19.515625 9.128906 19.519531 9.195312 19.496094 C 9.261719 19.472656 9.296875 19.429688 9.3125 19.359375 C 9.324219 19.28125 9.300781 19.203125 9.296875 19.183594 L 9.101562 18.605469 L 9.175781 18.582031 L 9.371094 19.15625 C 9.382812 19.183594 9.40625 19.277344 9.390625 19.371094 C 9.371094 19.472656 9.3125 19.539062 9.222656 19.570312 C 9.191406 19.582031 9.160156 19.589844 9.136719 19.589844 " fill-opacity="1" fill-rule="nonzero"/><path fill="#401e08" d="M 9.6875 18.425781 C 9.75 18.621094 9.5625 18.859375 9.261719 18.960938 C 8.960938 19.0625 8.667969 18.992188 8.601562 18.796875 C 8.535156 18.605469 8.722656 18.367188 9.023438 18.261719 C 9.324219 18.160156 9.621094 18.234375 9.6875 18.425781 " fill-opacity="1" fill-rule="nonzero"/><path fill="#401e08" d="M 9.765625 18.203125 C 9.753906 18.207031 9.742188 18.203125 9.730469 18.191406 C 9.714844 18.175781 9.714844 18.152344 9.734375 18.136719 C 9.742188 18.125 10.746094 17.160156 11.835938 17.0625 C 11.859375 17.058594 11.878906 17.078125 11.882812 17.097656 C 11.882812 17.121094 11.867188 17.140625 11.84375 17.140625 C 11.835938 17.144531 11.828125 17.144531 11.820312 17.144531 C 10.769531 17.25 9.796875 18.183594 9.789062 18.195312 C 9.78125 18.199219 9.773438 18.203125 9.765625 18.203125 " fill-opacity="1" fill-rule="nonzero"/><path fill="#401e08" d="M 9.863281 18.300781 C 9.851562 18.300781 9.835938 18.296875 9.828125 18.285156 C 9.816406 18.265625 9.820312 18.242188 9.835938 18.226562 C 9.847656 18.21875 11.058594 17.359375 12.179688 17.300781 C 12.203125 17.300781 12.21875 17.316406 12.222656 17.339844 C 12.222656 17.363281 12.203125 17.382812 12.183594 17.382812 C 11.085938 17.4375 9.894531 18.285156 9.882812 18.292969 L 9.863281 18.300781 " fill-opacity="1" fill-rule="nonzero"/><path fill="#401e08" d="M 9.917969 18.433594 C 9.902344 18.433594 9.886719 18.429688 9.878906 18.414062 C 9.867188 18.394531 9.871094 18.371094 9.890625 18.359375 C 9.898438 18.351562 10.882812 17.726562 12.101562 17.675781 C 12.125 17.675781 12.144531 17.695312 12.144531 17.714844 C 12.144531 17.738281 12.128906 17.757812 12.105469 17.757812 C 10.910156 17.808594 9.941406 18.421875 9.933594 18.425781 L 9.917969 18.433594 " fill-opacity="1" fill-rule="nonzero"/><path fill="#401e08" d="M 9.949219 18.566406 C 9.933594 18.566406 9.917969 18.558594 9.910156 18.539062 C 9.898438 18.519531 9.910156 18.496094 9.929688 18.488281 C 9.941406 18.484375 10.902344 18.078125 11.769531 18.078125 C 11.792969 18.078125 11.8125 18.097656 11.8125 18.121094 C 11.8125 18.140625 11.792969 18.160156 11.773438 18.160156 C 10.917969 18.160156 9.972656 18.558594 9.960938 18.5625 L 9.949219 18.566406 " fill-opacity="1" fill-rule="nonzero"/><path fill="#401e08" d="M 6.226562 19.492188 C 6.214844 19.492188 6.199219 19.488281 6.191406 19.476562 C 6.179688 19.460938 6.179688 19.433594 6.199219 19.417969 C 7.03125 18.710938 8.425781 18.671875 8.4375 18.671875 C 8.460938 18.671875 8.480469 18.6875 8.480469 18.710938 C 8.480469 18.734375 8.460938 18.75 8.441406 18.75 C 8.425781 18.753906 7.0625 18.789062 6.25 19.480469 L 6.226562 19.492188 " fill-opacity="1" fill-rule="nonzero"/><path fill="#401e08" d="M 6.167969 19.898438 C 6.15625 19.898438 6.140625 19.894531 6.132812 19.886719 C 6.117188 19.871094 6.121094 19.84375 6.136719 19.828125 C 6.964844 19.070312 8.425781 18.808594 8.4375 18.808594 C 8.460938 18.804688 8.480469 18.820312 8.484375 18.839844 C 8.488281 18.863281 8.476562 18.882812 8.453125 18.886719 C 8.4375 18.890625 7 19.144531 6.191406 19.886719 C 6.183594 19.894531 6.175781 19.898438 6.167969 19.898438 " fill-opacity="1" fill-rule="nonzero"/><path fill="#401e08" d="M 6.484375 20.113281 C 6.472656 20.117188 6.460938 20.113281 6.453125 20.101562 C 6.4375 20.085938 6.4375 20.058594 6.453125 20.042969 C 7.347656 19.210938 8.480469 18.945312 8.492188 18.945312 C 8.515625 18.941406 8.535156 18.953125 8.539062 18.976562 C 8.542969 18.996094 8.53125 19.019531 8.511719 19.023438 C 8.5 19.027344 7.382812 19.285156 6.507812 20.105469 C 6.5 20.109375 6.492188 20.113281 6.484375 20.113281 " fill-opacity="1" fill-rule="nonzero"/><path fill="#401e08" d="M 7.015625 20.152344 C 7.003906 20.152344 6.992188 20.148438 6.984375 20.140625 C 6.96875 20.125 6.96875 20.097656 6.984375 20.082031 C 7.59375 19.460938 8.558594 19.0625 8.566406 19.058594 C 8.589844 19.046875 8.613281 19.058594 8.621094 19.078125 C 8.628906 19.097656 8.621094 19.121094 8.597656 19.132812 C 8.589844 19.136719 7.640625 19.53125 7.042969 20.140625 C 7.035156 20.148438 7.023438 20.152344 7.015625 20.152344 " fill-opacity="1" fill-rule="nonzero"/><path fill="#f6882b" d="M 17.730469 18.367188 C 17.800781 18.507812 17.792969 18.679688 17.695312 18.8125 C 17.558594 18.996094 17.296875 19.035156 17.113281 18.898438 C 17.101562 18.886719 16.378906 18.363281 16.015625 18.777344 C 15.941406 18.855469 15.855469 18.960938 15.757812 19.082031 C 15.378906 19.539062 14.863281 20.164062 14.242188 20.589844 C 13.210938 21.289062 12.394531 21.0625 11.890625 20.75 C 11.695312 20.632812 11.636719 20.375 11.757812 20.179688 C 11.875 19.984375 12.132812 19.921875 12.328125 20.042969 C 13.28125 20.636719 14.269531 19.582031 15.117188 18.550781 C 15.222656 18.425781 15.3125 18.3125 15.394531 18.222656 C 16.089844 17.4375 17.148438 17.882812 17.609375 18.230469 C 17.660156 18.269531 17.703125 18.316406 17.730469 18.367188 " fill-opacity="1" fill-rule="nonzero"/><path fill="#df6821" d="M 14.800781 20.128906 C 14.800781 20.128906 14.890625 19.921875 14.824219 19.636719 C 14.773438 19.398438 14.523438 19.238281 14.523438 19.238281 C 13.820312 19.976562 13.066406 20.5 12.328125 20.042969 C 12.132812 19.921875 11.875 19.984375 11.757812 20.179688 C 11.636719 20.375 11.695312 20.632812 11.890625 20.75 C 12.394531 21.0625 13.210938 21.289062 14.242188 20.589844 C 14.488281 20.421875 14.589844 20.335938 14.800781 20.128906 " fill-opacity="1" fill-rule="nonzero"/><path fill="#c3633a" d="M 17.148438 22.738281 C 17.148438 23.015625 17.148438 23.429688 17.148438 23.429688 C 17.101562 24.234375 16.46875 23.980469 16.066406 24.171875 C 15.558594 24.414062 14.601562 24.746094 14.195312 24.8125 C 14.070312 24.832031 13.972656 24.769531 13.886719 24.707031 C 13.796875 24.644531 13.722656 24.578125 13.648438 24.609375 C 11.160156 25.621094 9.097656 25.003906 8.84375 23.320312 C 8.722656 22.511719 9.367188 21.542969 10.152344 21.375 C 11.011719 21.1875 13.066406 20.988281 14.113281 22.71875 C 14.828125 23.902344 16.089844 23.15625 16.089844 23.15625 C 16.089844 22.40625 17.148438 21.988281 17.148438 22.738281 " fill-opacity="1" fill-rule="nonzero"/><path fill="#e4d8c2" d="M 15.152344 23.640625 C 15.148438 23.550781 15.140625 23.460938 15.140625 23.371094 C 15.644531 23.382812 16.074219 23.109375 16.074219 23.109375 C 16.074219 22.347656 17.1875 21.957031 17.1875 22.726562 C 17.1875 23.007812 17.1875 23.429688 17.1875 23.429688 C 17.136719 24.25 16.476562 23.992188 16.066406 24.1875 C 15.878906 24.277344 15.628906 24.394531 15.371094 24.457031 C 15.246094 24.199219 15.175781 23.9375 15.152344 23.640625 " fill-opacity="1" fill-rule="nonzero"/><path fill="#b8a27c" d="M 17.109375 22.4375 C 17.042969 22.425781 16.980469 22.4375 16.921875 22.457031 C 16.863281 22.480469 16.808594 22.515625 16.761719 22.566406 C 16.714844 22.613281 16.683594 22.671875 16.667969 22.738281 C 16.652344 22.800781 16.65625 22.867188 16.679688 22.925781 C 16.707031 22.867188 16.730469 22.816406 16.757812 22.773438 C 16.785156 22.726562 16.816406 22.6875 16.851562 22.648438 C 16.886719 22.613281 16.925781 22.578125 16.96875 22.542969 C 17.011719 22.507812 17.058594 22.472656 17.109375 22.4375 " fill-opacity="1" fill-rule="nonzero"/><path fill="#b8a27c" d="M 16.765625 22.359375 C 16.710938 22.347656 16.652344 22.355469 16.601562 22.375 C 16.546875 22.398438 16.5 22.4375 16.46875 22.488281 C 16.4375 22.539062 16.421875 22.597656 16.417969 22.652344 C 16.417969 22.710938 16.429688 22.765625 16.453125 22.8125 C 16.480469 22.761719 16.496094 22.714844 16.511719 22.671875 C 16.53125 22.628906 16.550781 22.589844 16.570312 22.554688 C 16.59375 22.523438 16.621094 22.488281 16.652344 22.457031 C 16.683594 22.425781 16.722656 22.394531 16.765625 22.359375 " fill-opacity="1" fill-rule="nonzero"/><path fill="#b8a27c" d="M 17.175781 22.808594 C 17.117188 22.796875 17.0625 22.804688 17.007812 22.828125 C 16.957031 22.851562 16.910156 22.890625 16.878906 22.941406 C 16.84375 22.992188 16.828125 23.050781 16.828125 23.105469 C 16.824219 23.160156 16.835938 23.214844 16.863281 23.265625 C 16.886719 23.214844 16.902344 23.167969 16.921875 23.125 C 16.941406 23.082031 16.957031 23.042969 16.980469 23.007812 C 17.003906 22.972656 17.027344 22.941406 17.0625 22.910156 C 17.09375 22.878906 17.132812 22.847656 17.175781 22.808594 " fill-opacity="1" fill-rule="nonzero"/><path fill="#c3633a" d="M 19.773438 22.113281 C 20.285156 22.25 20.722656 22.4375 21.621094 22.902344 C 22.519531 23.367188 22.953125 23.285156 23.714844 22.957031 C 23.714844 22.957031 23.636719 22.578125 24 22.371094 C 24.132812 22.292969 24.601562 22.101562 24.601562 22.453125 C 24.601562 22.792969 24.554688 23.476562 24.554688 23.679688 C 24.554688 23.980469 24.285156 24.089844 23.847656 24.089844 C 23.46875 24.089844 22.601562 24.832031 22.296875 24.65625 C 21.839844 24.398438 21.789062 24.347656 21.519531 24.421875 C 20.949219 24.574219 20.34375 24.855469 19.539062 24.882812 C 18.875 24.902344 18.25 24.308594 18.25 23.363281 C 18.25 22.6875 18.925781 21.886719 19.773438 22.113281 " fill-opacity="1" fill-rule="nonzero"/><path fill="#e4d8c2" d="M 23.296875 24.179688 C 23.066406 24.015625 22.792969 23.851562 22.695312 23.570312 C 22.65625 23.460938 22.640625 23.34375 22.632812 23.226562 C 22.972656 23.207031 23.261719 23.117188 23.679688 22.9375 C 23.679688 22.9375 23.636719 22.554688 24.011719 22.339844 C 24.148438 22.265625 24.632812 22.066406 24.632812 22.425781 C 24.632812 22.78125 24.632812 23.449219 24.632812 23.65625 C 24.632812 23.96875 24.304688 24.117188 23.855469 24.117188 C 23.742188 24.117188 23.546875 24.175781 23.375 24.261719 C 23.335938 24.230469 23.335938 24.207031 23.296875 24.179688 " fill-opacity="1" fill-rule="nonzero"/><path fill="#b8a27c" d="M 24.605469 22.371094 C 24.542969 22.363281 24.480469 22.375 24.421875 22.394531 C 24.359375 22.417969 24.304688 22.453125 24.261719 22.503906 C 24.214844 22.550781 24.179688 22.609375 24.164062 22.675781 C 24.152344 22.738281 24.15625 22.804688 24.179688 22.863281 C 24.207031 22.804688 24.226562 22.753906 24.257812 22.710938 C 24.285156 22.664062 24.3125 22.625 24.347656 22.585938 C 24.382812 22.550781 24.425781 22.515625 24.46875 22.480469 C 24.511719 22.445312 24.554688 22.410156 24.605469 22.371094 " fill-opacity="1" fill-rule="nonzero"/><path fill="#b8a27c" d="M 24.265625 22.296875 C 24.207031 22.285156 24.152344 22.292969 24.097656 22.3125 C 24.046875 22.335938 24 22.375 23.96875 22.425781 C 23.933594 22.476562 23.917969 22.535156 23.917969 22.589844 C 23.914062 22.648438 23.925781 22.699219 23.953125 22.75 C 23.976562 22.699219 23.992188 22.652344 24.011719 22.609375 C 24.027344 22.566406 24.046875 22.527344 24.070312 22.492188 C 24.09375 22.457031 24.117188 22.425781 24.152344 22.394531 C 24.183594 22.363281 24.222656 22.332031 24.265625 22.296875 " fill-opacity="1" fill-rule="nonzero"/><path fill="#b8a27c" d="M 24.625 22.765625 C 24.570312 22.753906 24.515625 22.761719 24.460938 22.785156 C 24.410156 22.808594 24.363281 22.847656 24.328125 22.898438 C 24.296875 22.949219 24.28125 23.007812 24.28125 23.0625 C 24.277344 23.117188 24.289062 23.171875 24.316406 23.222656 C 24.339844 23.171875 24.355469 23.125 24.375 23.082031 C 24.390625 23.039062 24.410156 23 24.433594 22.964844 C 24.457031 22.929688 24.480469 22.898438 24.511719 22.867188 C 24.546875 22.835938 24.585938 22.804688 24.625 22.765625 " fill-opacity="1" fill-rule="nonzero"/><path fill="#c3633a" d="M 12.097656 24.894531 C 9.191406 24.894531 7.617188 20.953125 9.699219 19.355469 C 11.949219 17.632812 14.140625 19.386719 15.40625 19.78125 C 16.675781 20.179688 18.269531 19.074219 18.269531 19.074219 L 21.085938 21.195312 C 21.085938 23.582031 19.398438 24.894531 17.300781 24.894531 C 14.769531 24.894531 13.5625 24.894531 12.097656 24.894531 " fill-opacity="1" fill-rule="nonzero"/><path fill="#4b1615" d="M 8.820312 20.679688 C 8.945312 20.160156 9.238281 19.703125 9.699219 19.347656 C 11.949219 17.625 14.140625 19.378906 15.40625 19.777344 C 16.5625 20.136719 17.984375 19.253906 18.230469 19.09375 C 18.4375 19.902344 17.050781 21.621094 15.734375 21.257812 C 14.046875 20.792969 13.121094 20.265625 12.5625 20.265625 C 11.667969 20.265625 10.300781 21.488281 8.820312 20.679688 " fill-opacity="1" fill-rule="nonzero"/><path fill="#d0baa7" d="M 8.832031 22.113281 C 10.382812 23.625 12.289062 23.507812 14.171875 23.394531 C 15.050781 23.339844 15.925781 23.285156 16.757812 23.398438 C 18.851562 23.675781 19.871094 21.5 20.214844 20.546875 L 21.085938 21.203125 C 21.085938 23.589844 19.398438 24.902344 17.300781 24.902344 C 14.769531 24.902344 13.5625 24.902344 12.097656 24.902344 C 10.398438 24.902344 9.152344 23.554688 8.832031 22.113281 " fill-opacity="1" fill-rule="nonzero"/><path fill="#c3633a" d="M 19.0625 22.441406 C 19.558594 22.625 19.976562 22.851562 20.828125 23.398438 C 21.679688 23.945312 22.117188 23.90625 22.910156 23.648438 C 22.910156 23.648438 22.867188 23.265625 23.246094 23.089844 C 23.386719 23.027344 23.871094 22.882812 23.835938 23.230469 C 23.804688 23.570312 23.695312 24.246094 23.679688 24.445312 C 23.648438 24.746094 23.367188 24.828125 22.933594 24.789062 C 22.554688 24.753906 21.625 25.410156 21.335938 25.207031 C 20.90625 24.90625 20.859375 24.855469 20.585938 24.902344 C 20.003906 25 19.375 25.226562 18.570312 25.175781 C 17.90625 25.132812 17.34375 24.480469 17.429688 23.542969 C 17.492188 22.867188 18.238281 22.136719 19.0625 22.441406 " fill-opacity="1" fill-rule="nonzero"/><path fill="#e4d8c2" d="M 22.375 24.828125 C 22.164062 24.644531 21.90625 24.453125 21.835938 24.164062 C 21.808594 24.050781 21.800781 23.9375 21.804688 23.816406 C 22.148438 23.828125 22.441406 23.765625 22.875 23.625 C 22.875 23.625 22.867188 23.242188 23.261719 23.066406 C 23.40625 23 23.902344 22.847656 23.871094 23.207031 C 23.835938 23.558594 23.777344 24.226562 23.757812 24.433594 C 23.726562 24.742188 23.386719 24.859375 22.9375 24.816406 C 22.824219 24.804688 22.628906 24.84375 22.449219 24.917969 C 22.414062 24.882812 22.414062 24.859375 22.375 24.828125 " fill-opacity="1" fill-rule="nonzero"/><path fill="#b8a27c" d="M 23.847656 23.152344 C 23.789062 23.136719 23.722656 23.140625 23.664062 23.15625 C 23.601562 23.175781 23.542969 23.203125 23.492188 23.25 C 23.441406 23.289062 23.402344 23.347656 23.382812 23.410156 C 23.363281 23.472656 23.359375 23.539062 23.378906 23.601562 C 23.410156 23.542969 23.4375 23.496094 23.46875 23.453125 C 23.5 23.410156 23.535156 23.375 23.574219 23.339844 C 23.613281 23.308594 23.65625 23.277344 23.699219 23.246094 C 23.746094 23.214844 23.796875 23.1875 23.847656 23.152344 " fill-opacity="1" fill-rule="nonzero"/><path fill="#b8a27c" d="M 23.515625 23.042969 C 23.460938 23.027344 23.40625 23.027344 23.351562 23.046875 C 23.296875 23.0625 23.246094 23.097656 23.207031 23.144531 C 23.171875 23.191406 23.148438 23.25 23.144531 23.304688 C 23.136719 23.359375 23.140625 23.414062 23.164062 23.46875 C 23.191406 23.417969 23.214844 23.371094 23.234375 23.332031 C 23.257812 23.289062 23.277344 23.253906 23.304688 23.222656 C 23.328125 23.1875 23.359375 23.160156 23.394531 23.132812 C 23.429688 23.101562 23.46875 23.074219 23.515625 23.042969 " fill-opacity="1" fill-rule="nonzero"/><path fill="#b8a27c" d="M 23.832031 23.546875 C 23.777344 23.53125 23.722656 23.53125 23.667969 23.546875 C 23.613281 23.566406 23.5625 23.601562 23.523438 23.648438 C 23.488281 23.695312 23.46875 23.753906 23.460938 23.808594 C 23.453125 23.863281 23.460938 23.917969 23.480469 23.96875 C 23.511719 23.921875 23.53125 23.875 23.550781 23.835938 C 23.574219 23.792969 23.597656 23.757812 23.621094 23.726562 C 23.648438 23.691406 23.675781 23.664062 23.710938 23.632812 C 23.746094 23.605469 23.789062 23.578125 23.832031 23.546875 " fill-opacity="1" fill-rule="nonzero"/><path fill="#4b1615" d="M 8.824219 20.910156 C 8.824219 20.910156 8.457031 22.089844 7.363281 22.679688 C 6.265625 23.269531 6.652344 24.648438 6.6875 24.9375 C 6.6875 24.9375 7.128906 23.695312 7.742188 23.417969 C 8.855469 22.914062 10.757812 21.617188 9.984375 19.269531 C 9.984375 19.269531 8.699219 20.007812 8.824219 20.910156 " fill-opacity="1" fill-rule="nonzero"/><path fill="#e4d8c2" d="M 7.363281 22.679688 C 7.371094 22.675781 7.617188 22.851562 7.675781 22.964844 C 7.820312 23.234375 7.792969 23.386719 7.742188 23.417969 C 7.109375 23.808594 6.65625 25.0625 6.65625 25.0625 C 6.625 24.769531 5.992188 23.285156 7.363281 22.679688 " fill-opacity="1" fill-rule="nonzero"/><path fill="#c3633a" d="M 16.847656 23.347656 C 16.824219 23.625 16.789062 24.039062 16.789062 24.039062 C 16.675781 24.832031 16.066406 24.527344 15.648438 24.6875 C 15.125 24.886719 14.140625 25.136719 13.730469 25.171875 C 13.609375 25.179688 13.515625 25.113281 13.4375 25.046875 C 13.351562 24.972656 13.28125 24.898438 13.203125 24.925781 C 10.640625 25.726562 8.632812 24.945312 8.519531 23.246094 C 8.464844 22.429688 9.1875 21.515625 9.980469 21.414062 C 10.855469 21.296875 12.917969 21.269531 13.820312 23.078125 C 14.4375 24.316406 15.753906 23.675781 15.753906 23.675781 C 15.816406 22.929688 16.90625 22.597656 16.847656 23.347656 " fill-opacity="1" fill-rule="nonzero"/><path fill="#cc7544" d="M 14.03125 23.402344 C 13.957031 23.3125 13.882812 23.203125 13.820312 23.078125 C 13.109375 21.652344 11.675781 21.367188 10.675781 21.367188 C 10.40625 21.367188 10.167969 21.386719 9.980469 21.414062 C 9.964844 21.414062 9.953125 21.417969 9.9375 21.417969 C 9.953125 21.414062 9.964844 21.410156 9.980469 21.410156 C 10.167969 21.386719 10.40625 21.367188 10.675781 21.367188 C 11.675781 21.367188 13.109375 21.648438 13.820312 23.074219 C 13.886719 23.203125 13.957031 23.3125 14.035156 23.402344 C 14.035156 23.402344 14.03125 23.402344 14.03125 23.402344 " fill-opacity="1" fill-rule="nonzero"/><path fill="#d8c5b2" d="M 15 23.839844 C 14.683594 23.839844 14.320312 23.746094 14.03125 23.402344 C 14.03125 23.402344 14.035156 23.402344 14.035156 23.402344 C 14.308594 23.726562 14.652344 23.820312 14.957031 23.820312 C 15.339844 23.820312 15.667969 23.671875 15.734375 23.640625 L 15.730469 23.6875 C 15.644531 23.722656 15.347656 23.839844 15 23.839844 " fill-opacity="1" fill-rule="nonzero"/><path fill="#63221e" d="M 8.855469 22.160156 C 9.121094 21.78125 9.519531 21.488281 9.9375 21.417969 C 9.519531 21.488281 9.125 21.78125 8.859375 22.160156 C 8.859375 22.160156 8.855469 22.160156 8.855469 22.160156 " fill-opacity="1" fill-rule="nonzero"/><path fill="#cc7544" d="M 14.664062 24.261719 C 14 24.261719 13.34375 24.054688 13.046875 23.429688 C 12.628906 22.539062 11.210938 22.019531 9.929688 22.019531 C 9.550781 22.019531 9.183594 22.066406 8.859375 22.160156 C 9.125 21.78125 9.519531 21.488281 9.9375 21.417969 C 9.953125 21.417969 9.964844 21.414062 9.980469 21.414062 C 10.167969 21.386719 10.40625 21.367188 10.675781 21.367188 C 11.675781 21.367188 13.109375 21.652344 13.820312 23.078125 C 13.882812 23.203125 13.957031 23.3125 14.03125 23.402344 C 14.320312 23.746094 14.683594 23.839844 15 23.839844 C 15.347656 23.839844 15.644531 23.722656 15.730469 23.6875 L 15.695312 24.109375 C 15.390625 24.199219 15.027344 24.261719 14.664062 24.261719 " fill-opacity="1" fill-rule="nonzero"/><path fill="#e4d8c2" d="M 14.78125 24.082031 C 14.785156 23.992188 14.785156 23.902344 14.789062 23.8125 C 15.292969 23.863281 15.746094 23.628906 15.746094 23.628906 C 15.808594 22.867188 16.949219 22.574219 16.886719 23.339844 C 16.863281 23.621094 16.828125 24.042969 16.828125 24.042969 C 16.710938 24.851562 16.074219 24.539062 15.648438 24.703125 C 15.453125 24.777344 15.195312 24.871094 14.933594 24.914062 C 14.832031 24.648438 14.78125 24.378906 14.78125 24.082031 " fill-opacity="1" fill-rule="nonzero"/><path fill="#b8a27c" d="M 16.828125 23.042969 C 16.765625 23.027344 16.703125 23.03125 16.640625 23.050781 C 16.582031 23.066406 16.523438 23.097656 16.472656 23.144531 C 16.425781 23.1875 16.386719 23.242188 16.363281 23.308594 C 16.34375 23.371094 16.34375 23.4375 16.363281 23.496094 C 16.394531 23.441406 16.421875 23.390625 16.453125 23.347656 C 16.484375 23.304688 16.515625 23.269531 16.554688 23.234375 C 16.59375 23.199219 16.636719 23.167969 16.679688 23.136719 C 16.726562 23.105469 16.773438 23.078125 16.828125 23.042969 " fill-opacity="1" fill-rule="nonzero"/><path fill="#b8a27c" d="M 16.492188 22.9375 C 16.441406 22.921875 16.382812 22.921875 16.328125 22.941406 C 16.273438 22.960938 16.222656 22.996094 16.1875 23.042969 C 16.152344 23.089844 16.128906 23.148438 16.125 23.203125 C 16.117188 23.257812 16.125 23.3125 16.144531 23.367188 C 16.175781 23.316406 16.195312 23.269531 16.214844 23.230469 C 16.238281 23.1875 16.257812 23.152344 16.285156 23.117188 C 16.308594 23.085938 16.339844 23.054688 16.375 23.027344 C 16.410156 22.996094 16.449219 22.972656 16.492188 22.9375 " fill-opacity="1" fill-rule="nonzero"/><path fill="#b8a27c" d="M 16.863281 23.417969 C 16.8125 23.402344 16.753906 23.40625 16.699219 23.425781 C 16.644531 23.441406 16.59375 23.480469 16.558594 23.527344 C 16.519531 23.574219 16.5 23.632812 16.496094 23.6875 C 16.488281 23.742188 16.496094 23.796875 16.515625 23.847656 C 16.546875 23.800781 16.566406 23.753906 16.585938 23.710938 C 16.609375 23.671875 16.628906 23.632812 16.65625 23.601562 C 16.679688 23.570312 16.707031 23.539062 16.742188 23.511719 C 16.777344 23.480469 16.820312 23.453125 16.863281 23.417969 " fill-opacity="1" fill-rule="nonzero"/><path fill="#be512a" d="M 22.757812 18.839844 C 22.757812 18.839844 23.167969 19 23.578125 19.300781 C 24.039062 19.640625 24.539062 20.050781 24.800781 20.386719 C 25.03125 20.683594 25.085938 20.886719 24.917969 21.179688 C 24.621094 21.691406 23.910156 22.941406 23.53125 23.613281 C 23.378906 23.878906 23.167969 23.949219 23.027344 23.773438 C 22.757812 23.4375 22.386719 22.84375 22.503906 22.234375 C 22.679688 21.3125 22.757812 18.839844 22.757812 18.839844 " fill-opacity="1" fill-rule="nonzero"/><path fill="#d77445" d="M 19.144531 20.410156 L 19.859375 18.703125 L 20.460938 18.328125 C 20.460938 18.328125 20.820312 18.351562 20.910156 18.382812 C 21.136719 18.460938 21.507812 18.636719 21.742188 18.691406 L 21.738281 18.691406 L 21.742188 18.691406 C 21.972656 18.746094 22.382812 18.753906 22.617188 18.785156 C 22.714844 18.796875 23.261719 19.0625 23.421875 19.539062 C 23.566406 19.980469 23.304688 21.390625 23.304688 21.390625 C 23.386719 21.6875 23.394531 22.578125 22.828125 22.792969 C 21.917969 23.136719 21.648438 23.5 20.953125 23.339844 L 20.671875 23.273438 L 20.671875 23.269531 L 20.671875 23.273438 L 20.390625 23.207031 C 19.695312 23.042969 19.613281 22.597656 18.949219 21.878906 C 18.535156 21.4375 18.9375 20.640625 19.144531 20.410156 " fill-opacity="1" fill-rule="nonzero"/><path fill="#e4d8c2" d="M 20.71875 21.148438 L 21.519531 18.621094 C 21.574219 18.640625 21.683594 18.671875 21.738281 18.6875 C 21.792969 18.699219 21.855469 18.71875 21.957031 18.726562 L 21.566406 21.359375 C 22.0625 21.597656 22.460938 22.03125 22.359375 22.460938 C 22.300781 22.71875 21.824219 23.207031 21.585938 23.335938 C 21.398438 23.386719 21.203125 23.394531 20.957031 23.339844 L 20.675781 23.269531 L 20.390625 23.203125 C 20.144531 23.144531 19.972656 23.050781 19.828125 22.921875 C 19.675781 22.699219 19.480469 21.945312 19.542969 21.6875 C 19.640625 21.257812 20.175781 21.113281 20.71875 21.148438 " fill-opacity="1" fill-rule="nonzero"/><path fill="#4b1615" d="M 20.113281 20.429688 C 20.089844 20.46875 20.066406 20.507812 20.035156 20.539062 C 20.011719 20.570312 19.972656 20.585938 19.984375 20.582031 C 19.992188 20.59375 19.960938 20.554688 19.953125 20.515625 C 19.941406 20.476562 19.9375 20.429688 19.929688 20.382812 C 19.921875 20.289062 19.917969 20.191406 19.914062 20.085938 C 19.867188 20.179688 19.832031 20.277344 19.824219 20.382812 C 19.816406 20.433594 19.816406 20.488281 19.824219 20.542969 C 19.828125 20.570312 19.839844 20.601562 19.851562 20.632812 C 19.867188 20.660156 19.894531 20.703125 19.949219 20.71875 C 19.953125 20.71875 19.941406 20.714844 19.960938 20.71875 L 19.96875 20.71875 L 19.976562 20.722656 C 19.992188 20.71875 20.007812 20.71875 20.023438 20.714844 C 20.042969 20.707031 20.058594 20.699219 20.074219 20.6875 C 20.101562 20.664062 20.121094 20.644531 20.140625 20.621094 C 20.171875 20.574219 20.195312 20.523438 20.214844 20.476562 C 20.25 20.378906 20.261719 20.273438 20.257812 20.171875 C 20.210938 20.261719 20.164062 20.347656 20.113281 20.429688 " fill-opacity="1" fill-rule="nonzero"/><path fill="#4b1615" d="M 22.761719 20.773438 C 22.710938 20.863281 22.664062 20.949219 22.617188 21.03125 C 22.589844 21.070312 22.566406 21.109375 22.539062 21.140625 C 22.511719 21.171875 22.472656 21.1875 22.484375 21.183594 C 22.492188 21.195312 22.460938 21.160156 22.457031 21.117188 C 22.445312 21.078125 22.441406 21.03125 22.433594 20.984375 C 22.425781 20.890625 22.421875 20.792969 22.417969 20.691406 C 22.367188 20.78125 22.335938 20.878906 22.324219 20.984375 C 22.316406 21.035156 22.320312 21.089844 22.328125 21.144531 C 22.332031 21.175781 22.339844 21.203125 22.355469 21.234375 C 22.371094 21.261719 22.394531 21.304688 22.449219 21.320312 C 22.457031 21.320312 22.441406 21.316406 22.464844 21.320312 L 22.472656 21.320312 L 22.480469 21.324219 C 22.492188 21.320312 22.507812 21.320312 22.523438 21.316406 C 22.546875 21.308594 22.5625 21.300781 22.574219 21.289062 C 22.605469 21.269531 22.625 21.246094 22.640625 21.222656 C 22.671875 21.175781 22.699219 21.128906 22.714844 21.078125 C 22.75 20.980469 22.765625 20.875 22.761719 20.773438 " fill-opacity="1" fill-rule="nonzero"/><path fill="#be512a" d="M 20.484375 18.328125 C 20.484375 18.328125 20.460938 18.324219 19.722656 18.296875 C 19.242188 18.28125 18.667969 18.304688 18.089844 18.433594 C 17.738281 18.515625 17.671875 18.976562 17.6875 19.320312 C 17.714844 19.976562 17.730469 21.457031 17.738281 22.113281 C 17.738281 22.316406 17.957031 22.429688 18.230469 22.355469 C 18.644531 22.25 19.191406 22.003906 19.320312 21.449219 C 19.636719 20.085938 19.742188 19.644531 19.917969 18.902344 C 19.992188 18.585938 20.484375 18.328125 20.484375 18.328125 " fill-opacity="1" fill-rule="nonzero"/><path fill="#4b1615" d="M 21.921875 21.363281 C 21.917969 21.160156 21.617188 21.042969 21.226562 20.949219 C 20.75 20.839844 20.511719 20.832031 20.429688 21.015625 C 20.332031 21.226562 20.6875 21.71875 21.054688 21.804688 C 21.355469 21.875 21.921875 21.609375 21.921875 21.363281 " fill-opacity="1" fill-rule="nonzero"/><path fill="#4b1615" d="M 19.378906 21.65625 L 19.386719 21.660156 C 19.472656 21.808594 19.570312 21.949219 19.679688 22.078125 C 19.734375 22.140625 19.792969 22.203125 19.859375 22.257812 C 19.921875 22.308594 19.992188 22.355469 20.066406 22.382812 C 20.082031 22.390625 20.101562 22.394531 20.121094 22.398438 C 20.140625 22.402344 20.160156 22.40625 20.179688 22.40625 C 20.222656 22.410156 20.261719 22.410156 20.300781 22.40625 C 20.378906 22.394531 20.457031 22.371094 20.53125 22.339844 C 20.605469 22.304688 20.675781 22.265625 20.742188 22.21875 C 20.777344 22.195312 20.808594 22.167969 20.839844 22.144531 C 20.855469 22.128906 20.871094 22.117188 20.886719 22.101562 C 20.898438 22.089844 20.914062 22.074219 20.925781 22.0625 C 20.9375 22.054688 20.945312 22.046875 20.957031 22.042969 L 21.003906 21.730469 L 21.128906 21.761719 C 21.128906 21.761719 21.042969 22.074219 21.046875 22.089844 C 21.050781 22.109375 21.058594 22.128906 21.066406 22.144531 C 21.074219 22.164062 21.082031 22.183594 21.089844 22.203125 C 21.105469 22.238281 21.125 22.277344 21.144531 22.3125 C 21.183594 22.382812 21.230469 22.453125 21.28125 22.515625 C 21.332031 22.578125 21.390625 22.632812 21.457031 22.675781 C 21.492188 22.699219 21.527344 22.714844 21.5625 22.730469 C 21.582031 22.738281 21.601562 22.746094 21.621094 22.75 L 21.628906 22.753906 L 21.636719 22.753906 L 21.648438 22.757812 C 21.660156 22.757812 21.667969 22.761719 21.679688 22.761719 C 21.757812 22.769531 21.839844 22.761719 21.917969 22.742188 C 22 22.71875 22.078125 22.691406 22.15625 22.660156 C 22.3125 22.59375 22.460938 22.507812 22.601562 22.414062 L 22.617188 22.417969 L 22.617188 22.433594 C 22.480469 22.535156 22.335938 22.628906 22.179688 22.707031 C 22.101562 22.742188 22.023438 22.777344 21.9375 22.804688 C 21.855469 22.828125 21.765625 22.847656 21.671875 22.84375 C 21.660156 22.84375 21.648438 22.839844 21.636719 22.839844 L 21.617188 22.835938 L 21.609375 22.835938 L 21.601562 22.832031 C 21.578125 22.828125 21.554688 22.820312 21.535156 22.816406 C 21.488281 22.800781 21.449219 22.78125 21.40625 22.757812 C 21.328125 22.710938 21.257812 22.652344 21.195312 22.585938 C 21.132812 22.519531 21.078125 22.449219 21.03125 22.375 C 21.007812 22.335938 20.988281 22.296875 20.96875 22.257812 C 20.960938 22.246094 20.957031 22.238281 20.953125 22.226562 C 20.941406 22.234375 20.933594 22.242188 20.925781 22.246094 C 20.890625 22.273438 20.851562 22.296875 20.816406 22.324219 C 20.738281 22.367188 20.660156 22.410156 20.574219 22.441406 C 20.492188 22.472656 20.402344 22.492188 20.308594 22.5 C 20.265625 22.5 20.21875 22.5 20.171875 22.492188 C 20.148438 22.488281 20.125 22.484375 20.105469 22.480469 C 20.082031 22.472656 20.058594 22.464844 20.035156 22.457031 C 19.949219 22.417969 19.878906 22.363281 19.816406 22.300781 C 19.75 22.242188 19.695312 22.175781 19.640625 22.105469 C 19.539062 21.96875 19.449219 21.820312 19.375 21.667969 L 19.378906 21.65625 " fill-opacity="1" fill-rule="nonzero"/><path fill="#574640" d="M 15.65625 22.941406 C 15.777344 23.09375 15.984375 23.191406 16.3125 23.132812 C 16.402344 23.113281 16.492188 23.007812 16.648438 23.007812 C 16.742188 23.007812 16.902344 23.113281 16.992188 23.132812 C 17.34375 23.195312 17.554688 23.078125 17.671875 22.90625 C 17.871094 23.351562 18.390625 25.023438 17.269531 25.425781 C 17.175781 25.457031 16.667969 25.425781 16.667969 25.425781 L 16.664062 25.425781 C 16.664062 25.425781 16.066406 25.464844 15.941406 25.425781 C 14.933594 25.09375 15.4375 23.445312 15.65625 22.941406 " fill-opacity="1" fill-rule="nonzero"/><path fill="#443630" d="M 15.335938 24.492188 C 15.417969 24.515625 15.539062 24.585938 15.625 24.78125 C 15.710938 24.992188 15.917969 25.070312 16.09375 25.007812 C 16.265625 24.941406 16.332031 24.226562 16.179688 23.90625 C 15.992188 23.523438 17.367188 23.484375 17.121094 23.90625 C 16.945312 24.210938 17.035156 24.941406 17.207031 25.007812 C 17.382812 25.070312 17.589844 24.992188 17.675781 24.78125 C 17.757812 24.597656 17.871094 24.523438 17.953125 24.496094 C 17.902344 24.902344 17.714844 25.265625 17.265625 25.425781 C 17.171875 25.457031 16.667969 25.425781 16.667969 25.425781 L 16.664062 25.425781 C 16.664062 25.425781 16.0625 25.464844 15.941406 25.425781 C 15.515625 25.285156 15.359375 24.914062 15.335938 24.492188 " fill-opacity="1" fill-rule="nonzero"/><path fill="#f68a7e" d="M 15.863281 25.492188 C 15.785156 25.492188 15.75 25.425781 15.785156 25.347656 C 15.785156 25.347656 15.835938 25.128906 16.0625 25.128906 C 16.285156 25.128906 16.339844 25.347656 16.339844 25.347656 C 16.375 25.425781 16.339844 25.492188 16.261719 25.492188 L 15.863281 25.492188 " fill-opacity="1" fill-rule="nonzero"/><path fill="#e0594f" d="M 16.140625 25.144531 C 16.148438 25.179688 16.15625 25.207031 16.164062 25.234375 C 16.167969 25.265625 16.171875 25.292969 16.171875 25.316406 C 16.171875 25.34375 16.171875 25.371094 16.164062 25.398438 C 16.15625 25.425781 16.148438 25.453125 16.136719 25.484375 C 16.160156 25.472656 16.183594 25.453125 16.199219 25.421875 C 16.214844 25.394531 16.222656 25.355469 16.222656 25.316406 C 16.222656 25.277344 16.210938 25.242188 16.199219 25.214844 C 16.183594 25.183594 16.164062 25.160156 16.140625 25.144531 " fill-opacity="1" fill-rule="nonzero"/><path fill="#e0594f" d="M 15.976562 25.144531 C 15.96875 25.179688 15.960938 25.207031 15.953125 25.234375 C 15.949219 25.265625 15.945312 25.292969 15.941406 25.316406 C 15.941406 25.34375 15.945312 25.371094 15.953125 25.398438 C 15.957031 25.425781 15.96875 25.453125 15.980469 25.484375 C 15.957031 25.472656 15.933594 25.453125 15.917969 25.421875 C 15.902344 25.394531 15.894531 25.355469 15.894531 25.316406 C 15.894531 25.277344 15.902344 25.242188 15.917969 25.214844 C 15.933594 25.183594 15.953125 25.160156 15.976562 25.144531 " fill-opacity="1" fill-rule="nonzero"/><path fill="#f68a7e" d="M 17.039062 25.492188 C 16.964844 25.492188 16.929688 25.425781 16.960938 25.347656 C 16.960938 25.347656 17.015625 25.128906 17.242188 25.128906 C 17.464844 25.128906 17.519531 25.347656 17.519531 25.347656 C 17.554688 25.425781 17.519531 25.492188 17.441406 25.492188 L 17.039062 25.492188 " fill-opacity="1" fill-rule="nonzero"/><path fill="#e0594f" d="M 17.316406 25.144531 C 17.328125 25.179688 17.335938 25.207031 17.339844 25.234375 C 17.347656 25.265625 17.351562 25.292969 17.351562 25.316406 C 17.351562 25.34375 17.351562 25.371094 17.34375 25.398438 C 17.335938 25.425781 17.328125 25.453125 17.316406 25.484375 C 17.339844 25.472656 17.363281 25.453125 17.378906 25.421875 C 17.394531 25.394531 17.402344 25.355469 17.402344 25.316406 C 17.402344 25.277344 17.390625 25.242188 17.375 25.214844 C 17.363281 25.183594 17.34375 25.160156 17.316406 25.144531 " fill-opacity="1" fill-rule="nonzero"/><path fill="#e0594f" d="M 17.15625 25.144531 C 17.148438 25.179688 17.136719 25.207031 17.132812 25.234375 C 17.125 25.265625 17.121094 25.292969 17.121094 25.316406 C 17.121094 25.34375 17.125 25.371094 17.132812 25.398438 C 17.136719 25.425781 17.148438 25.453125 17.160156 25.484375 C 17.132812 25.472656 17.113281 25.453125 17.097656 25.421875 C 17.082031 25.394531 17.070312 25.355469 17.074219 25.316406 C 17.074219 25.277344 17.082031 25.242188 17.097656 25.214844 C 17.113281 25.183594 17.132812 25.160156 17.15625 25.144531 " fill-opacity="1" fill-rule="nonzero"/><path fill="#f68a7e" d="M 15.855469 23.550781 C 15.910156 23.558594 15.910156 23.65625 15.851562 23.761719 C 15.851562 23.761719 15.726562 24.066406 15.566406 24.042969 C 15.414062 24.019531 15.460938 23.703125 15.460938 23.703125 C 15.46875 23.585938 15.519531 23.5 15.574219 23.507812 L 15.855469 23.550781 " fill-opacity="1" fill-rule="nonzero"/><path fill="#e0594f" d="M 15.65625 23.546875 L 15.675781 23.535156 L 15.65625 23.578125 C 15.644531 23.609375 15.628906 23.636719 15.617188 23.664062 C 15.601562 23.699219 15.59375 23.730469 15.582031 23.765625 C 15.574219 23.796875 15.566406 23.832031 15.558594 23.871094 C 15.550781 23.90625 15.546875 23.945312 15.542969 23.984375 L 15.535156 24.019531 L 15.523438 23.996094 C 15.515625 23.976562 15.511719 23.945312 15.511719 23.898438 C 15.511719 23.855469 15.519531 23.808594 15.535156 23.761719 C 15.546875 23.710938 15.566406 23.660156 15.589844 23.625 C 15.613281 23.585938 15.632812 23.558594 15.65625 23.546875 " fill-opacity="1" fill-rule="nonzero"/><path fill="#e0594f" d="M 15.734375 23.683594 C 15.742188 23.65625 15.742188 23.625 15.746094 23.589844 L 15.753906 23.546875 L 15.765625 23.5625 C 15.777344 23.582031 15.785156 23.613281 15.785156 23.652344 C 15.78125 23.695312 15.773438 23.746094 15.761719 23.796875 C 15.746094 23.84375 15.726562 23.890625 15.703125 23.929688 C 15.683594 23.96875 15.660156 24 15.640625 24.011719 L 15.617188 24.03125 L 15.628906 24 C 15.648438 23.960938 15.660156 23.925781 15.675781 23.890625 C 15.691406 23.851562 15.703125 23.816406 15.710938 23.785156 C 15.722656 23.75 15.730469 23.71875 15.734375 23.683594 " fill-opacity="1" fill-rule="nonzero"/><path fill="#f68a7e" d="M 17.457031 23.675781 C 17.402344 23.683594 17.398438 23.773438 17.449219 23.882812 C 17.449219 23.882812 17.558594 24.1875 17.714844 24.167969 C 17.867188 24.152344 17.832031 23.839844 17.832031 23.839844 C 17.828125 23.730469 17.785156 23.640625 17.730469 23.648438 L 17.457031 23.675781 " fill-opacity="1" fill-rule="nonzero"/><path fill="#e0594f" d="M 17.730469 24 C 17.726562 23.960938 17.71875 23.925781 17.710938 23.894531 C 17.703125 23.859375 17.695312 23.828125 17.683594 23.792969 C 17.671875 23.761719 17.660156 23.734375 17.644531 23.703125 L 17.628906 23.65625 L 17.648438 23.671875 C 17.667969 23.683594 17.691406 23.710938 17.710938 23.75 C 17.730469 23.789062 17.75 23.839844 17.761719 23.890625 C 17.773438 23.9375 17.777344 23.988281 17.777344 24.03125 C 17.777344 24.074219 17.773438 24.105469 17.761719 24.125 L 17.746094 24.148438 L 17.742188 24.113281 C 17.738281 24.074219 17.734375 24.039062 17.730469 24 " fill-opacity="1" fill-rule="nonzero"/><path fill="#e0594f" d="M 17.535156 23.914062 C 17.523438 23.867188 17.515625 23.8125 17.515625 23.773438 C 17.519531 23.730469 17.523438 23.699219 17.539062 23.683594 L 17.550781 23.664062 L 17.554688 23.710938 C 17.558594 23.746094 17.558594 23.773438 17.5625 23.804688 C 17.566406 23.839844 17.574219 23.875 17.582031 23.910156 C 17.589844 23.941406 17.601562 23.976562 17.613281 24.015625 C 17.625 24.050781 17.640625 24.085938 17.65625 24.125 L 17.667969 24.15625 L 17.644531 24.140625 C 17.625 24.121094 17.605469 24.09375 17.582031 24.050781 C 17.5625 24.011719 17.546875 23.964844 17.535156 23.914062 " fill-opacity="1" fill-rule="nonzero"/><path fill="#66534d" d="M 15.613281 22.261719 C 15.585938 22.261719 15.570312 22.203125 15.570312 22.203125 C 15.675781 22.214844 15.789062 22.105469 15.789062 22.105469 C 15.71875 22.121094 15.679688 22.101562 15.679688 22.101562 C 15.804688 22.082031 15.992188 21.882812 16.027344 21.84375 C 16.054688 21.792969 16.089844 21.738281 16.132812 21.667969 C 16.320312 21.378906 16.996094 21.496094 17.074219 21.519531 C 17.335938 21.585938 17.8125 21.765625 17.832031 22.113281 C 17.835938 22.191406 17.839844 22.253906 17.839844 22.3125 C 17.84375 22.335938 17.914062 22.628906 18.019531 22.710938 C 18.019531 22.710938 17.976562 22.710938 17.921875 22.664062 C 17.921875 22.664062 17.96875 22.816406 18.066406 22.855469 C 18.066406 22.855469 18.023438 22.894531 18 22.886719 L 18 22.890625 C 18.011719 22.910156 18.101562 23.050781 18.046875 23.171875 C 18.046875 23.171875 18.035156 23.082031 18.003906 23.058594 C 18.003906 23.058594 17.957031 23.316406 17.867188 23.363281 C 17.867188 23.363281 17.890625 23.296875 17.890625 23.242188 C 17.742188 23.449219 17.453125 23.613281 16.976562 23.402344 C 16.882812 23.363281 16.738281 23.21875 16.640625 23.195312 C 16.476562 23.148438 16.355469 23.222656 16.253906 23.214844 C 15.734375 23.164062 15.558594 22.878906 15.539062 22.625 C 15.511719 22.667969 15.496094 22.742188 15.496094 22.742188 C 15.441406 22.660156 15.523438 22.410156 15.523438 22.410156 C 15.488281 22.414062 15.433594 22.488281 15.433594 22.488281 C 15.445312 22.347656 15.613281 22.261719 15.613281 22.261719 " fill-opacity="1" fill-rule="nonzero"/><path fill="#1e1612" d="M 16.191406 22.160156 C 16.164062 22.1875 16.144531 22.222656 16.136719 22.261719 C 16.132812 22.28125 16.132812 22.300781 16.132812 22.324219 C 16.136719 22.335938 16.136719 22.34375 16.144531 22.359375 L 16.160156 22.375 L 16.171875 22.378906 L 16.1875 22.382812 C 16.230469 22.394531 16.277344 22.382812 16.308594 22.359375 C 16.34375 22.332031 16.359375 22.292969 16.363281 22.257812 C 16.339844 22.285156 16.3125 22.304688 16.285156 22.320312 C 16.257812 22.332031 16.226562 22.332031 16.199219 22.324219 C 16.191406 22.34375 16.183594 22.296875 16.183594 22.265625 C 16.183594 22.234375 16.183594 22.199219 16.191406 22.160156 " fill-opacity="1" fill-rule="nonzero"/><path fill="#1e1612" d="M 17.542969 22.515625 C 17.53125 22.550781 17.515625 22.582031 17.5 22.609375 C 17.484375 22.636719 17.457031 22.671875 17.457031 22.65625 C 17.429688 22.648438 17.402344 22.628906 17.386719 22.605469 C 17.367188 22.582031 17.355469 22.550781 17.347656 22.511719 C 17.332031 22.546875 17.328125 22.589844 17.34375 22.628906 C 17.363281 22.667969 17.398438 22.699219 17.4375 22.710938 C 17.445312 22.714844 17.449219 22.714844 17.457031 22.714844 L 17.464844 22.714844 L 17.488281 22.710938 C 17.503906 22.699219 17.507812 22.691406 17.515625 22.683594 C 17.527344 22.667969 17.535156 22.648438 17.542969 22.628906 C 17.554688 22.59375 17.554688 22.550781 17.542969 22.515625 " fill-opacity="1" fill-rule="nonzero"/><path fill="#ffffff" d="M 15.667969 22.558594 C 15.792969 22.515625 16.097656 22.828125 16.566406 22.585938 L 16.78125 22.640625 L 16.792969 22.644531 L 17.007812 22.703125 C 17.300781 23.144531 17.722656 23.019531 17.808594 23.117188 C 17.929688 23.257812 17.5 23.660156 17.199219 23.582031 C 17.160156 23.574219 16.960938 23.53125 16.816406 23.410156 C 16.765625 23.371094 16.71875 23.277344 16.636719 23.253906 L 16.625 23.253906 L 16.625 23.25 C 16.539062 23.230469 16.453125 23.28125 16.390625 23.300781 C 16.289062 23.332031 16.011719 23.273438 15.972656 23.261719 C 15.671875 23.183594 15.492188 22.621094 15.667969 22.558594 " fill-opacity="1" fill-rule="nonzero"/><path fill="#312621" d="M 16.382812 23.226562 C 16.4375 23.238281 16.492188 23.21875 16.53125 23.203125 C 16.546875 23.199219 16.554688 23.195312 16.5625 23.191406 C 16.609375 23.179688 16.636719 23.195312 16.636719 23.195312 L 16.652344 23.195312 L 16.660156 23.183594 L 16.75 22.839844 C 16.753906 22.832031 16.746094 22.824219 16.738281 22.820312 C 16.730469 22.816406 16.71875 22.824219 16.71875 22.832031 L 16.632812 23.160156 C 16.617188 23.152344 16.589844 23.152344 16.554688 23.160156 C 16.546875 23.160156 16.535156 23.164062 16.519531 23.171875 C 16.480469 23.1875 16.421875 23.210938 16.375 23.1875 C 16.339844 23.171875 16.316406 23.132812 16.304688 23.074219 C 16.300781 23.066406 16.292969 23.0625 16.28125 23.0625 C 16.273438 23.066406 16.269531 23.074219 16.269531 23.082031 C 16.289062 23.152344 16.316406 23.195312 16.359375 23.214844 C 16.367188 23.222656 16.375 23.222656 16.382812 23.226562 " fill-opacity="1" fill-rule="nonzero"/><path fill="#312621" d="M 16.851562 23.347656 C 16.859375 23.351562 16.867188 23.351562 16.875 23.351562 C 16.921875 23.355469 16.96875 23.328125 17.015625 23.277344 L 17.015625 23.253906 L 16.992188 23.253906 C 16.953125 23.296875 16.914062 23.320312 16.878906 23.316406 C 16.824219 23.316406 16.785156 23.265625 16.757812 23.234375 C 16.75 23.222656 16.742188 23.210938 16.734375 23.207031 C 16.707031 23.183594 16.683594 23.171875 16.664062 23.167969 L 16.75 22.839844 C 16.753906 22.832031 16.746094 22.824219 16.738281 22.820312 C 16.730469 22.816406 16.71875 22.824219 16.71875 22.832031 L 16.628906 23.175781 L 16.632812 23.191406 L 16.644531 23.195312 C 16.644531 23.199219 16.675781 23.199219 16.710938 23.230469 C 16.714844 23.234375 16.722656 23.246094 16.730469 23.253906 C 16.757812 23.285156 16.796875 23.335938 16.851562 23.347656 " fill-opacity="1" fill-rule="nonzero"/><path fill="#f68a7e" d="M 17.011719 22.714844 C 16.972656 22.828125 16.804688 22.863281 16.734375 22.847656 C 16.644531 22.824219 16.535156 22.703125 16.554688 22.585938 C 16.554688 22.585938 16.691406 22.53125 16.828125 22.566406 C 16.941406 22.597656 17.011719 22.714844 17.011719 22.714844 " fill-opacity="1" fill-rule="nonzero"/><path fill="#66534d" d="M 16.207031 21.945312 C 16.207031 21.945312 16.355469 21.164062 15.882812 21.222656 C 15.804688 21.234375 15.691406 21.570312 15.847656 21.738281 C 16.007812 21.90625 16.128906 21.90625 16.148438 21.964844 C 16.148438 21.964844 16.203125 22.007812 16.207031 21.945312 " fill-opacity="1" fill-rule="nonzero"/><path fill="#f35c73" d="M 15.828125 21.273438 C 15.902344 21.296875 15.984375 21.410156 16.027344 21.554688 C 16.066406 21.683594 16.0625 21.808594 16.027344 21.878906 C 15.976562 21.851562 15.886719 21.796875 15.820312 21.726562 C 15.695312 21.59375 15.765625 21.375 15.828125 21.273438 " fill-opacity="1" fill-rule="nonzero"/><path fill="#66534d" d="M 17.632812 22.316406 C 17.632812 22.316406 17.886719 21.5625 18.269531 21.847656 C 18.332031 21.894531 18.269531 22.242188 18.046875 22.3125 C 17.828125 22.378906 17.722656 22.324219 17.675781 22.363281 C 17.675781 22.363281 17.609375 22.375 17.632812 22.316406 " fill-opacity="1" fill-rule="nonzero"/><path fill="#f35c73" d="M 18.292969 21.917969 C 18.214844 21.902344 18.089844 21.957031 17.980469 22.066406 C 17.882812 22.160156 17.828125 22.269531 17.824219 22.347656 C 17.882812 22.347656 17.984375 22.34375 18.078125 22.316406 C 18.25 22.261719 18.296875 22.035156 18.292969 21.917969 " fill-opacity="1" fill-rule="nonzero"/><path fill="#8c3d0b" d="M 23.535156 18.890625 L 23.535156 18.886719 L 23.425781 18.621094 C 23.421875 18.609375 23.414062 18.597656 23.402344 18.589844 C 23.367188 18.550781 23.300781 18.550781 23.261719 18.589844 C 23.226562 18.628906 23.226562 18.691406 23.261719 18.730469 L 23.417969 18.882812 C 23.335938 18.898438 23.257812 18.921875 23.179688 18.949219 C 23.09375 18.976562 23.003906 19.007812 22.921875 19.042969 L 22.90625 19.035156 L 22.890625 19.035156 C 22.855469 19.027344 22.820312 19.035156 22.785156 19.039062 C 22.75 19.042969 22.714844 19.046875 22.679688 19.054688 L 22.671875 19.054688 L 22.664062 19.058594 L 22.480469 19.191406 L 22.476562 19.214844 C 22.480469 19.222656 22.488281 19.222656 22.496094 19.21875 L 22.6875 19.121094 C 22.71875 19.128906 22.753906 19.132812 22.785156 19.136719 C 22.796875 19.136719 22.8125 19.136719 22.824219 19.140625 L 22.742188 19.28125 C 22.734375 19.292969 22.738281 19.308594 22.75 19.316406 C 22.761719 19.324219 22.777344 19.320312 22.785156 19.308594 L 22.882812 19.15625 L 23.089844 19.359375 C 23.097656 19.367188 23.109375 19.367188 23.117188 19.363281 C 23.125 19.359375 23.125 19.347656 23.121094 19.335938 L 22.964844 19.105469 C 23.046875 19.089844 23.128906 19.070312 23.210938 19.050781 C 23.3125 19.023438 23.414062 18.992188 23.511719 18.949219 C 23.535156 18.9375 23.546875 18.914062 23.535156 18.890625 " fill-opacity="1" fill-rule="nonzero"/><path fill="#8c3d0b" d="M 22.894531 18.640625 L 22.890625 18.636719 L 22.78125 18.371094 C 22.777344 18.359375 22.769531 18.347656 22.761719 18.339844 C 22.722656 18.300781 22.660156 18.300781 22.621094 18.339844 C 22.582031 18.378906 22.582031 18.441406 22.621094 18.480469 L 22.773438 18.632812 C 22.695312 18.652344 22.613281 18.675781 22.539062 18.699219 C 22.449219 18.726562 22.363281 18.757812 22.277344 18.792969 L 22.261719 18.789062 L 22.25 18.785156 C 22.214844 18.78125 22.179688 18.789062 22.144531 18.789062 C 22.109375 18.796875 22.074219 18.800781 22.039062 18.804688 L 22.027344 18.808594 L 22.019531 18.8125 L 21.839844 18.945312 L 21.832031 18.964844 C 21.835938 18.972656 21.847656 18.976562 21.855469 18.972656 L 22.042969 18.875 C 22.078125 18.878906 22.109375 18.882812 22.144531 18.886719 C 22.15625 18.886719 22.167969 18.890625 22.183594 18.890625 L 22.097656 19.03125 C 22.09375 19.042969 22.09375 19.058594 22.105469 19.066406 C 22.121094 19.074219 22.136719 19.070312 22.144531 19.058594 L 22.242188 18.90625 L 22.449219 19.113281 C 22.457031 19.117188 22.464844 19.121094 22.472656 19.113281 C 22.480469 19.109375 22.484375 19.097656 22.476562 19.089844 L 22.324219 18.859375 C 22.40625 18.84375 22.488281 18.824219 22.566406 18.800781 C 22.667969 18.773438 22.769531 18.742188 22.871094 18.699219 C 22.890625 18.691406 22.902344 18.664062 22.894531 18.640625 " fill-opacity="1" fill-rule="nonzero"/><path fill="#fbc308" d="M 22.058594 15.109375 C 22.394531 15.109375 22.988281 15.269531 23.164062 16.132812 L 23.449219 16.96875 C 23.449219 16.96875 25.398438 20.074219 25.433594 20.988281 C 25.433594 20.988281 24.960938 20.472656 24.648438 20.03125 C 23.777344 18.785156 22.589844 18.925781 22.226562 18.359375 C 21.765625 17.636719 21.867188 16.953125 21.867188 16.621094 C 21.867188 16.289062 21.542969 15.984375 21.542969 15.675781 C 21.542969 15.339844 21.761719 15.109375 22.058594 15.109375 " fill-opacity="1" fill-rule="nonzero"/><path fill="#d45f13" d="M 24.675781 19.003906 C 24.675781 19.003906 24.941406 19.585938 25.351562 20.453125 C 25.714844 21.21875 25.878906 22.5 25.878906 22.5 C 25.878906 22.5 25.691406 21.800781 24.882812 20.378906 C 24.476562 19.671875 23.78125 19.171875 23.539062 18.480469 L 24.675781 19.003906 " fill-opacity="1" fill-rule="nonzero"/><path fill="#f79011" d="M 23.261719 16.472656 C 23.261719 16.472656 24.019531 17.445312 24.222656 17.804688 C 24.53125 18.347656 24.984375 19.394531 24.984375 19.394531 C 24.984375 19.394531 24.207031 19.230469 23.539062 18.582031 C 23.148438 18.203125 21.800781 16.90625 23.261719 16.472656 " fill-opacity="1" fill-rule="nonzero"/><path fill="#1a1514" d="M 21.679688 15.648438 C 21.679688 15.648438 21.597656 15.886719 21.417969 15.746094 C 21.417969 15.746094 21.464844 15.578125 21.679688 15.648438 " fill-opacity="1" fill-rule="nonzero"/><path fill="#302727" d="M 21.824219 15.535156 L 21.632812 15.347656 C 21.632812 15.347656 21.328125 15.46875 21.390625 15.824219 C 21.390625 15.824219 21.421875 15.6875 21.542969 15.675781 C 21.667969 15.664062 21.773438 15.707031 21.824219 15.535156 " fill-opacity="1" fill-rule="nonzero"/><path fill="#ffffff" d="M 22.183594 15.460938 C 22.183594 15.546875 22.113281 15.617188 22.027344 15.617188 C 21.941406 15.617188 21.871094 15.546875 21.871094 15.460938 C 21.871094 15.375 21.941406 15.304688 22.027344 15.304688 C 22.113281 15.304688 22.183594 15.375 22.183594 15.460938 " fill-opacity="1" fill-rule="nonzero"/><path fill="#302727" d="M 22.089844 15.460938 C 22.089844 15.507812 22.050781 15.546875 22.003906 15.546875 C 21.957031 15.546875 21.917969 15.507812 21.917969 15.460938 C 21.917969 15.414062 21.957031 15.375 22.003906 15.375 C 22.050781 15.375 22.089844 15.414062 22.089844 15.460938 " fill-opacity="1" fill-rule="nonzero"/></svg>