<svg xmlns="http://www.w3.org/2000/svg" xmlns:xlink="http://www.w3.org/1999/xlink" width="500" zoomAndPan="magnify" viewBox="0 0 375 374.999991" height="500" preserveAspectRatio="xMidYMid meet" version="1.0"><defs><clipPath id="3a4deb6ecd"><path d="M 0.800781 0.121094 L 282.320312 0.121094 L 282.320312 183 L 0.800781 183 Z M 0.800781 0.121094 " clip-rule="nonzero"/></clipPath><clipPath id="ada7e5393f"><rect x="0" width="283" y="0" height="183"/></clipPath></defs><g transform="matrix(1, 0, 0, 1, 46, 117)"><g clip-path="url(#ada7e5393f)"><g clip-path="url(#3a4deb6ecd)"><path fill="#ffffff" d="M 141.5 0.1875 C 218.84375 0.1875 282.125 31.125 282.125 70.5 C 282.125 101.4375 241.34375 128.15625 183.6875 138 L 183.6875 183 L 127.4375 126.75 L 183.6875 70.5 L 183.6875 108.46875 C 228.6875 100.03125 254 81.75 254 70.5 C 254 55.03125 211.8125 28.3125 141.5 28.3125 C 71.1875 28.3125 29 55.03125 29 70.5 C 29 80.34375 50.09375 97.21875 85.25 105.65625 L 85.25 135.1875 C 36.03125 123.9375 0.875 100.03125 0.875 70.5 C 0.875 31.125 64.15625 0.1875 141.5 0.1875 " fill-opacity="1" fill-rule="nonzero"/></g></g></g></svg>