<svg xmlns="http://www.w3.org/2000/svg" xmlns:xlink="http://www.w3.org/1999/xlink" width="500" zoomAndPan="magnify" viewBox="0 0 375 374.999991" height="500" preserveAspectRatio="xMidYMid meet" version="1.0"><path fill="#ffffff" d="M 187.5 117.1875 C 110.15625 117.1875 46.875 148.125 46.875 187.5 C 46.875 218.4375 87.65625 245.15625 145.3125 255 L 145.3125 300 L 201.5625 243.75 L 145.3125 187.5 L 145.3125 225.46875 C 100.3125 217.03125 75 198.75 75 187.5 C 75 172.03125 117.1875 145.3125 187.5 145.3125 C 257.8125 145.3125 300 172.03125 300 187.5 C 300 197.34375 278.90625 214.21875 243.75 222.65625 L 243.75 252.1875 C 292.96875 240.9375 328.125 217.03125 328.125 187.5 C 328.125 148.125 264.84375 117.1875 187.5 117.1875 " fill-opacity="1" fill-rule="nonzero"/></svg>