<svg xmlns="http://www.w3.org/2000/svg" xmlns:xlink="http://www.w3.org/1999/xlink" width="40" zoomAndPan="magnify" viewBox="0 0 30 30.000001" height="40" preserveAspectRatio="xMidYMid meet" version="1.0"><path fill="#ffffff" d="M 15 3.628906 C 14.175781 3.628906 13.363281 3.71875 12.5625 3.902344 C 11.757812 4.085938 10.988281 4.359375 10.246094 4.71875 C 9.507812 5.078125 8.816406 5.515625 8.175781 6.03125 C 7.53125 6.546875 6.957031 7.128906 6.449219 7.777344 L 9.039062 7.777344 C 9.253906 7.777344 9.4375 7.851562 9.589844 8.003906 C 9.738281 8.15625 9.816406 8.339844 9.816406 8.554688 C 9.816406 8.769531 9.738281 8.953125 9.589844 9.105469 C 9.4375 9.257812 9.253906 9.332031 9.039062 9.332031 L 4.890625 9.332031 C 4.675781 9.332031 4.492188 9.257812 4.339844 9.105469 C 4.1875 8.953125 4.113281 8.769531 4.113281 8.554688 L 4.113281 4.40625 C 4.113281 4.191406 4.1875 4.007812 4.339844 3.855469 C 4.492188 3.703125 4.675781 3.628906 4.890625 3.628906 C 5.105469 3.628906 5.289062 3.703125 5.441406 3.855469 C 5.59375 4.007812 5.667969 4.191406 5.667969 4.40625 L 5.667969 6.285156 C 6.847656 4.945312 8.25 3.90625 9.878906 3.171875 C 11.507812 2.4375 13.214844 2.070312 15 2.074219 C 21.871094 2.074219 27.441406 7.644531 27.441406 14.515625 C 27.441406 21.386719 21.871094 26.957031 15 26.957031 C 8.128906 26.957031 2.558594 21.386719 2.558594 14.515625 C 2.558594 14.03125 2.585938 13.554688 2.636719 13.085938 C 2.664062 12.898438 2.746094 12.746094 2.886719 12.621094 C 3.027344 12.5 3.191406 12.441406 3.378906 12.441406 C 3.863281 12.441406 4.222656 12.882812 4.171875 13.363281 C 4.132812 13.742188 4.113281 14.125 4.113281 14.515625 C 4.113281 20.527344 8.988281 25.402344 15 25.402344 C 21.011719 25.402344 25.886719 20.527344 25.886719 14.515625 C 25.886719 8.503906 21.011719 3.628906 15 3.628906 M 11.890625 10.890625 C 11.890625 10.613281 11.960938 10.351562 12.097656 10.109375 C 12.238281 9.871094 12.429688 9.679688 12.667969 9.542969 C 12.910156 9.402344 13.171875 9.335938 13.449219 9.335938 C 13.726562 9.335938 13.988281 9.40625 14.226562 9.546875 L 20.449219 13.171875 C 20.566406 13.238281 20.675781 13.320312 20.769531 13.417969 C 20.867188 13.515625 20.949219 13.621094 21.015625 13.738281 C 21.082031 13.855469 21.136719 13.980469 21.171875 14.113281 C 21.207031 14.246094 21.222656 14.378906 21.222656 14.515625 C 21.222656 14.652344 21.207031 14.785156 21.171875 14.914062 C 21.136719 15.046875 21.082031 15.171875 21.015625 15.289062 C 20.949219 15.40625 20.867188 15.515625 20.769531 15.613281 C 20.675781 15.707031 20.566406 15.789062 20.449219 15.859375 L 14.226562 19.484375 C 13.988281 19.621094 13.726562 19.691406 13.449219 19.695312 C 13.171875 19.695312 12.910156 19.625 12.667969 19.488281 C 12.429688 19.347656 12.238281 19.160156 12.097656 18.917969 C 11.960938 18.675781 11.890625 18.417969 11.890625 18.140625 Z M 11.890625 10.890625 " fill-opacity="1" fill-rule="nonzero"/></svg>