<svg xmlns="http://www.w3.org/2000/svg" xmlns:xlink="http://www.w3.org/1999/xlink" width="40" zoomAndPan="magnify" viewBox="0 0 30 30.000001" height="40" preserveAspectRatio="xMidYMid meet" version="1.0"><defs><clipPath id="97f5c52af6"><path d="M 3.707031 7.808594 L 22.285156 7.808594 L 22.285156 28.253906 L 3.707031 28.253906 Z M 3.707031 7.808594 " clip-rule="nonzero"/></clipPath><clipPath id="780834edf5"><path d="M 1.367188 3.578125 L 21 3.578125 L 21 26 L 1.367188 26 Z M 1.367188 3.578125 " clip-rule="nonzero"/></clipPath></defs><g clip-path="url(#97f5c52af6)"><path fill="#ffffff" d="M 3.832031 26.695312 L 3.832031 9.667969 C 3.832031 8.242188 5.375 7.347656 6.613281 8.0625 L 21.359375 16.578125 C 22.59375 17.289062 22.59375 19.074219 21.359375 19.789062 L 6.613281 28.300781 C 5.375 29.015625 3.832031 28.125 3.832031 26.695312 " fill-opacity="1" fill-rule="nonzero"/></g><g clip-path="url(#780834edf5)"><path fill="#ffffff" d="M 3.710938 4.6875 C 3.472656 4.6875 3.238281 4.75 3.027344 4.875 C 2.597656 5.121094 2.34375 5.5625 2.34375 6.058594 L 2.34375 23.085938 C 2.34375 23.578125 2.597656 24.023438 3.027344 24.269531 C 3.453125 24.515625 3.964844 24.515625 4.394531 24.269531 L 19.140625 15.757812 C 19.566406 15.507812 19.824219 15.066406 19.824219 14.570312 C 19.824219 14.078125 19.566406 13.636719 19.140625 13.386719 L 4.394531 4.875 C 4.179688 4.75 3.945312 4.6875 3.710938 4.6875 Z M 3.710938 25.429688 C 3.308594 25.429688 2.90625 25.324219 2.539062 25.113281 C 1.804688 24.691406 1.367188 23.933594 1.367188 23.085938 L 1.367188 6.058594 C 1.367188 5.210938 1.804688 4.453125 2.539062 4.03125 C 3.273438 3.605469 4.148438 3.605469 4.878906 4.03125 L 19.625 12.542969 C 20.359375 12.964844 20.796875 13.726562 20.796875 14.570312 C 20.796875 15.417969 20.359375 16.175781 19.625 16.601562 L 4.878906 25.113281 C 4.515625 25.324219 4.113281 25.429688 3.710938 25.429688 " fill-opacity="1" fill-rule="nonzero"/></g><path fill="#ffffff" d="M 28.246094 8.15625 L 24.769531 8.15625 L 24.769531 11.632812 C 24.769531 11.824219 24.703125 11.988281 24.566406 12.125 C 24.429688 12.261719 24.265625 12.328125 24.074219 12.328125 C 23.882812 12.328125 23.71875 12.261719 23.582031 12.125 C 23.445312 11.988281 23.378906 11.824219 23.378906 11.632812 L 23.378906 8.15625 L 19.902344 8.15625 C 19.707031 8.15625 19.542969 8.085938 19.410156 7.953125 C 19.273438 7.816406 19.207031 7.652344 19.207031 7.460938 C 19.207031 7.265625 19.273438 7.105469 19.410156 6.96875 C 19.542969 6.832031 19.707031 6.765625 19.902344 6.765625 L 23.378906 6.765625 L 23.378906 3.285156 C 23.378906 3.09375 23.445312 2.929688 23.582031 2.792969 C 23.71875 2.660156 23.882812 2.589844 24.074219 2.589844 C 24.265625 2.589844 24.429688 2.660156 24.566406 2.792969 C 24.703125 2.929688 24.769531 3.09375 24.769531 3.285156 L 24.769531 6.765625 L 28.246094 6.765625 C 28.441406 6.765625 28.601562 6.832031 28.738281 6.96875 C 28.875 7.105469 28.941406 7.265625 28.941406 7.460938 C 28.941406 7.652344 28.875 7.816406 28.738281 7.953125 C 28.601562 8.085938 28.441406 8.15625 28.246094 8.15625 " fill-opacity="1" fill-rule="nonzero"/></svg>