<svg xmlns="http://www.w3.org/2000/svg" xmlns:xlink="http://www.w3.org/1999/xlink" width="40" zoomAndPan="magnify" viewBox="0 0 30 30.000001" height="40" preserveAspectRatio="xMidYMid meet" version="1.0"><path fill="#ffffff" d="M 4.675781 4.191406 C 2.902344 5.964844 2.902344 8.8125 2.902344 14.515625 C 2.902344 20.21875 2.902344 23.070312 4.675781 24.839844 C 6.449219 26.613281 9.296875 26.613281 15 26.613281 C 20.703125 26.613281 23.554688 26.613281 25.324219 24.839844 C 27.097656 23.070312 27.097656 20.21875 27.097656 14.515625 C 27.097656 8.8125 27.097656 5.960938 25.324219 4.191406 C 23.554688 2.417969 20.703125 2.417969 15 2.417969 C 9.296875 2.417969 6.445312 2.417969 4.675781 4.191406 M 19.269531 10.246094 C 19.445312 10.421875 19.535156 10.636719 19.535156 10.886719 C 19.535156 11.136719 19.445312 11.351562 19.269531 11.527344 L 12.011719 18.785156 C 11.832031 18.953125 11.621094 19.035156 11.378906 19.03125 C 11.132812 19.023438 10.925781 18.9375 10.753906 18.765625 C 10.578125 18.589844 10.492188 18.382812 10.488281 18.136719 C 10.480469 17.894531 10.5625 17.683594 10.730469 17.503906 L 17.988281 10.246094 C 18.164062 10.070312 18.378906 9.980469 18.628906 9.980469 C 18.878906 9.980469 19.09375 10.070312 19.269531 10.246094 M 13.183594 11.492188 C 13.183594 11.652344 13.15625 11.808594 13.09375 11.953125 C 13.03125 12.101562 12.945312 12.234375 12.832031 12.347656 C 12.71875 12.460938 12.585938 12.546875 12.4375 12.609375 C 12.289062 12.671875 12.136719 12.703125 11.976562 12.703125 C 11.816406 12.703125 11.660156 12.671875 11.511719 12.609375 C 11.363281 12.546875 11.234375 12.460938 11.121094 12.347656 C 11.007812 12.234375 10.917969 12.101562 10.859375 11.953125 C 10.796875 11.808594 10.765625 11.652344 10.765625 11.492188 C 10.765625 11.332031 10.796875 11.175781 10.859375 11.027344 C 10.917969 10.878906 11.007812 10.75 11.121094 10.636719 C 11.234375 10.523438 11.363281 10.4375 11.511719 10.375 C 11.660156 10.3125 11.816406 10.28125 11.976562 10.28125 C 12.136719 10.28125 12.289062 10.3125 12.4375 10.375 C 12.585938 10.4375 12.71875 10.523438 12.832031 10.636719 C 12.945312 10.75 13.03125 10.878906 13.09375 11.027344 C 13.15625 11.175781 13.183594 11.332031 13.183594 11.492188 M 18.023438 18.75 C 18.183594 18.75 18.339844 18.71875 18.488281 18.65625 C 18.636719 18.597656 18.765625 18.507812 18.878906 18.394531 C 18.992188 18.28125 19.082031 18.152344 19.140625 18.003906 C 19.203125 17.855469 19.234375 17.699219 19.234375 17.539062 C 19.234375 17.378906 19.203125 17.226562 19.140625 17.078125 C 19.082031 16.929688 18.992188 16.796875 18.878906 16.683594 C 18.765625 16.570312 18.636719 16.484375 18.488281 16.421875 C 18.339844 16.363281 18.183594 16.332031 18.023438 16.332031 C 17.863281 16.332031 17.710938 16.363281 17.5625 16.421875 C 17.414062 16.484375 17.28125 16.570312 17.167969 16.683594 C 17.054688 16.796875 16.96875 16.929688 16.90625 17.078125 C 16.84375 17.226562 16.816406 17.378906 16.816406 17.539062 C 16.816406 17.699219 16.84375 17.855469 16.90625 18.003906 C 16.96875 18.152344 17.054688 18.28125 17.167969 18.394531 C 17.28125 18.507812 17.414062 18.597656 17.5625 18.65625 C 17.710938 18.71875 17.863281 18.75 18.023438 18.75 " fill-opacity="1" fill-rule="evenodd"/></svg>