<svg xmlns="http://www.w3.org/2000/svg" xmlns:xlink="http://www.w3.org/1999/xlink" width="40" zoomAndPan="magnify" viewBox="0 0 30 30.000001" height="40" preserveAspectRatio="xMidYMid meet" version="1.0"><path fill="#ffffff" d="M 15 2.417969 C 8.308594 2.417969 2.902344 7.863281 2.902344 14.515625 C 2.902344 15.308594 2.980469 16.097656 3.136719 16.875 C 3.289062 17.65625 3.519531 18.410156 3.824219 19.144531 C 4.128906 19.878906 4.5 20.578125 4.941406 21.238281 C 5.382812 21.898438 5.882812 22.507812 6.445312 23.070312 C 7.007812 23.632812 7.617188 24.132812 8.28125 24.574219 C 8.941406 25.015625 9.636719 25.386719 10.371094 25.691406 C 11.105469 25.996094 11.859375 26.226562 12.640625 26.378906 C 13.417969 26.535156 14.207031 26.613281 15 26.613281 C 15.792969 26.613281 16.582031 26.535156 17.359375 26.378906 C 18.140625 26.226562 18.894531 25.996094 19.628906 25.691406 C 20.363281 25.386719 21.058594 25.015625 21.71875 24.574219 C 22.382812 24.132812 22.992188 23.632812 23.554688 23.070312 C 24.117188 22.507812 24.617188 21.898438 25.058594 21.238281 C 25.5 20.578125 25.871094 19.878906 26.175781 19.144531 C 26.480469 18.410156 26.710938 17.65625 26.863281 16.875 C 27.019531 16.097656 27.097656 15.308594 27.097656 14.515625 C 27.097656 13.722656 27.019531 12.933594 26.863281 12.15625 C 26.710938 11.378906 26.480469 10.621094 26.175781 9.886719 C 25.871094 9.152344 25.5 8.457031 25.058594 7.796875 C 24.617188 7.136719 24.117188 6.523438 23.554688 5.960938 C 22.992188 5.402344 22.382812 4.898438 21.71875 4.457031 C 21.058594 4.015625 20.363281 3.644531 19.628906 3.339844 C 18.894531 3.035156 18.140625 2.808594 17.359375 2.652344 C 16.582031 2.496094 15.792969 2.417969 15 2.417969 M 19.234375 9.675781 C 19.472656 9.675781 19.707031 9.722656 19.929688 9.816406 C 20.152344 9.90625 20.347656 10.039062 20.515625 10.207031 C 20.6875 10.378906 20.816406 10.574219 20.910156 10.796875 C 21.003906 11.019531 21.046875 11.25 21.046875 11.492188 C 21.046875 11.734375 21.003906 11.964844 20.910156 12.1875 C 20.816406 12.410156 20.6875 12.605469 20.515625 12.773438 C 20.347656 12.945312 20.152344 13.078125 19.929688 13.167969 C 19.707031 13.261719 19.472656 13.304688 19.234375 13.304688 C 18.992188 13.304688 18.761719 13.261719 18.539062 13.167969 C 18.316406 13.078125 18.121094 12.945312 17.949219 12.773438 C 17.78125 12.605469 17.648438 12.410156 17.558594 12.1875 C 17.464844 11.964844 17.417969 11.734375 17.417969 11.492188 C 17.417969 11.25 17.464844 11.019531 17.558594 10.796875 C 17.648438 10.574219 17.78125 10.378906 17.949219 10.207031 C 18.121094 10.039062 18.316406 9.90625 18.539062 9.816406 C 18.761719 9.722656 18.992188 9.675781 19.234375 9.675781 M 10.765625 9.675781 C 11.007812 9.675781 11.238281 9.722656 11.460938 9.816406 C 11.683594 9.90625 11.878906 10.039062 12.050781 10.207031 C 12.21875 10.378906 12.351562 10.574219 12.441406 10.796875 C 12.535156 11.019531 12.582031 11.25 12.582031 11.492188 C 12.582031 11.734375 12.535156 11.964844 12.441406 12.1875 C 12.351562 12.410156 12.21875 12.605469 12.050781 12.773438 C 11.878906 12.945312 11.683594 13.078125 11.460938 13.167969 C 11.238281 13.261719 11.007812 13.304688 10.765625 13.304688 C 10.527344 13.304688 10.292969 13.261719 10.070312 13.167969 C 9.847656 13.078125 9.652344 12.945312 9.484375 12.773438 C 9.3125 12.605469 9.183594 12.410156 9.089844 12.1875 C 8.996094 11.964844 8.953125 11.734375 8.953125 11.492188 C 8.953125 11.25 8.996094 11.019531 9.089844 10.796875 C 9.183594 10.574219 9.3125 10.378906 9.484375 10.207031 C 9.652344 10.039062 9.847656 9.90625 10.070312 9.816406 C 10.292969 9.722656 10.527344 9.675781 10.765625 9.675781 M 15 21.167969 C 12.179688 21.167969 9.785156 19.402344 8.820312 16.933594 L 21.179688 16.933594 C 20.203125 19.402344 17.820312 21.167969 15 21.167969 " fill-opacity="1" fill-rule="nonzero"/></svg>