<svg xmlns="http://www.w3.org/2000/svg" xmlns:xlink="http://www.w3.org/1999/xlink" width="40" zoomAndPan="magnify" viewBox="0 0 30 30.000001" height="40" preserveAspectRatio="xMidYMid meet" version="1.0"><defs><clipPath id="97d97fb9fb"><path d="M 2.679688 23 L 27.355469 23 L 27.355469 29.03125 L 2.679688 29.03125 Z M 2.679688 23 " clip-rule="nonzero"/></clipPath><clipPath id="f5f4c9c40c"><path d="M 2.679688 20 L 27.355469 20 L 27.355469 26 L 2.679688 26 Z M 2.679688 20 " clip-rule="nonzero"/></clipPath><clipPath id="5070b4ef42"><path d="M 19.921875 5.269531 L 22 5.269531 L 22 7.359375 L 19.921875 7.359375 Z M 19.921875 5.269531 " clip-rule="nonzero"/></clipPath><clipPath id="95a289edf7"><path d="M 21.875 7.320312 C 20.796875 7.320312 19.925781 6.449219 19.925781 5.375 C 19.925781 6.449219 20.796875 7.320312 21.875 7.320312 M 21.878906 7.320312 C 21.878906 7.320312 21.882812 7.320312 21.882812 7.320312 C 21.882812 7.320312 21.878906 7.320312 21.878906 7.320312 M 21.882812 7.320312 C 21.882812 7.320312 21.886719 7.320312 21.886719 7.320312 C 21.886719 7.320312 21.882812 7.320312 21.882812 7.320312 M 21.886719 7.320312 C 21.886719 7.320312 21.886719 7.320312 21.890625 7.320312 C 21.886719 7.320312 21.886719 7.320312 21.886719 7.320312 M 21.890625 7.320312 C 21.890625 7.320312 21.890625 7.320312 21.894531 7.320312 C 21.890625 7.320312 21.890625 7.320312 21.890625 7.320312 M 21.894531 7.320312 L 21.894531 7.320312 M 21.894531 7.320312 C 21.898438 7.320312 21.898438 7.320312 21.898438 7.320312 C 21.898438 7.320312 21.898438 7.320312 21.894531 7.320312 M 21.898438 7.320312 C 21.898438 7.320312 21.902344 7.320312 21.902344 7.320312 C 21.902344 7.320312 21.898438 7.320312 21.898438 7.320312 M 21.902344 7.320312 C 21.902344 7.320312 21.90625 7.320312 21.90625 7.320312 C 21.90625 7.320312 21.902344 7.320312 21.902344 7.320312 M 21.90625 7.320312 L 21.90625 7.320312 M 21.910156 7.320312 L 21.910156 7.320312 M 21.914062 7.320312 L 21.914062 7.320312 M 21.914062 7.320312 C 21.914062 7.320312 21.917969 7.320312 21.917969 7.320312 C 21.917969 7.320312 21.914062 7.320312 21.914062 7.320312 M 21.917969 7.320312 C 21.917969 7.320312 21.917969 7.320312 21.921875 7.320312 C 21.917969 7.320312 21.917969 7.320312 21.917969 7.320312 M 21.921875 7.320312 L 21.921875 7.320312 M 21.925781 7.320312 L 21.925781 7.320312 M 21.929688 7.320312 L 21.929688 7.320312 M 21.933594 7.320312 L 21.933594 7.320312 M 21.933594 7.320312 L 21.933594 7.320312 M 21.9375 7.320312 L 21.9375 7.320312 M 21.941406 7.320312 L 21.941406 7.320312 M 21.945312 7.320312 L 21.945312 7.320312 M 19.925781 5.375 C 19.925781 5.375 19.925781 5.371094 19.925781 5.371094 C 19.925781 5.371094 19.925781 5.375 19.925781 5.375 M 19.925781 5.371094 C 19.925781 5.371094 19.925781 5.367188 19.925781 5.367188 C 19.925781 5.367188 19.925781 5.371094 19.925781 5.371094 M 19.925781 5.367188 L 19.925781 5.367188 M 19.925781 5.363281 L 19.925781 5.363281 M 19.925781 5.363281 C 19.925781 5.359375 19.925781 5.359375 19.925781 5.359375 C 19.925781 5.359375 19.925781 5.359375 19.925781 5.363281 M 19.925781 5.359375 C 19.925781 5.355469 19.925781 5.355469 19.925781 5.355469 C 19.925781 5.355469 19.925781 5.355469 19.925781 5.359375 M 19.925781 5.355469 C 19.925781 5.355469 19.925781 5.351562 19.925781 5.351562 C 19.925781 5.351562 19.925781 5.355469 19.925781 5.355469 M 19.925781 5.351562 L 19.925781 5.351562 M 19.925781 5.347656 L 19.925781 5.347656 M 19.925781 5.347656 C 19.925781 5.34375 19.925781 5.34375 19.925781 5.34375 C 19.925781 5.34375 19.925781 5.34375 19.925781 5.347656 M 19.925781 5.34375 C 19.925781 5.339844 19.925781 5.339844 19.925781 5.339844 C 19.925781 5.339844 19.925781 5.339844 19.925781 5.34375 M 19.925781 5.339844 C 19.925781 5.339844 19.925781 5.335938 19.925781 5.335938 C 19.925781 5.335938 19.925781 5.339844 19.925781 5.339844 M 19.925781 5.335938 L 19.925781 5.335938 M 19.925781 5.332031 L 19.925781 5.332031 M 19.925781 5.328125 L 19.925781 5.328125 M 19.925781 5.324219 L 19.925781 5.324219 M 19.925781 5.324219 C 19.925781 5.320312 19.925781 5.320312 19.925781 5.320312 C 19.925781 5.320312 19.925781 5.320312 19.925781 5.324219 M 19.925781 5.320312 L 19.925781 5.320312 M 19.925781 5.316406 L 19.925781 5.316406 M 19.925781 5.304688 L 19.925781 5.304688 M 19.925781 5.300781 L 19.925781 5.300781 " clip-rule="nonzero"/></clipPath></defs><path fill="#c4ecfb" d="M 6.316406 5.972656 C 5.746094 6.984375 5.4375 8.375 6.335938 9.152344 C 6.65625 9.433594 7.089844 9.582031 7.394531 9.875 C 7.964844 10.414062 7.945312 11.308594 7.621094 12 C 7.292969 12.695312 6.71875 13.253906 6.234375 13.863281 C 5.433594 14.863281 4.871094 16.011719 4.433594 17.1875 C 3.828125 18.804688 3.453125 20.613281 4.125 22.203125 C 4.714844 23.605469 6.054688 24.644531 7.542969 25.234375 C 9.027344 25.824219 10.660156 26.007812 12.273438 26.105469 C 14.945312 26.261719 17.699219 26.171875 20.175781 25.234375 C 21.097656 24.886719 21.980469 24.414062 22.648438 23.734375 C 23.257812 23.113281 23.660156 22.347656 24.054688 21.589844 C 24.648438 20.453125 25.25 19.300781 25.503906 18.058594 C 25.761719 16.820312 25.632812 15.457031 24.863281 14.417969 C 24.667969 14.152344 24.429688 13.910156 24.304688 13.609375 C 24.105469 13.136719 24.210938 12.605469 24.359375 12.117188 C 24.75 10.828125 25.40625 9.617188 25.8125 8.328125 C 26.214844 7.042969 26.34375 5.601562 25.695312 4.402344 C 24.984375 3.085938 23.480469 2.316406 22.007812 1.777344 C 19.902344 1.003906 17.675781 0.535156 15.441406 0.203125 C 14.078125 0 12.859375 0.46875 11.5625 0.902344 C 10.480469 1.261719 8.609375 3.335938 9.15625 2.84375 L 6.316406 5.972656 " fill-opacity="1" fill-rule="nonzero"/><g clip-path="url(#97d97fb9fb)"><path fill="#7eaf33" d="M 27.328125 25.820312 C 27.328125 27.3125 23.9375 29.035156 15.011719 29.035156 C 6.632812 29.035156 2.699219 27.3125 2.699219 25.820312 C 2.699219 24.328125 8.210938 23.117188 15.011719 23.117188 C 21.816406 23.117188 27.328125 24.328125 27.328125 25.820312 " fill-opacity="1" fill-rule="nonzero"/></g><g clip-path="url(#f5f4c9c40c)"><path fill="#7eaf33" d="M 2.980469 25.046875 C 3.027344 24.742188 2.988281 24.429688 2.875 24.144531 C 3.109375 24.28125 3.339844 24.414062 3.574219 24.550781 C 3.5625 24.070312 3.578125 23.585938 3.625 23.109375 C 3.894531 23.230469 4.097656 23.484375 4.160156 23.773438 C 4.175781 23.351562 4.195312 22.929688 4.214844 22.507812 C 4.425781 22.816406 4.640625 23.125 4.855469 23.433594 C 4.972656 23.601562 5.101562 23.78125 5.296875 23.847656 C 5.488281 23.914062 5.753906 23.796875 5.753906 23.589844 C 5.976562 24.238281 6.992188 24.414062 7.414062 23.875 C 7.484375 23.789062 7.539062 23.6875 7.636719 23.632812 C 7.734375 23.578125 7.886719 23.605469 7.910156 23.714844 C 8.089844 22.917969 8.164062 22.09375 8.125 21.277344 C 8.4375 21.925781 8.691406 22.601562 8.878906 23.296875 C 8.832031 23.113281 8.863281 22.914062 8.960938 22.753906 C 9.003906 22.855469 9.042969 22.953125 9.085938 23.054688 C 9.148438 22.960938 9.207031 22.871094 9.269531 22.777344 C 9.359375 22.875 9.449219 22.972656 9.539062 23.070312 C 9.652344 22.351562 9.839844 21.648438 10.085938 20.96875 C 10.1875 21.859375 10.25 22.757812 10.277344 23.652344 C 10.292969 23.511719 10.355469 23.375 10.460938 23.277344 C 10.535156 23.359375 10.585938 23.464844 10.601562 23.578125 C 10.609375 23.46875 10.667969 23.363281 10.757812 23.296875 C 10.917969 23.4375 11.15625 23.488281 11.359375 23.421875 C 11.820312 23.273438 12.214844 22.933594 12.433594 22.503906 C 12.472656 22.746094 12.597656 22.972656 12.78125 23.136719 C 12.804688 22.957031 12.84375 22.757812 12.988281 22.648438 C 13.132812 22.539062 13.40625 22.628906 13.382812 22.808594 C 13.324219 22.667969 13.40625 22.480469 13.554688 22.449219 C 13.703125 22.414062 13.863281 22.570312 13.816406 22.714844 C 13.914062 22.453125 14.382812 22.5 14.429688 22.773438 C 14.839844 22.625 15.1875 22.3125 15.378906 21.921875 C 15.4375 22.148438 15.496094 22.375 15.554688 22.597656 C 15.570312 22.65625 15.585938 22.710938 15.628906 22.75 C 15.675781 22.792969 15.746094 22.800781 15.8125 22.808594 C 16.195312 22.839844 16.578125 22.875 16.960938 22.90625 C 17.175781 22.730469 17.386719 22.554688 17.601562 22.378906 C 17.597656 22.621094 17.769531 22.851562 18 22.914062 C 18.230469 22.976562 18.496094 22.863281 18.613281 22.65625 C 18.792969 22.796875 18.9375 22.980469 19.039062 23.183594 C 19.21875 23.03125 19.457031 22.867188 19.664062 22.96875 C 19.734375 23.003906 19.789062 23.066406 19.863281 23.089844 C 19.953125 23.125 20.054688 23.097656 20.152344 23.074219 C 20.261719 23.042969 20.371094 23.015625 20.46875 23.066406 C 20.601562 23.140625 20.617188 23.332031 20.734375 23.429688 C 20.96875 23.628906 21.289062 23.300781 21.394531 23.015625 C 21.539062 22.617188 21.628906 22.203125 21.65625 21.78125 C 22.066406 22.242188 22.257812 22.890625 22.160156 23.496094 C 22.238281 23.398438 22.316406 23.296875 22.390625 23.199219 C 22.4375 23.269531 22.484375 23.335938 22.527344 23.40625 C 22.871094 23.144531 23.148438 22.796875 23.320312 22.40625 C 23.367188 22.761719 23.410156 23.121094 23.453125 23.476562 C 23.46875 23.617188 23.496094 23.773438 23.613281 23.851562 C 23.730469 23.933594 23.941406 23.824219 23.886719 23.695312 C 23.972656 23.742188 24.058594 23.792969 24.144531 23.84375 C 24.355469 23.714844 24.570312 23.582031 24.785156 23.453125 C 24.859375 23.410156 24.941406 23.363281 25.03125 23.375 C 25.335938 23.425781 25.148438 24.019531 25.433594 24.148438 C 25.648438 23.976562 26.011719 24.035156 26.160156 24.269531 C 26.230469 24.027344 26.625 23.980469 26.753906 24.195312 C 26.847656 24.105469 26.941406 24.015625 27.035156 23.925781 C 27.152344 24.269531 27.25 24.707031 26.984375 24.957031 C 26.757812 25.164062 26.40625 25.117188 26.105469 25.066406 C 23.769531 24.648438 21.390625 24.679688 19.007812 24.714844 C 17.078125 24.742188 15.144531 24.769531 13.230469 24.554688 C 12.285156 24.449219 11.324219 24.285156 10.382812 24.425781 C 9.625 24.535156 8.902344 24.839844 8.136719 24.878906 C 7.671875 24.90625 7.195312 24.832031 6.71875 24.761719 C 5.917969 24.636719 5.128906 24.515625 4.417969 24.863281 C 4.039062 25.050781 3.644531 25.371094 3.246094 25.230469 C 3.128906 25.191406 3.0625 24.980469 3.183594 24.984375 L 2.980469 25.046875 " fill-opacity="1" fill-rule="nonzero"/></g><path fill="#709c2d" d="M 7.425781 26.726562 C 6.070312 26.726562 4.972656 26.265625 4.972656 25.695312 C 4.972656 25.257812 5.617188 24.882812 6.527344 24.730469 C 6.589844 24.742188 6.65625 24.75 6.71875 24.761719 C 7.128906 24.824219 7.539062 24.886719 7.945312 24.886719 C 8.007812 24.886719 8.074219 24.882812 8.136719 24.878906 C 8.324219 24.871094 8.511719 24.84375 8.699219 24.808594 C 9.40625 24.992188 9.882812 25.320312 9.882812 25.695312 C 9.882812 26.265625 8.78125 26.726562 7.425781 26.726562 " fill-opacity="1" fill-rule="nonzero"/><path fill="#709c2d" d="M 7.945312 24.886719 C 7.539062 24.886719 7.128906 24.824219 6.71875 24.761719 C 6.65625 24.75 6.589844 24.742188 6.527344 24.730469 C 6.804688 24.683594 7.109375 24.660156 7.425781 24.660156 C 7.890625 24.660156 8.328125 24.714844 8.699219 24.808594 C 8.511719 24.84375 8.324219 24.871094 8.136719 24.878906 C 8.074219 24.882812 8.007812 24.886719 7.945312 24.886719 " fill-opacity="1" fill-rule="nonzero"/><path fill="#709c2d" d="M 21.429688 26.300781 C 20.074219 26.300781 18.972656 25.964844 18.972656 25.550781 C 18.972656 25.140625 20.074219 24.804688 21.429688 24.804688 C 22.785156 24.804688 23.882812 25.140625 23.882812 25.550781 C 23.882812 25.964844 22.785156 26.300781 21.429688 26.300781 " fill-opacity="1" fill-rule="nonzero"/><path fill="#231f20" d="M 25.242188 12.007812 C 25.238281 12.105469 25.230469 12.207031 25.222656 12.304688 L 25.296875 12.3125 C 25.304688 12.210938 25.3125 12.113281 25.316406 12.011719 L 25.242188 12.007812 M 25.191406 12.601562 C 25.179688 12.699219 25.167969 12.796875 25.152344 12.894531 L 25.226562 12.90625 C 25.242188 12.808594 25.253906 12.707031 25.265625 12.609375 L 25.191406 12.601562 M 25.109375 13.191406 C 25.089844 13.289062 25.074219 13.386719 25.054688 13.480469 L 25.125 13.496094 C 25.144531 13.398438 25.164062 13.300781 25.179688 13.203125 L 25.109375 13.191406 M 24.988281 13.773438 C 24.96875 13.871094 24.945312 13.964844 24.917969 14.0625 L 24.992188 14.082031 C 25.015625 13.984375 25.039062 13.886719 25.0625 13.789062 L 24.988281 13.773438 M 24.839844 14.347656 C 24.8125 14.445312 24.78125 14.539062 24.75 14.632812 L 24.820312 14.65625 C 24.851562 14.5625 24.882812 14.464844 24.910156 14.371094 L 24.839844 14.347656 M 24.652344 14.914062 C 24.621094 15.007812 24.585938 15.101562 24.550781 15.195312 L 24.621094 15.222656 C 24.65625 15.128906 24.691406 15.035156 24.726562 14.941406 L 24.652344 14.914062 M 24.4375 15.472656 C 24.398438 15.5625 24.359375 15.652344 24.316406 15.742188 L 24.386719 15.773438 C 24.425781 15.683594 24.46875 15.59375 24.507812 15.5 L 24.4375 15.472656 M 24.1875 16.011719 C 24.144531 16.101562 24.097656 16.191406 24.054688 16.277344 L 24.117188 16.3125 C 24.164062 16.226562 24.210938 16.136719 24.257812 16.046875 L 24.1875 16.011719 M 23.910156 16.539062 C 23.859375 16.625 23.808594 16.710938 23.757812 16.796875 L 23.824219 16.835938 C 23.875 16.75 23.925781 16.664062 23.976562 16.578125 L 23.910156 16.539062 M 23.601562 17.050781 C 23.546875 17.132812 23.492188 17.214844 23.433594 17.296875 L 23.496094 17.339844 C 23.554688 17.257812 23.609375 17.175781 23.664062 17.089844 L 23.601562 17.050781 M 23.261719 17.539062 C 23.203125 17.621094 23.144531 17.699219 23.085938 17.777344 L 23.144531 17.824219 C 23.203125 17.746094 23.265625 17.664062 23.324219 17.585938 L 23.261719 17.539062 M 22.898438 18.011719 C 22.835938 18.089844 22.769531 18.164062 22.707031 18.238281 L 22.761719 18.289062 C 22.828125 18.214844 22.894531 18.136719 22.957031 18.058594 L 22.898438 18.011719 M 22.507812 18.460938 C 22.441406 18.535156 22.371094 18.605469 22.300781 18.675781 L 22.355469 18.730469 C 22.425781 18.660156 22.496094 18.585938 22.5625 18.511719 L 22.507812 18.460938 M 22.09375 18.886719 C 22.019531 18.957031 21.949219 19.023438 21.875 19.09375 L 21.925781 19.148438 C 22 19.078125 22.074219 19.011719 22.144531 18.941406 L 22.09375 18.886719 M 21.652344 19.289062 C 21.578125 19.355469 21.5 19.417969 21.425781 19.480469 L 21.472656 19.539062 C 21.550781 19.476562 21.625 19.410156 21.703125 19.347656 L 21.652344 19.289062 M 21.191406 19.667969 C 21.113281 19.726562 21.035156 19.785156 20.953125 19.84375 L 20.996094 19.90625 C 21.078125 19.847656 21.160156 19.785156 21.238281 19.726562 L 21.191406 19.667969 M 20.710938 20.015625 C 20.628906 20.070312 20.546875 20.125 20.460938 20.179688 L 20.503906 20.242188 C 20.585938 20.1875 20.671875 20.132812 20.753906 20.078125 L 20.710938 20.015625 M 20.210938 20.335938 C 20.125 20.386719 20.039062 20.4375 19.953125 20.488281 L 19.988281 20.550781 C 20.078125 20.503906 20.164062 20.453125 20.25 20.402344 L 20.210938 20.335938 M 19.691406 20.628906 C 19.605469 20.675781 19.515625 20.722656 19.425781 20.765625 L 19.460938 20.832031 C 19.550781 20.789062 19.640625 20.742188 19.726562 20.695312 L 19.691406 20.628906 M 19.160156 20.890625 C 19.070312 20.933594 18.976562 20.972656 18.886719 21.011719 L 18.917969 21.082031 C 19.007812 21.042969 19.101562 21 19.191406 20.960938 L 19.160156 20.890625 M 18.613281 21.121094 C 18.519531 21.160156 18.425781 21.195312 18.332031 21.226562 L 18.359375 21.296875 C 18.453125 21.265625 18.546875 21.230469 18.640625 21.191406 L 18.613281 21.121094 M 18.050781 21.324219 C 17.957031 21.355469 17.863281 21.382812 17.765625 21.410156 L 17.789062 21.484375 C 17.882812 21.453125 17.980469 21.425781 18.074219 21.394531 L 18.050781 21.324219 M 17.480469 21.492188 C 17.382812 21.515625 17.285156 21.539062 17.191406 21.5625 L 17.207031 21.636719 C 17.304688 21.613281 17.402344 21.589844 17.496094 21.5625 L 17.480469 21.492188 M 16.898438 21.625 C 16.800781 21.644531 16.703125 21.664062 16.605469 21.679688 L 16.617188 21.753906 C 16.71875 21.738281 16.816406 21.71875 16.914062 21.699219 L 16.898438 21.625 M 16.3125 21.726562 C 16.214844 21.742188 16.113281 21.753906 16.015625 21.765625 L 16.023438 21.839844 C 16.125 21.828125 16.222656 21.816406 16.320312 21.800781 L 16.3125 21.726562 M 15.71875 21.792969 C 15.621094 21.800781 15.519531 21.808594 15.421875 21.816406 L 15.425781 21.890625 C 15.527344 21.882812 15.625 21.875 15.726562 21.867188 L 15.71875 21.792969 M 15.125 21.828125 C 15.023438 21.828125 14.925781 21.832031 14.824219 21.832031 L 14.824219 21.90625 C 14.925781 21.90625 15.027344 21.90625 15.125 21.902344 L 15.125 21.828125 M 14.527344 21.828125 C 14.429688 21.824219 14.328125 21.820312 14.230469 21.816406 L 14.226562 21.890625 C 14.324219 21.894531 14.425781 21.898438 14.527344 21.902344 L 14.527344 21.828125 M 13.933594 21.792969 C 13.832031 21.785156 13.734375 21.777344 13.636719 21.765625 L 13.628906 21.839844 C 13.726562 21.851562 13.828125 21.859375 13.925781 21.871094 L 13.933594 21.792969 M 13.339844 21.726562 C 13.242188 21.714844 13.144531 21.699219 13.046875 21.679688 L 13.035156 21.753906 C 13.132812 21.773438 13.230469 21.789062 13.328125 21.800781 L 13.339844 21.726562 M 12.753906 21.628906 C 12.65625 21.609375 12.558594 21.585938 12.460938 21.566406 L 12.445312 21.636719 C 12.542969 21.660156 12.640625 21.679688 12.738281 21.699219 L 12.753906 21.628906 M 12.171875 21.492188 C 12.074219 21.46875 11.980469 21.441406 11.886719 21.414062 L 11.863281 21.484375 C 11.960938 21.515625 12.054688 21.539062 12.152344 21.566406 L 12.171875 21.492188 M 11.601562 21.324219 C 11.503906 21.296875 11.410156 21.261719 11.316406 21.230469 L 11.292969 21.300781 C 11.386719 21.335938 11.480469 21.367188 11.578125 21.398438 L 11.601562 21.324219 M 11.039062 21.125 C 10.945312 21.089844 10.851562 21.050781 10.761719 21.015625 L 10.730469 21.082031 C 10.824219 21.121094 10.917969 21.160156 11.011719 21.195312 L 11.039062 21.125 M 10.488281 20.894531 C 10.394531 20.851562 10.304688 20.808594 10.214844 20.765625 L 10.183594 20.832031 C 10.273438 20.878906 10.363281 20.921875 10.457031 20.960938 L 10.488281 20.894531 M 9.949219 20.628906 C 9.863281 20.582031 9.773438 20.535156 9.6875 20.488281 L 9.652344 20.550781 C 9.738281 20.601562 9.828125 20.648438 9.914062 20.695312 L 9.949219 20.628906 M 9.429688 20.335938 C 9.347656 20.285156 9.261719 20.234375 9.179688 20.179688 L 9.136719 20.242188 C 9.222656 20.296875 9.304688 20.347656 9.390625 20.402344 L 9.429688 20.335938 M 8.929688 20.015625 C 8.847656 19.957031 8.765625 19.902344 8.6875 19.84375 L 8.640625 19.902344 C 8.722656 19.960938 8.804688 20.019531 8.886719 20.074219 L 8.929688 20.015625 M 8.445312 19.664062 C 8.367188 19.605469 8.289062 19.542969 8.214844 19.480469 L 8.167969 19.535156 C 8.242188 19.601562 8.320312 19.664062 8.402344 19.722656 L 8.445312 19.664062 M 7.984375 19.285156 C 7.910156 19.222656 7.835938 19.15625 7.761719 19.089844 L 7.710938 19.144531 C 7.785156 19.210938 7.859375 19.277344 7.9375 19.34375 L 7.984375 19.285156 M 7.546875 18.882812 C 7.476562 18.816406 7.40625 18.746094 7.335938 18.675781 L 7.28125 18.726562 C 7.351562 18.796875 7.421875 18.867188 7.496094 18.9375 L 7.546875 18.882812 M 7.132812 18.457031 C 7.0625 18.386719 6.996094 18.3125 6.933594 18.238281 L 6.875 18.285156 C 6.941406 18.359375 7.007812 18.433594 7.074219 18.507812 L 7.132812 18.457031 M 6.742188 18.007812 C 6.679688 17.933594 6.617188 17.855469 6.554688 17.777344 L 6.496094 17.820312 C 6.558594 17.902344 6.621094 17.980469 6.683594 18.054688 L 6.742188 18.007812 M 6.375 17.539062 C 6.320312 17.457031 6.261719 17.378906 6.203125 17.296875 L 6.144531 17.339844 C 6.199219 17.421875 6.257812 17.503906 6.316406 17.582031 L 6.375 17.539062 M 6.039062 17.046875 C 5.988281 16.964844 5.933594 16.882812 5.882812 16.796875 L 5.820312 16.835938 C 5.871094 16.921875 5.921875 17.003906 5.976562 17.089844 L 6.039062 17.046875 M 5.734375 16.539062 C 5.683594 16.453125 5.636719 16.367188 5.589844 16.28125 L 5.523438 16.316406 C 5.570312 16.402344 5.617188 16.492188 5.667969 16.578125 L 5.734375 16.539062 M 5.453125 16.015625 C 5.410156 15.925781 5.367188 15.839844 5.328125 15.746094 L 5.257812 15.777344 C 5.300781 15.871094 5.34375 15.960938 5.386719 16.050781 L 5.453125 16.015625 M 5.207031 15.476562 C 5.167969 15.386719 5.128906 15.292969 5.09375 15.203125 L 5.023438 15.230469 C 5.0625 15.320312 5.097656 15.414062 5.136719 15.503906 L 5.207031 15.476562 M 4.992188 14.921875 C 4.957031 14.828125 4.925781 14.734375 4.894531 14.640625 L 4.824219 14.664062 C 4.855469 14.761719 4.886719 14.855469 4.917969 14.949219 L 4.992188 14.921875 M 4.804688 14.359375 C 4.777344 14.261719 4.75 14.167969 4.726562 14.070312 L 4.652344 14.089844 C 4.679688 14.1875 4.707031 14.28125 4.734375 14.378906 L 4.804688 14.359375 M 4.652344 13.78125 C 4.632812 13.6875 4.609375 13.589844 4.589844 13.492188 L 4.515625 13.507812 C 4.539062 13.605469 4.558594 13.703125 4.582031 13.800781 L 4.652344 13.78125 M 4.535156 13.199219 C 4.519531 13.101562 4.503906 13.003906 4.488281 12.90625 L 4.414062 12.917969 C 4.429688 13.015625 4.445312 13.113281 4.460938 13.210938 L 4.535156 13.199219 M 4.453125 12.609375 C 4.441406 12.511719 4.429688 12.414062 4.421875 12.3125 L 4.347656 12.320312 C 4.355469 12.421875 4.367188 12.519531 4.375 12.617188 L 4.453125 12.609375 M 4.402344 12.019531 C 4.394531 11.917969 4.390625 11.820312 4.386719 11.71875 L 4.3125 11.722656 C 4.316406 11.824219 4.320312 11.921875 4.324219 12.023438 L 4.402344 12.019531 M 4.382812 11.421875 L 4.382812 11.414062 C 4.382812 11.316406 4.382812 11.222656 4.386719 11.125 L 4.3125 11.125 C 4.308594 11.21875 4.308594 11.316406 4.308594 11.414062 L 4.308594 11.421875 L 4.382812 11.421875 M 4.398438 10.828125 C 4.40625 10.730469 4.410156 10.628906 4.417969 10.53125 L 4.34375 10.523438 C 4.335938 10.625 4.328125 10.722656 4.324219 10.824219 L 4.398438 10.828125 M 4.449219 10.234375 C 4.460938 10.136719 4.472656 10.039062 4.488281 9.941406 L 4.414062 9.929688 C 4.398438 10.027344 4.386719 10.128906 4.375 10.226562 L 4.449219 10.234375 M 4.53125 9.644531 C 4.550781 9.546875 4.566406 9.449219 4.585938 9.355469 L 4.511719 9.339844 C 4.492188 9.4375 4.476562 9.535156 4.457031 9.632812 L 4.53125 9.644531 M 4.648438 9.0625 C 4.671875 8.964844 4.695312 8.871094 4.722656 8.773438 L 4.648438 8.753906 C 4.621094 8.851562 4.597656 8.949219 4.578125 9.046875 L 4.648438 9.0625 M 4.800781 8.488281 C 4.828125 8.390625 4.859375 8.296875 4.886719 8.203125 L 4.816406 8.179688 C 4.785156 8.273438 4.757812 8.371094 4.726562 8.464844 L 4.800781 8.488281 M 4.984375 7.921875 C 5.015625 7.828125 5.050781 7.734375 5.089844 7.640625 L 5.019531 7.613281 C 4.980469 7.707031 4.945312 7.800781 4.914062 7.894531 L 4.984375 7.921875 M 5.199219 7.363281 C 5.238281 7.273438 5.28125 7.183594 5.320312 7.089844 L 5.253906 7.058594 C 5.210938 7.152344 5.171875 7.242188 5.132812 7.335938 L 5.199219 7.363281 M 5.449219 6.820312 C 5.492188 6.734375 5.539062 6.644531 5.585938 6.554688 L 5.519531 6.519531 C 5.472656 6.609375 5.425781 6.699219 5.382812 6.789062 L 5.449219 6.820312 M 5.726562 6.292969 C 5.777344 6.207031 5.828125 6.121094 5.878906 6.039062 L 5.8125 6 C 5.761719 6.085938 5.710938 6.171875 5.660156 6.257812 L 5.726562 6.292969 M 6.035156 5.785156 C 6.089844 5.699219 6.144531 5.617188 6.199219 5.535156 L 6.140625 5.496094 C 6.082031 5.578125 6.027344 5.660156 5.972656 5.746094 L 6.035156 5.785156 M 6.371094 5.292969 C 6.429688 5.210938 6.492188 5.132812 6.550781 5.054688 L 6.492188 5.007812 C 6.429688 5.089844 6.371094 5.167969 6.3125 5.25 L 6.371094 5.292969 M 6.738281 4.820312 C 6.800781 4.746094 6.863281 4.667969 6.929688 4.59375 L 6.871094 4.546875 C 6.808594 4.621094 6.742188 4.695312 6.679688 4.773438 L 6.738281 4.820312 M 7.128906 4.371094 C 7.195312 4.300781 7.261719 4.226562 7.332031 4.15625 L 7.277344 4.101562 C 7.207031 4.175781 7.140625 4.246094 7.074219 4.320312 L 7.128906 4.371094 M 7.542969 3.945312 C 7.613281 3.875 7.6875 3.808594 7.757812 3.742188 L 7.707031 3.6875 C 7.636719 3.753906 7.5625 3.820312 7.492188 3.890625 L 7.542969 3.945312 M 7.980469 3.542969 C 8.054688 3.476562 8.132812 3.414062 8.210938 3.351562 L 8.160156 3.292969 C 8.085938 3.355469 8.007812 3.421875 7.933594 3.484375 L 7.980469 3.542969 M 8.441406 3.167969 C 8.519531 3.105469 8.601562 3.046875 8.679688 2.988281 L 8.636719 2.925781 C 8.554688 2.984375 8.476562 3.046875 8.394531 3.105469 L 8.441406 3.167969 M 8.921875 2.816406 C 9.003906 2.761719 9.085938 2.707031 9.171875 2.652344 L 9.128906 2.589844 C 9.046875 2.644531 8.964844 2.699219 8.882812 2.753906 L 8.921875 2.816406 M 9.421875 2.492188 C 9.507812 2.441406 9.59375 2.394531 9.679688 2.34375 L 9.644531 2.277344 C 9.554688 2.328125 9.46875 2.378906 9.382812 2.429688 L 9.421875 2.492188 M 9.941406 2.203125 C 10.027344 2.15625 10.117188 2.109375 10.207031 2.066406 L 10.171875 2 C 10.082031 2.042969 9.992188 2.089844 9.90625 2.136719 L 9.941406 2.203125 M 10.472656 1.9375 C 10.5625 1.898438 10.65625 1.855469 10.746094 1.820312 L 10.714844 1.75 C 10.625 1.789062 10.53125 1.828125 10.441406 1.871094 L 10.472656 1.9375 M 11.019531 1.707031 C 11.113281 1.671875 11.207031 1.636719 11.300781 1.601562 L 11.273438 1.53125 C 11.179688 1.566406 11.085938 1.601562 10.992188 1.636719 L 11.019531 1.707031 M 11.582031 1.507812 C 11.675781 1.476562 11.769531 1.445312 11.867188 1.417969 L 11.84375 1.347656 C 11.75 1.375 11.652344 1.402344 11.558594 1.433594 L 11.582031 1.507812 M 12.152344 1.339844 C 12.25 1.3125 12.34375 1.289062 12.441406 1.265625 L 12.425781 1.191406 C 12.328125 1.214844 12.230469 1.242188 12.132812 1.265625 L 12.152344 1.339844 M 12.734375 1.203125 C 12.832031 1.183594 12.929688 1.164062 13.027344 1.148438 L 13.015625 1.074219 C 12.914062 1.089844 12.816406 1.109375 12.71875 1.128906 L 12.734375 1.203125 M 13.320312 1.101562 C 13.417969 1.085938 13.519531 1.074219 13.617188 1.0625 L 13.609375 0.988281 C 13.507812 1 13.410156 1.011719 13.308594 1.027344 L 13.320312 1.101562 M 13.914062 1.035156 C 14.011719 1.023438 14.109375 1.019531 14.210938 1.011719 L 14.207031 0.9375 C 14.105469 0.941406 14.007812 0.949219 13.90625 0.957031 L 13.914062 1.035156 M 14.507812 1 C 14.605469 0.996094 14.707031 0.996094 14.804688 0.996094 L 14.804688 0.921875 C 14.707031 0.921875 14.605469 0.921875 14.507812 0.925781 L 14.507812 1 M 15.105469 1 C 15.203125 1 15.304688 1.003906 15.402344 1.011719 L 15.40625 0.9375 C 15.304688 0.929688 15.207031 0.925781 15.105469 0.921875 L 15.105469 1 M 15.699219 1.03125 C 15.796875 1.039062 15.898438 1.050781 15.996094 1.058594 L 16.003906 0.984375 C 15.90625 0.972656 15.804688 0.964844 15.707031 0.957031 L 15.699219 1.03125 M 16.292969 1.097656 C 16.390625 1.109375 16.488281 1.125 16.585938 1.144531 L 16.597656 1.070312 C 16.5 1.050781 16.402344 1.035156 16.300781 1.023438 L 16.292969 1.097656 M 16.878906 1.199219 C 16.976562 1.214844 17.074219 1.238281 17.171875 1.261719 L 17.1875 1.1875 C 17.089844 1.164062 16.992188 1.144531 16.894531 1.125 L 16.878906 1.199219 M 17.460938 1.332031 C 17.554688 1.355469 17.652344 1.382812 17.746094 1.410156 L 17.769531 1.339844 C 17.671875 1.308594 17.574219 1.285156 17.480469 1.257812 L 17.460938 1.332031 M 18.03125 1.496094 C 18.128906 1.527344 18.222656 1.558594 18.316406 1.59375 L 18.339844 1.523438 C 18.246094 1.488281 18.152344 1.457031 18.054688 1.425781 L 18.03125 1.496094 M 18.59375 1.695312 C 18.6875 1.734375 18.78125 1.769531 18.871094 1.808594 L 18.902344 1.738281 C 18.808594 1.699219 18.714844 1.664062 18.621094 1.625 L 18.59375 1.695312 M 19.144531 1.929688 C 19.238281 1.96875 19.328125 2.011719 19.417969 2.054688 L 19.449219 1.988281 C 19.359375 1.945312 19.269531 1.902344 19.175781 1.859375 L 19.144531 1.929688 M 19.683594 2.191406 C 19.769531 2.238281 19.859375 2.285156 19.945312 2.335938 L 19.980469 2.269531 C 19.894531 2.21875 19.804688 2.171875 19.71875 2.125 L 19.683594 2.191406 M 20.203125 2.484375 C 20.289062 2.535156 20.371094 2.589844 20.457031 2.640625 L 20.496094 2.578125 C 20.410156 2.523438 20.328125 2.472656 20.242188 2.421875 L 20.203125 2.484375 M 20.703125 2.804688 C 20.785156 2.863281 20.867188 2.917969 20.949219 2.976562 L 20.992188 2.917969 C 20.910156 2.859375 20.828125 2.800781 20.746094 2.746094 L 20.703125 2.804688 M 21.1875 3.15625 C 21.265625 3.21875 21.34375 3.277344 21.421875 3.339844 L 21.46875 3.28125 C 21.390625 3.21875 21.3125 3.15625 21.234375 3.097656 L 21.1875 3.15625 M 21.648438 3.53125 C 21.722656 3.597656 21.796875 3.664062 21.871094 3.730469 L 21.921875 3.675781 C 21.847656 3.609375 21.773438 3.542969 21.699219 3.476562 L 21.648438 3.53125 M 22.089844 3.933594 C 22.160156 4.003906 22.230469 4.074219 22.300781 4.144531 L 22.351562 4.09375 C 22.28125 4.019531 22.210938 3.949219 22.140625 3.882812 L 22.089844 3.933594 M 22.503906 4.359375 C 22.570312 4.433594 22.636719 4.507812 22.703125 4.582031 L 22.757812 4.535156 C 22.695312 4.457031 22.628906 4.382812 22.558594 4.308594 L 22.503906 4.359375 M 22.894531 4.808594 C 22.957031 4.886719 23.019531 4.964844 23.082031 5.042969 L 23.140625 4.996094 C 23.078125 4.917969 23.015625 4.839844 22.953125 4.761719 L 22.894531 4.808594 M 23.257812 5.28125 C 23.316406 5.359375 23.375 5.441406 23.429688 5.523438 L 23.492188 5.480469 C 23.4375 5.398438 23.378906 5.316406 23.320312 5.234375 L 23.257812 5.28125 M 23.597656 5.769531 C 23.648438 5.851562 23.703125 5.9375 23.753906 6.019531 L 23.816406 5.984375 C 23.765625 5.898438 23.714844 5.8125 23.660156 5.730469 L 23.597656 5.769531 M 23.90625 6.277344 C 23.953125 6.363281 24 6.449219 24.046875 6.539062 L 24.113281 6.503906 C 24.066406 6.414062 24.019531 6.328125 23.96875 6.242188 L 23.90625 6.277344 M 24.183594 6.800781 C 24.226562 6.890625 24.269531 6.980469 24.3125 7.070312 L 24.378906 7.039062 C 24.335938 6.949219 24.292969 6.859375 24.25 6.769531 L 24.183594 6.800781 M 24.429688 7.339844 C 24.46875 7.429688 24.507812 7.523438 24.542969 7.613281 L 24.613281 7.585938 C 24.578125 7.496094 24.539062 7.402344 24.5 7.3125 L 24.429688 7.339844 M 24.648438 7.894531 C 24.679688 7.988281 24.714844 8.082031 24.746094 8.175781 L 24.816406 8.152344 C 24.785156 8.058594 24.753906 7.960938 24.71875 7.867188 L 24.648438 7.894531 M 24.832031 8.460938 C 24.863281 8.554688 24.886719 8.648438 24.914062 8.746094 L 24.984375 8.726562 C 24.960938 8.628906 24.933594 8.535156 24.90625 8.4375 L 24.832031 8.460938 M 24.984375 9.035156 C 25.007812 9.128906 25.027344 9.226562 25.050781 9.324219 L 25.121094 9.308594 C 25.101562 9.210938 25.082031 9.113281 25.058594 9.015625 L 24.984375 9.035156 M 25.105469 9.617188 C 25.121094 9.714844 25.136719 9.8125 25.152344 9.910156 L 25.226562 9.902344 C 25.210938 9.800781 25.195312 9.703125 25.179688 9.605469 L 25.105469 9.617188 M 25.1875 10.207031 C 25.199219 10.304688 25.210938 10.402344 25.21875 10.503906 L 25.292969 10.496094 C 25.285156 10.394531 25.277344 10.296875 25.265625 10.199219 L 25.1875 10.207031 M 25.242188 10.800781 C 25.246094 10.898438 25.25 10.996094 25.253906 11.097656 L 25.328125 11.09375 C 25.324219 10.992188 25.320312 10.894531 25.316406 10.792969 L 25.242188 10.800781 M 25.257812 11.394531 L 25.257812 11.414062 C 25.257812 11.511719 25.257812 11.613281 25.253906 11.710938 L 25.328125 11.710938 C 25.332031 11.613281 25.332031 11.511719 25.332031 11.414062 L 25.332031 11.394531 L 25.257812 11.394531 " fill-opacity="1" fill-rule="nonzero"/><path fill="#231f20" d="M 23.882812 11.414062 L 23.84375 11.414062 C 23.84375 13.902344 22.835938 16.152344 21.203125 17.78125 C 19.570312 19.414062 17.3125 20.421875 14.820312 20.421875 C 12.328125 20.421875 10.074219 19.414062 8.441406 17.78125 C 6.808594 16.152344 5.796875 13.902344 5.796875 11.414062 C 5.796875 8.925781 6.808594 6.675781 8.441406 5.042969 C 10.074219 3.414062 12.328125 2.40625 14.820312 2.40625 C 17.3125 2.40625 19.570312 3.414062 21.203125 5.042969 C 22.835938 6.675781 23.84375 8.925781 23.84375 11.414062 L 23.917969 11.414062 C 23.917969 6.398438 19.847656 2.332031 14.820312 2.332031 C 9.796875 2.332031 5.722656 6.398438 5.722656 11.414062 C 5.722656 16.429688 9.796875 20.496094 14.820312 20.496094 C 19.847656 20.496094 23.917969 16.429688 23.917969 11.414062 L 23.882812 11.414062 " fill-opacity="1" fill-rule="nonzero"/><path fill="#ffffff" d="M 26.941406 13.671875 C 26.941406 15.390625 25.546875 16.785156 23.824219 16.785156 C 22.101562 16.785156 20.707031 15.390625 20.707031 13.671875 C 20.707031 11.953125 22.101562 10.5625 23.824219 10.5625 C 25.546875 10.5625 26.941406 11.953125 26.941406 13.671875 " fill-opacity="1" fill-rule="nonzero"/><path fill="#231f20" d="M 26.941406 13.671875 L 26.902344 13.671875 C 26.902344 14.523438 26.558594 15.289062 26 15.847656 C 25.445312 16.402344 24.675781 16.746094 23.824219 16.746094 C 22.972656 16.746094 22.203125 16.402344 21.644531 15.847656 C 21.089844 15.289062 20.742188 14.523438 20.742188 13.671875 C 20.742188 12.824219 21.089844 12.054688 21.644531 11.5 C 22.203125 10.941406 22.972656 10.597656 23.824219 10.597656 C 24.675781 10.597656 25.445312 10.941406 26 11.5 C 26.558594 12.054688 26.902344 12.824219 26.902344 13.671875 L 26.980469 13.671875 C 26.980469 11.933594 25.566406 10.523438 23.824219 10.523438 C 22.082031 10.523438 20.667969 11.933594 20.667969 13.671875 C 20.667969 15.414062 22.082031 16.820312 23.824219 16.820312 C 25.566406 16.820312 26.980469 15.414062 26.980469 13.671875 L 26.941406 13.671875 " fill-opacity="1" fill-rule="nonzero"/><path fill="#ffffff" d="M 10.183594 6.484375 C 10.183594 7.9375 9.003906 9.113281 7.550781 9.113281 C 6.09375 9.113281 4.917969 7.9375 4.917969 6.484375 C 4.917969 5.035156 6.09375 3.855469 7.550781 3.855469 C 9.003906 3.855469 10.183594 5.035156 10.183594 6.484375 " fill-opacity="1" fill-rule="nonzero"/><path fill="#231f20" d="M 10.183594 6.484375 L 10.144531 6.484375 C 10.144531 7.199219 9.855469 7.847656 9.382812 8.316406 C 8.914062 8.785156 8.265625 9.074219 7.550781 9.078125 C 6.832031 9.074219 6.183594 8.785156 5.714844 8.316406 C 5.246094 7.847656 4.953125 7.199219 4.953125 6.484375 C 4.953125 5.769531 5.246094 5.121094 5.714844 4.652344 C 6.183594 4.183594 6.832031 3.894531 7.550781 3.894531 C 8.265625 3.894531 8.914062 4.183594 9.382812 4.652344 C 9.855469 5.121094 10.144531 5.769531 10.144531 6.484375 L 10.21875 6.484375 C 10.21875 5.011719 9.023438 3.820312 7.550781 3.820312 C 6.074219 3.820312 4.878906 5.011719 4.878906 6.484375 C 4.878906 7.957031 6.074219 9.152344 7.550781 9.152344 C 9.023438 9.152344 10.21875 7.957031 10.21875 6.484375 L 10.183594 6.484375 " fill-opacity="1" fill-rule="nonzero"/><path fill="#ffffff" d="M 25.03125 5.140625 C 25.03125 6.859375 23.636719 8.25 21.914062 8.25 C 20.191406 8.25 18.796875 6.859375 18.796875 5.140625 C 18.796875 3.421875 20.191406 2.027344 21.914062 2.027344 C 23.636719 2.027344 25.03125 3.421875 25.03125 5.140625 " fill-opacity="1" fill-rule="nonzero"/><path fill="#231f20" d="M 24.9375 5.722656 C 24.921875 5.816406 24.898438 5.914062 24.871094 6.003906 L 24.941406 6.027344 C 24.972656 5.929688 24.996094 5.835938 25.011719 5.734375 Z M 24.773438 6.28125 C 24.738281 6.371094 24.699219 6.460938 24.652344 6.546875 L 24.71875 6.582031 C 24.765625 6.492188 24.808594 6.402344 24.84375 6.308594 Z M 24.507812 6.800781 C 24.453125 6.882812 24.398438 6.960938 24.335938 7.039062 L 24.394531 7.085938 C 24.457031 7.007812 24.515625 6.925781 24.570312 6.839844 Z M 24.144531 7.261719 C 24.078125 7.332031 24.007812 7.398438 23.933594 7.460938 L 23.980469 7.519531 C 24.058594 7.453125 24.128906 7.382812 24.199219 7.3125 Z M 23.703125 7.644531 C 23.625 7.699219 23.539062 7.753906 23.457031 7.800781 L 23.492188 7.867188 C 23.582031 7.816406 23.664062 7.761719 23.746094 7.703125 Z M 23.195312 7.9375 C 23.109375 7.976562 23.015625 8.011719 22.925781 8.046875 L 22.949219 8.117188 C 23.042969 8.082031 23.136719 8.046875 23.226562 8.003906 Z M 22.644531 8.128906 C 22.550781 8.152344 22.453125 8.167969 22.355469 8.183594 L 22.367188 8.257812 C 22.464844 8.242188 22.566406 8.222656 22.660156 8.199219 Z M 22.0625 8.210938 C 22.015625 8.214844 21.964844 8.214844 21.914062 8.214844 C 21.867188 8.214844 21.820312 8.214844 21.769531 8.210938 L 21.769531 8.285156 C 21.816406 8.289062 21.863281 8.289062 21.914062 8.289062 C 21.964844 8.289062 22.015625 8.289062 22.066406 8.285156 Z M 21.480469 8.183594 C 21.382812 8.171875 21.285156 8.152344 21.191406 8.128906 L 21.175781 8.203125 C 21.269531 8.226562 21.367188 8.242188 21.46875 8.257812 Z M 20.910156 8.046875 C 20.816406 8.015625 20.726562 7.980469 20.636719 7.9375 L 20.605469 8.007812 C 20.699219 8.046875 20.789062 8.085938 20.886719 8.117188 Z M 20.378906 7.804688 C 20.292969 7.757812 20.210938 7.703125 20.132812 7.648438 L 20.085938 7.707031 C 20.167969 7.765625 20.253906 7.820312 20.339844 7.871094 Z M 19.902344 7.464844 C 19.828125 7.402344 19.757812 7.335938 19.6875 7.265625 L 19.632812 7.316406 C 19.703125 7.390625 19.777344 7.457031 19.851562 7.523438 Z M 19.496094 7.042969 C 19.433594 6.96875 19.378906 6.886719 19.324219 6.804688 L 19.261719 6.847656 C 19.316406 6.929688 19.375 7.011719 19.4375 7.089844 Z M 19.179688 6.554688 C 19.132812 6.46875 19.09375 6.378906 19.054688 6.289062 L 18.988281 6.316406 C 19.023438 6.410156 19.066406 6.5 19.113281 6.585938 Z M 18.960938 6.011719 C 18.933594 5.917969 18.910156 5.824219 18.890625 5.726562 L 18.816406 5.742188 C 18.835938 5.839844 18.859375 5.9375 18.886719 6.03125 Z M 18.847656 5.4375 C 18.839844 5.34375 18.835938 5.246094 18.835938 5.144531 L 18.757812 5.144531 C 18.757812 5.246094 18.765625 5.347656 18.773438 5.445312 Z M 18.847656 4.855469 C 18.855469 4.757812 18.871094 4.660156 18.886719 4.5625 L 18.8125 4.550781 C 18.796875 4.648438 18.78125 4.746094 18.773438 4.847656 Z M 18.957031 4.28125 C 18.984375 4.1875 19.015625 4.09375 19.050781 4.003906 L 18.980469 3.976562 C 18.945312 4.066406 18.910156 4.164062 18.882812 4.257812 Z M 19.171875 3.738281 C 19.21875 3.648438 19.265625 3.566406 19.320312 3.484375 L 19.253906 3.445312 C 19.203125 3.527344 19.152344 3.613281 19.105469 3.703125 Z M 19.488281 3.246094 C 19.546875 3.167969 19.613281 3.09375 19.679688 3.023438 L 19.625 2.972656 C 19.554688 3.042969 19.492188 3.121094 19.429688 3.199219 Z M 19.890625 2.820312 C 19.964844 2.757812 20.042969 2.695312 20.121094 2.640625 L 20.078125 2.578125 C 19.996094 2.636719 19.917969 2.699219 19.839844 2.765625 Z M 20.367188 2.480469 C 20.449219 2.433594 20.539062 2.386719 20.625 2.347656 L 20.59375 2.277344 C 20.503906 2.320312 20.414062 2.367188 20.328125 2.417969 Z M 20.898438 2.234375 C 20.988281 2.203125 21.082031 2.175781 21.179688 2.152344 L 21.160156 2.082031 C 21.0625 2.105469 20.96875 2.132812 20.875 2.164062 Z M 21.464844 2.097656 C 21.5625 2.082031 21.660156 2.074219 21.757812 2.070312 L 21.753906 1.996094 C 21.652344 2 21.554688 2.007812 21.457031 2.023438 Z M 22.050781 2.066406 C 22.148438 2.074219 22.246094 2.082031 22.34375 2.09375 L 22.351562 2.019531 C 22.253906 2.007812 22.15625 1.996094 22.054688 1.992188 Z M 22.632812 2.148438 C 22.726562 2.171875 22.820312 2.199219 22.914062 2.230469 L 22.9375 2.160156 C 22.84375 2.128906 22.746094 2.097656 22.648438 2.074219 Z M 23.183594 2.339844 C 23.273438 2.378906 23.359375 2.421875 23.445312 2.472656 L 23.484375 2.40625 C 23.394531 2.355469 23.308594 2.3125 23.214844 2.269531 Z M 23.691406 2.628906 C 23.773438 2.683594 23.847656 2.746094 23.921875 2.808594 L 23.972656 2.753906 C 23.894531 2.6875 23.816406 2.625 23.734375 2.566406 Z M 24.136719 3.011719 C 24.203125 3.082031 24.269531 3.152344 24.328125 3.230469 L 24.386719 3.183594 C 24.324219 3.105469 24.257812 3.03125 24.191406 2.957031 Z M 24.5 3.46875 C 24.550781 3.550781 24.601562 3.632812 24.648438 3.71875 L 24.714844 3.683594 C 24.667969 3.597656 24.617188 3.511719 24.5625 3.425781 Z M 24.769531 3.984375 C 24.808594 4.074219 24.839844 4.167969 24.867188 4.261719 L 24.9375 4.242188 C 24.910156 4.144531 24.878906 4.050781 24.839844 3.957031 Z M 24.9375 4.546875 C 24.957031 4.640625 24.96875 4.738281 24.980469 4.835938 L 25.054688 4.828125 C 25.042969 4.726562 25.03125 4.628906 25.011719 4.53125 Z M 24.996094 5.125 L 24.996094 5.140625 C 24.996094 5.238281 24.988281 5.335938 24.980469 5.433594 L 25.054688 5.4375 C 25.066406 5.339844 25.070312 5.242188 25.070312 5.140625 L 25.070312 5.125 L 24.996094 5.128906 " fill-opacity="1" fill-rule="nonzero"/><path fill="#ffffff" d="M 9.582031 13.675781 C 9.582031 15.394531 8.183594 16.789062 6.460938 16.789062 C 4.742188 16.789062 3.34375 15.394531 3.34375 13.675781 C 3.34375 11.957031 4.742188 10.566406 6.460938 10.566406 C 8.183594 10.566406 9.582031 11.957031 9.582031 13.675781 " fill-opacity="1" fill-rule="nonzero"/><path fill="#231f20" d="M 9.488281 14.257812 C 9.46875 14.355469 9.445312 14.449219 9.417969 14.542969 L 9.492188 14.5625 C 9.519531 14.46875 9.542969 14.371094 9.5625 14.273438 Z M 9.324219 14.820312 C 9.285156 14.910156 9.246094 15 9.199219 15.085938 L 9.269531 15.121094 C 9.3125 15.03125 9.355469 14.941406 9.390625 14.847656 Z M 9.054688 15.339844 C 9 15.421875 8.945312 15.5 8.882812 15.578125 L 8.945312 15.621094 C 9.003906 15.542969 9.0625 15.464844 9.117188 15.378906 Z M 8.691406 15.796875 C 8.625 15.867188 8.554688 15.933594 8.480469 16 L 8.53125 16.054688 C 8.605469 15.992188 8.679688 15.921875 8.746094 15.847656 Z M 8.25 16.179688 C 8.171875 16.238281 8.089844 16.289062 8.003906 16.339844 L 8.042969 16.402344 C 8.128906 16.355469 8.210938 16.300781 8.292969 16.242188 Z M 7.742188 16.472656 C 7.65625 16.515625 7.566406 16.550781 7.472656 16.582031 L 7.496094 16.652344 C 7.589844 16.621094 7.683594 16.582031 7.773438 16.542969 Z M 7.191406 16.664062 C 7.097656 16.6875 7 16.707031 6.902344 16.71875 L 6.914062 16.792969 C 7.015625 16.78125 7.113281 16.761719 7.207031 16.738281 Z M 6.613281 16.746094 C 6.5625 16.75 6.511719 16.75 6.460938 16.75 C 6.414062 16.75 6.367188 16.75 6.320312 16.746094 L 6.316406 16.824219 C 6.363281 16.824219 6.414062 16.824219 6.460938 16.824219 C 6.511719 16.824219 6.566406 16.824219 6.617188 16.824219 Z M 6.027344 16.722656 C 5.929688 16.707031 5.832031 16.6875 5.738281 16.667969 L 5.722656 16.738281 C 5.820312 16.761719 5.917969 16.78125 6.015625 16.796875 Z M 5.457031 16.585938 C 5.367188 16.550781 5.273438 16.515625 5.1875 16.476562 L 5.15625 16.542969 C 5.246094 16.585938 5.339844 16.621094 5.433594 16.65625 Z M 4.925781 16.34375 C 4.839844 16.292969 4.757812 16.242188 4.679688 16.183594 L 4.636719 16.246094 C 4.71875 16.304688 4.800781 16.355469 4.886719 16.40625 Z M 4.449219 16.003906 C 4.375 15.941406 4.304688 15.871094 4.234375 15.800781 L 4.183594 15.855469 C 4.25 15.925781 4.324219 15.996094 4.398438 16.058594 Z M 4.042969 15.582031 C 3.984375 15.503906 3.925781 15.425781 3.875 15.34375 L 3.808594 15.382812 C 3.863281 15.46875 3.921875 15.550781 3.984375 15.628906 Z M 3.726562 15.089844 C 3.679688 15.003906 3.640625 14.914062 3.605469 14.824219 L 3.535156 14.851562 C 3.570312 14.945312 3.613281 15.035156 3.660156 15.125 Z M 3.507812 14.550781 C 3.480469 14.457031 3.457031 14.359375 3.4375 14.265625 L 3.363281 14.277344 C 3.382812 14.378906 3.40625 14.476562 3.4375 14.570312 Z M 3.394531 13.976562 C 3.386719 13.878906 3.382812 13.78125 3.382812 13.683594 L 3.308594 13.683594 C 3.308594 13.785156 3.3125 13.882812 3.320312 13.984375 Z M 3.394531 13.390625 C 3.402344 13.292969 3.417969 13.195312 3.4375 13.101562 L 3.363281 13.085938 C 3.34375 13.183594 3.328125 13.285156 3.320312 13.382812 Z M 3.503906 12.816406 C 3.53125 12.722656 3.5625 12.632812 3.597656 12.539062 L 3.53125 12.511719 C 3.492188 12.605469 3.460938 12.699219 3.433594 12.796875 Z M 3.71875 12.273438 C 3.765625 12.1875 3.8125 12.101562 3.867188 12.019531 L 3.804688 11.980469 C 3.75 12.0625 3.699219 12.152344 3.652344 12.242188 Z M 4.035156 11.78125 C 4.097656 11.707031 4.160156 11.632812 4.226562 11.5625 L 4.171875 11.507812 C 4.105469 11.582031 4.039062 11.65625 3.976562 11.734375 Z M 4.4375 11.359375 C 4.511719 11.292969 4.589844 11.234375 4.667969 11.175781 L 4.625 11.117188 C 4.542969 11.175781 4.464844 11.238281 4.390625 11.300781 Z M 4.914062 11.019531 C 5 10.96875 5.085938 10.925781 5.175781 10.882812 L 5.144531 10.816406 C 5.050781 10.855469 4.964844 10.902344 4.878906 10.953125 Z M 5.445312 10.773438 C 5.539062 10.742188 5.632812 10.714844 5.726562 10.691406 L 5.710938 10.617188 C 5.613281 10.640625 5.515625 10.671875 5.421875 10.703125 Z M 6.015625 10.632812 C 6.109375 10.621094 6.207031 10.609375 6.304688 10.605469 L 6.300781 10.53125 C 6.203125 10.535156 6.101562 10.546875 6.003906 10.558594 Z M 6.597656 10.605469 C 6.699219 10.609375 6.796875 10.617188 6.890625 10.632812 L 6.902344 10.558594 C 6.804688 10.542969 6.703125 10.535156 6.601562 10.53125 Z M 7.179688 10.6875 C 7.273438 10.707031 7.367188 10.734375 7.460938 10.765625 L 7.484375 10.695312 C 7.390625 10.664062 7.292969 10.636719 7.195312 10.613281 Z M 7.734375 10.875 C 7.820312 10.914062 7.910156 10.960938 7.992188 11.007812 L 8.03125 10.945312 C 7.945312 10.894531 7.855469 10.847656 7.761719 10.808594 Z M 8.238281 11.164062 C 8.320312 11.222656 8.398438 11.28125 8.472656 11.347656 L 8.519531 11.289062 C 8.445312 11.222656 8.367188 11.164062 8.285156 11.105469 Z M 8.683594 11.546875 C 8.75 11.617188 8.816406 11.691406 8.875 11.765625 L 8.933594 11.722656 C 8.875 11.640625 8.808594 11.566406 8.738281 11.496094 Z M 9.046875 12.003906 C 9.101562 12.085938 9.148438 12.171875 9.195312 12.257812 L 9.261719 12.222656 C 9.214844 12.132812 9.164062 12.046875 9.109375 11.964844 Z M 9.316406 12.523438 C 9.355469 12.613281 9.386719 12.703125 9.414062 12.800781 L 9.488281 12.777344 C 9.457031 12.679688 9.425781 12.585938 9.386719 12.496094 Z M 9.484375 13.082031 C 9.503906 13.175781 9.519531 13.273438 9.527344 13.371094 L 9.601562 13.363281 C 9.59375 13.265625 9.578125 13.164062 9.558594 13.070312 Z M 9.542969 13.664062 L 9.542969 13.675781 C 9.542969 13.773438 9.539062 13.871094 9.527344 13.96875 L 9.601562 13.976562 C 9.613281 13.878906 9.617188 13.777344 9.617188 13.675781 L 9.617188 13.664062 L 9.542969 13.664062 " fill-opacity="1" fill-rule="nonzero"/><path fill="#f14763" d="M 26.492188 13.046875 C 26.492188 12.230469 25.867188 11.570312 25.097656 11.570312 C 24.53125 11.570312 24.046875 11.929688 23.828125 12.441406 C 23.609375 11.929688 23.121094 11.570312 22.558594 11.570312 C 21.785156 11.570312 21.164062 12.230469 21.164062 13.046875 C 21.164062 13.394531 21.164062 13.585938 21.613281 14.246094 C 22.015625 14.6875 22.804688 15.515625 23.828125 16.441406 C 24.851562 15.515625 25.503906 14.859375 26.042969 14.246094 C 26.492188 13.707031 26.492188 13.125 26.492188 13.046875 " fill-opacity="1" fill-rule="nonzero"/><path fill="#ffffff" d="M 21.457031 14.082031 L 22.476562 14.082031 C 22.503906 14.082031 22.53125 14.0625 22.542969 14.039062 L 22.964844 13.144531 L 23.457031 14.800781 C 23.464844 14.835938 23.496094 14.855469 23.53125 14.855469 C 23.5625 14.855469 23.59375 14.832031 23.601562 14.796875 L 23.835938 13.773438 L 24.207031 15.003906 C 24.214844 15.035156 24.246094 15.054688 24.277344 15.054688 C 24.3125 15.054688 24.339844 15.035156 24.351562 15.003906 L 24.859375 13.265625 L 25.054688 14.394531 C 25.058594 14.425781 25.085938 14.449219 25.117188 14.457031 C 25.148438 14.460938 25.179688 14.445312 25.195312 14.417969 L 25.625 13.65625 L 26.40625 13.65625 C 26.449219 13.65625 26.484375 13.625 26.484375 13.582031 C 26.484375 13.542969 26.449219 13.507812 26.40625 13.507812 L 25.578125 13.507812 C 25.550781 13.507812 25.527344 13.523438 25.515625 13.546875 L 25.167969 14.160156 L 24.953125 12.921875 C 24.945312 12.886719 24.917969 12.859375 24.882812 12.859375 C 24.847656 12.855469 24.816406 12.878906 24.804688 12.914062 L 24.277344 14.71875 L 23.898438 13.460938 C 23.890625 13.429688 23.859375 13.40625 23.824219 13.40625 C 23.792969 13.410156 23.761719 13.433594 23.753906 13.464844 L 23.519531 14.484375 L 23.054688 12.914062 C 23.046875 12.882812 23.019531 12.859375 22.988281 12.859375 C 22.957031 12.855469 22.929688 12.871094 22.914062 12.902344 L 22.429688 13.929688 L 21.457031 13.929688 C 21.414062 13.929688 21.378906 13.964844 21.378906 14.003906 C 21.378906 14.046875 21.414062 14.082031 21.457031 14.082031 " fill-opacity="1" fill-rule="nonzero"/><path fill="#1e525d" d="M 23.824219 5.375 C 23.824219 6.449219 22.949219 7.320312 21.875 7.320312 C 20.796875 7.320312 19.925781 6.449219 19.925781 5.375 C 19.925781 4.300781 20.796875 3.429688 21.875 3.429688 C 22.949219 3.429688 23.824219 4.300781 23.824219 5.375 " fill-opacity="1" fill-rule="nonzero"/><path fill="#ffffff" d="M 23.394531 5.375 C 23.394531 6.210938 22.714844 6.890625 21.875 6.890625 C 21.035156 6.890625 20.355469 6.210938 20.355469 5.375 C 20.355469 4.535156 21.035156 3.855469 21.875 3.855469 C 22.714844 3.855469 23.394531 4.535156 23.394531 5.375 " fill-opacity="1" fill-rule="nonzero"/><path fill="#163a43" d="M 22.097656 3 L 21.648438 3 L 21.648438 3.449219 L 22.097656 3.449219 L 22.097656 3 " fill-opacity="1" fill-rule="nonzero"/><path fill="#163a43" d="M 22.289062 2.625 L 21.457031 2.625 C 21.347656 2.625 21.257812 2.714844 21.257812 2.828125 C 21.257812 2.9375 21.347656 3.027344 21.457031 3.027344 L 22.289062 3.027344 C 22.398438 3.027344 22.492188 2.9375 22.492188 2.828125 C 22.492188 2.714844 22.398438 2.625 22.289062 2.625 " fill-opacity="1" fill-rule="nonzero"/><path fill="#231f20" d="M 21.914062 5.203125 L 21.832031 5.203125 L 21.832031 4.203125 L 21.914062 4.203125 L 21.914062 5.203125 " fill-opacity="1" fill-rule="nonzero"/><path fill="#231f20" d="M 21.972656 5.425781 L 21.972656 5.34375 L 22.917969 5.34375 L 22.917969 5.425781 L 21.972656 5.425781 " fill-opacity="1" fill-rule="nonzero"/><path fill="#231f20" d="M 22.054688 5.335938 C 22.054688 5.441406 21.96875 5.527344 21.863281 5.527344 C 21.753906 5.527344 21.667969 5.441406 21.667969 5.335938 C 21.667969 5.226562 21.753906 5.140625 21.863281 5.140625 C 21.96875 5.140625 22.054688 5.226562 22.054688 5.335938 " fill-opacity="1" fill-rule="nonzero"/><g clip-path="url(#5070b4ef42)"><g clip-path="url(#95a289edf7)"><path fill="#d3d2d2" d="M 19.925781 7.320312 L 21.945312 7.320312 L 21.945312 5.300781 L 19.925781 5.300781 Z M 19.925781 7.320312 " fill-opacity="1" fill-rule="nonzero"/></g></g><path fill="#1a454f" d="M 21.875 7.320312 C 20.796875 7.320312 19.925781 6.449219 19.925781 5.375 C 19.925781 5.375 19.925781 5.371094 19.925781 5.371094 C 19.925781 5.371094 19.925781 5.367188 19.925781 5.367188 C 19.925781 5.363281 19.925781 5.363281 19.925781 5.363281 C 19.925781 5.359375 19.925781 5.359375 19.925781 5.359375 C 19.925781 5.355469 19.925781 5.355469 19.925781 5.355469 C 19.925781 5.355469 19.925781 5.351562 19.925781 5.351562 C 19.925781 5.347656 19.925781 5.347656 19.925781 5.347656 C 19.925781 5.34375 19.925781 5.34375 19.925781 5.34375 C 19.925781 5.339844 19.925781 5.339844 19.925781 5.339844 C 19.925781 5.339844 19.925781 5.335938 19.925781 5.335938 C 19.925781 5.332031 19.925781 5.332031 19.925781 5.332031 C 19.925781 5.332031 19.925781 5.332031 19.925781 5.328125 C 19.925781 5.328125 19.925781 5.328125 19.925781 5.324219 C 19.925781 5.320312 19.925781 5.320312 19.925781 5.320312 C 19.925781 5.316406 19.925781 5.316406 19.925781 5.316406 C 19.925781 5.316406 19.925781 5.316406 19.925781 5.3125 C 19.925781 5.3125 19.925781 5.308594 19.925781 5.304688 C 19.925781 5.304688 19.925781 5.300781 19.925781 5.300781 C 19.957031 4.4375 20.554688 3.714844 21.363281 3.496094 C 21.3125 3.652344 21.285156 3.816406 21.273438 3.980469 C 20.734375 4.210938 20.355469 4.75 20.355469 5.375 C 20.355469 6.210938 21.035156 6.890625 21.875 6.890625 C 22.355469 6.890625 22.789062 6.667969 23.066406 6.316406 C 23.222656 6.347656 23.378906 6.363281 23.535156 6.363281 C 23.542969 6.363281 23.546875 6.363281 23.554688 6.363281 C 23.226562 6.917969 22.628906 7.292969 21.945312 7.320312 C 21.941406 7.320312 21.941406 7.320312 21.941406 7.320312 C 21.941406 7.320312 21.941406 7.320312 21.9375 7.320312 C 21.9375 7.320312 21.9375 7.320312 21.933594 7.320312 C 21.929688 7.320312 21.929688 7.320312 21.929688 7.320312 C 21.925781 7.320312 21.925781 7.320312 21.925781 7.320312 C 21.925781 7.320312 21.925781 7.320312 21.921875 7.320312 C 21.917969 7.320312 21.917969 7.320312 21.917969 7.320312 C 21.917969 7.320312 21.914062 7.320312 21.914062 7.320312 C 21.910156 7.320312 21.910156 7.320312 21.910156 7.320312 C 21.910156 7.320312 21.90625 7.320312 21.90625 7.320312 C 21.90625 7.320312 21.902344 7.320312 21.902344 7.320312 C 21.902344 7.320312 21.898438 7.320312 21.898438 7.320312 C 21.898438 7.320312 21.898438 7.320312 21.894531 7.320312 C 21.890625 7.320312 21.890625 7.320312 21.890625 7.320312 C 21.886719 7.320312 21.886719 7.320312 21.886719 7.320312 C 21.886719 7.320312 21.882812 7.320312 21.882812 7.320312 C 21.882812 7.320312 21.878906 7.320312 21.878906 7.320312 C 21.878906 7.320312 21.878906 7.320312 21.875 7.320312 " fill-opacity="1" fill-rule="nonzero"/><path fill="#d3d2d2" d="M 21.875 6.890625 C 21.035156 6.890625 20.355469 6.210938 20.355469 5.375 C 20.355469 4.75 20.734375 4.210938 21.273438 3.980469 C 21.25 4.464844 21.398438 4.960938 21.671875 5.371094 C 21.679688 5.425781 21.714844 5.476562 21.765625 5.503906 C 21.996094 5.804688 22.296875 6.046875 22.648438 6.191406 C 22.785156 6.246094 22.925781 6.289062 23.066406 6.316406 C 22.789062 6.667969 22.355469 6.890625 21.875 6.890625 " fill-opacity="1" fill-rule="nonzero"/><path fill="#231f20" d="M 21.765625 5.503906 C 21.714844 5.476562 21.679688 5.425781 21.671875 5.371094 C 21.699219 5.417969 21.730469 5.460938 21.765625 5.503906 " fill-opacity="1" fill-rule="nonzero"/><path fill="#f14763" d="M 8.515625 5.21875 C 8.113281 5.125 7.722656 5.242188 7.550781 5.308594 C 7.375 5.242188 6.984375 5.125 6.582031 5.21875 C 6.113281 5.324219 5.925781 5.683594 5.925781 6.324219 C 5.925781 6.554688 6.0625 7.019531 6.488281 7.574219 C 6.683594 7.832031 6.914062 8.109375 7.234375 8.070312 C 7.34375 8.058594 7.445312 8.019531 7.550781 7.988281 C 7.652344 8.019531 7.753906 8.058594 7.863281 8.070312 C 8.183594 8.109375 8.414062 7.832031 8.609375 7.574219 C 9.035156 7.019531 9.171875 6.554688 9.171875 6.324219 C 9.171875 5.683594 8.984375 5.324219 8.515625 5.21875 " fill-opacity="1" fill-rule="nonzero"/><path fill="#d3d2d2" d="M 7.175781 8.074219 C 6.886719 8.074219 6.671875 7.816406 6.488281 7.574219 C 6.0625 7.019531 5.925781 6.554688 5.925781 6.324219 C 5.925781 6.554688 6.0625 7.019531 6.488281 7.574219 C 6.671875 7.816406 6.886719 8.074219 7.175781 8.074219 C 7.195312 8.074219 7.214844 8.074219 7.234375 8.070312 C 7.34375 8.058594 7.445312 8.019531 7.550781 7.988281 C 7.652344 8.019531 7.753906 8.058594 7.863281 8.070312 C 7.878906 8.074219 7.894531 8.074219 7.90625 8.074219 C 7.894531 8.074219 7.878906 8.074219 7.863281 8.070312 C 7.753906 8.058594 7.652344 8.019531 7.550781 7.988281 C 7.445312 8.019531 7.34375 8.058594 7.234375 8.070312 C 7.214844 8.074219 7.195312 8.074219 7.175781 8.074219 M 7.925781 8.074219 L 7.925781 8.074219 M 7.925781 8.074219 L 7.925781 8.074219 M 7.929688 8.074219 L 7.929688 8.074219 M 7.929688 8.074219 L 7.929688 8.074219 M 7.933594 8.074219 L 7.933594 8.074219 M 7.933594 8.074219 L 7.933594 8.074219 M 7.933594 8.074219 C 7.9375 8.074219 7.9375 8.074219 7.9375 8.074219 C 7.9375 8.074219 7.9375 8.074219 7.933594 8.074219 M 7.9375 8.074219 L 7.9375 8.074219 M 7.9375 8.074219 L 7.9375 8.074219 M 7.941406 8.074219 L 7.941406 8.074219 M 7.945312 8.074219 L 7.945312 8.074219 M 7.945312 8.074219 L 7.945312 8.074219 M 7.945312 8.074219 L 7.945312 8.074219 M 8.582031 7.613281 C 8.582031 7.609375 8.585938 7.605469 8.589844 7.597656 C 8.585938 7.605469 8.582031 7.609375 8.582031 7.613281 M 5.925781 6.324219 C 5.925781 6.300781 5.925781 6.277344 5.925781 6.253906 C 5.925781 6.277344 5.925781 6.300781 5.925781 6.324219 M 5.925781 6.253906 C 5.925781 6.253906 5.925781 6.253906 5.925781 6.25 C 5.925781 6.253906 5.925781 6.253906 5.925781 6.253906 M 5.925781 6.25 L 5.925781 6.25 " fill-opacity="1" fill-rule="nonzero"/><path fill="#c83a50" d="M 7.175781 8.074219 C 6.886719 8.074219 6.671875 7.816406 6.488281 7.574219 C 6.0625 7.019531 5.925781 6.554688 5.925781 6.324219 C 5.925781 6.300781 5.925781 6.277344 5.925781 6.253906 C 5.925781 6.253906 5.925781 6.253906 5.925781 6.25 C 5.941406 5.769531 6.066406 5.457031 6.351562 5.304688 C 6.324219 6.128906 6.753906 6.917969 7.535156 7.296875 C 7.878906 7.460938 8.234375 7.5625 8.589844 7.597656 C 8.585938 7.605469 8.582031 7.609375 8.582031 7.613281 C 8.40625 7.835938 8.210938 8.058594 7.949219 8.074219 C 7.949219 8.074219 7.949219 8.074219 7.945312 8.074219 C 7.941406 8.074219 7.941406 8.074219 7.941406 8.074219 C 7.941406 8.074219 7.9375 8.074219 7.9375 8.074219 C 7.9375 8.074219 7.9375 8.074219 7.933594 8.074219 C 7.929688 8.074219 7.929688 8.074219 7.929688 8.074219 C 7.929688 8.074219 7.925781 8.074219 7.925781 8.074219 C 7.925781 8.074219 7.921875 8.074219 7.921875 8.074219 C 7.917969 8.074219 7.910156 8.074219 7.90625 8.074219 C 7.894531 8.074219 7.878906 8.074219 7.863281 8.070312 C 7.753906 8.058594 7.652344 8.019531 7.550781 7.988281 C 7.445312 8.019531 7.34375 8.058594 7.234375 8.070312 C 7.214844 8.074219 7.195312 8.074219 7.175781 8.074219 " fill-opacity="1" fill-rule="nonzero"/><path fill="#9cd41f" d="M 6.761719 4.46875 C 6.761719 4.445312 6.785156 4.433594 6.804688 4.441406 C 6.988281 4.519531 7.128906 4.667969 7.222656 4.832031 C 7.320312 5.003906 7.367188 5.195312 7.414062 5.386719 C 7.273438 5.335938 7.148438 5.257812 7.054688 5.152344 C 6.789062 4.871094 6.761719 4.574219 6.761719 4.46875 " fill-opacity="1" fill-rule="nonzero"/><path fill="#231f20" d="M 7.417969 5.433594 C 7.40625 5.433594 7.398438 5.425781 7.394531 5.414062 L 7.386719 5.296875 C 7.382812 5.203125 7.375 5.105469 7.390625 5.007812 C 7.417969 4.824219 7.53125 4.652344 7.683594 4.550781 C 7.695312 4.546875 7.707031 4.546875 7.714844 4.558594 C 7.71875 4.566406 7.714844 4.578125 7.707031 4.585938 C 7.5625 4.679688 7.457031 4.84375 7.429688 5.015625 C 7.417969 5.105469 7.421875 5.203125 7.429688 5.296875 L 7.4375 5.414062 C 7.4375 5.425781 7.429688 5.433594 7.417969 5.433594 " fill-opacity="1" fill-rule="nonzero"/><path fill="#7b222d" d="M 7.425781 5.433594 C 7.351562 5.433594 7.28125 5.398438 7.238281 5.339844 C 7.230469 5.332031 7.234375 5.320312 7.242188 5.3125 C 7.25 5.308594 7.261719 5.308594 7.269531 5.316406 C 7.304688 5.367188 7.367188 5.394531 7.429688 5.394531 C 7.488281 5.394531 7.546875 5.363281 7.582031 5.3125 C 7.589844 5.304688 7.601562 5.300781 7.613281 5.308594 C 7.621094 5.316406 7.621094 5.328125 7.617188 5.335938 C 7.574219 5.394531 7.5 5.433594 7.429688 5.433594 L 7.425781 5.433594 " fill-opacity="1" fill-rule="nonzero"/><path fill="#f35c7f" d="M 8.851562 5.695312 C 8.851562 5.839844 8.722656 5.953125 8.558594 5.953125 C 8.398438 5.953125 8.265625 5.839844 8.265625 5.695312 C 8.265625 5.550781 8.398438 5.433594 8.558594 5.433594 C 8.722656 5.433594 8.851562 5.550781 8.851562 5.695312 " fill-opacity="1" fill-rule="nonzero"/><path fill="#444142" d="M 4.324219 13.78125 C 4.324219 13.109375 4.53125 12.5625 4.792969 12.539062 L 4.8125 12.53125 L 4.402344 12.53125 C 4.402344 12.53125 4.332031 12.550781 4.246094 12.664062 C 4.238281 12.675781 4.226562 12.691406 4.21875 12.703125 L 4.210938 12.714844 C 4.175781 12.769531 4.144531 12.835938 4.113281 12.910156 C 4.027344 13.132812 3.976562 13.4375 3.976562 13.777344 C 3.976562 14.113281 4.027344 14.417969 4.113281 14.640625 L 4.113281 14.644531 C 4.144531 14.71875 4.175781 14.78125 4.210938 14.835938 L 4.21875 14.847656 C 4.226562 14.863281 4.238281 14.875 4.246094 14.886719 C 4.332031 15 4.402344 15.019531 4.402344 15.019531 L 4.78125 15.019531 C 4.523438 14.976562 4.324219 14.4375 4.324219 13.78125 " fill-opacity="1" fill-rule="nonzero"/><path fill="#605e5e" d="M 5.304688 13.78125 C 5.304688 14.46875 5.085938 15.023438 4.8125 15.023438 C 4.542969 15.023438 4.324219 14.46875 4.324219 13.78125 C 4.324219 13.09375 4.542969 12.535156 4.8125 12.535156 C 5.085938 12.535156 5.304688 13.09375 5.304688 13.78125 " fill-opacity="1" fill-rule="nonzero"/><path fill="#4f4c4c" d="M 5.140625 13.78125 C 5.140625 14.238281 4.992188 14.605469 4.8125 14.605469 C 4.632812 14.605469 4.488281 14.238281 4.488281 13.78125 C 4.488281 13.324219 4.632812 12.953125 4.8125 12.953125 C 4.992188 12.953125 5.140625 13.324219 5.140625 13.78125 " fill-opacity="1" fill-rule="nonzero"/><path fill="#393536" d="M 8.207031 14.109375 L 4.8125 14.109375 C 4.8125 14.109375 4.71875 14.082031 4.71875 13.828125 C 4.71875 13.574219 4.8125 13.523438 4.8125 13.523438 L 8.207031 13.523438 L 8.207031 14.109375 " fill-opacity="1" fill-rule="nonzero"/><path fill="#444142" d="M 7.90625 13.828125 C 7.90625 13.15625 8.117188 12.613281 8.378906 12.585938 L 8.398438 12.582031 L 7.984375 12.582031 C 7.984375 12.582031 7.914062 12.601562 7.832031 12.714844 C 7.820312 12.726562 7.8125 12.738281 7.804688 12.75 L 7.796875 12.761719 C 7.761719 12.816406 7.726562 12.882812 7.699219 12.957031 C 7.613281 13.183594 7.558594 13.488281 7.558594 13.824219 C 7.558594 14.160156 7.613281 14.464844 7.699219 14.691406 C 7.726562 14.765625 7.761719 14.832031 7.796875 14.886719 L 7.804688 14.898438 C 7.8125 14.910156 7.820312 14.921875 7.832031 14.933594 C 7.914062 15.046875 7.984375 15.070312 7.984375 15.070312 L 8.367188 15.070312 C 8.109375 15.027344 7.90625 14.488281 7.90625 13.828125 " fill-opacity="1" fill-rule="nonzero"/><path fill="#605e5e" d="M 8.886719 13.828125 C 8.886719 14.515625 8.667969 15.074219 8.398438 15.074219 C 8.128906 15.074219 7.90625 14.515625 7.90625 13.828125 C 7.90625 13.140625 8.128906 12.585938 8.398438 12.585938 C 8.667969 12.585938 8.886719 13.140625 8.886719 13.828125 " fill-opacity="1" fill-rule="nonzero"/><path fill="#444142" d="M 8.269531 13.777344 C 8.269531 13.382812 8.394531 13.0625 8.546875 13.046875 L 8.558594 13.042969 L 8.316406 13.042969 C 8.316406 13.042969 8.273438 13.054688 8.222656 13.121094 C 8.21875 13.128906 8.214844 13.136719 8.207031 13.144531 L 8.203125 13.152344 C 8.183594 13.183594 8.164062 13.222656 8.148438 13.265625 L 8.144531 13.265625 C 8.097656 13.398438 8.066406 13.578125 8.066406 13.777344 C 8.066406 13.972656 8.097656 14.152344 8.144531 14.285156 L 8.148438 14.285156 C 8.164062 14.328125 8.183594 14.367188 8.203125 14.398438 L 8.207031 14.40625 C 8.214844 14.414062 8.21875 14.421875 8.222656 14.429688 C 8.273438 14.496094 8.316406 14.507812 8.316406 14.507812 L 8.539062 14.507812 C 8.386719 14.484375 8.269531 14.167969 8.269531 13.777344 " fill-opacity="1" fill-rule="nonzero"/><path fill="#6e6b6c" d="M 8.847656 13.777344 C 8.847656 14.183594 8.71875 14.511719 8.558594 14.511719 C 8.398438 14.511719 8.269531 14.183594 8.269531 13.777344 C 8.269531 13.375 8.398438 13.046875 8.558594 13.046875 C 8.71875 13.046875 8.847656 13.375 8.847656 13.777344 " fill-opacity="1" fill-rule="nonzero"/><path fill="#444142" d="M 8.507812 13.777344 C 8.507812 13.589844 8.5625 13.441406 8.636719 13.433594 L 8.640625 13.429688 L 8.527344 13.429688 C 8.527344 13.429688 8.507812 13.4375 8.484375 13.46875 L 8.476562 13.480469 L 8.472656 13.480469 C 8.464844 13.496094 8.457031 13.515625 8.449219 13.535156 C 8.425781 13.597656 8.410156 13.683594 8.410156 13.773438 C 8.410156 13.867188 8.425781 13.953125 8.449219 14.015625 C 8.457031 14.035156 8.464844 14.054688 8.472656 14.070312 L 8.476562 14.070312 L 8.484375 14.082031 C 8.507812 14.113281 8.527344 14.117188 8.527344 14.117188 L 8.632812 14.117188 C 8.5625 14.105469 8.507812 13.957031 8.507812 13.777344 " fill-opacity="1" fill-rule="nonzero"/><path fill="#8f8d8d" d="M 8.777344 13.777344 C 8.777344 13.964844 8.714844 14.121094 8.640625 14.121094 C 8.566406 14.121094 8.507812 13.964844 8.507812 13.777344 C 8.507812 13.585938 8.566406 13.433594 8.640625 13.433594 C 8.714844 13.433594 8.777344 13.585938 8.777344 13.777344 " fill-opacity="1" fill-rule="nonzero"/><path fill="#f47132" d="M 14.039062 7.136719 C 13.519531 7.464844 13.332031 8.179688 13.507812 8.765625 C 13.550781 8.902344 13.609375 9.042969 13.605469 9.183594 C 13.59375 9.578125 13.132812 9.816406 13.027344 10.199219 C 12.886719 10.71875 13.457031 11.15625 13.585938 11.683594 C 13.734375 12.289062 13.277344 12.960938 13.539062 13.527344 C 13.78125 14.050781 14.46875 14.152344 15.046875 14.179688 C 15.203125 14.1875 15.371094 14.195312 15.507812 14.117188 C 15.648438 14.039062 15.730469 13.890625 15.804688 13.746094 C 16.195312 13 16.597656 12.195312 16.488281 11.359375 C 16.371094 10.460938 15.667969 9.59375 15.964844 8.734375 C 16.058594 8.460938 16.457031 7.96875 16.523438 7.683594 C 16.785156 6.625 14.625 6.765625 14.039062 7.136719 " fill-opacity="1" fill-rule="nonzero"/><path fill="#4e4743" d="M 6.238281 25.890625 C 6.222656 25.933594 6.207031 25.976562 6.214844 26.023438 C 6.234375 26.152344 6.417969 26.25 6.558594 26.246094 C 6.703125 26.242188 6.816406 26.164062 6.914062 26.085938 C 7.335938 25.738281 7.605469 25.589844 8.003906 25.226562 C 8.246094 25.007812 8.726562 24.152344 8.300781 23.953125 C 7.320312 23.496094 6.429688 25.328125 6.238281 25.890625 " fill-opacity="1" fill-rule="nonzero"/><path fill="#4e4743" d="M 22.570312 25.347656 C 22.742188 25.328125 22.785156 25.070312 22.625 24.996094 C 22.402344 24.894531 22.164062 24.808594 22.019531 24.761719 C 21.566406 24.617188 20.96875 24.351562 20.488281 24.371094 C 20.214844 24.378906 20.148438 24.710938 20.132812 24.988281 C 20.128906 25.105469 20.199219 25.207031 20.300781 25.238281 C 20.75 25.367188 21.152344 25.503906 22.570312 25.347656 " fill-opacity="1" fill-rule="nonzero"/><path fill="#f9ab89" d="M 21 23.992188 C 21 24 20.933594 24.585938 20.933594 24.585938 C 20.933594 24.585938 20.613281 24.765625 20.480469 24.566406 C 20.351562 24.371094 20.402344 23.761719 20.402344 23.761719 L 21 23.992188 " fill-opacity="1" fill-rule="nonzero"/><path fill="#2b0b02" d="M 20.363281 23.800781 C 20.359375 23.816406 20.359375 23.835938 20.359375 23.855469 C 20.359375 23.835938 20.359375 23.816406 20.363281 23.800781 " fill-opacity="1" fill-rule="nonzero"/><path fill="#2b0b02" d="M 20.359375 23.859375 C 20.359375 23.878906 20.355469 23.902344 20.355469 23.929688 C 20.355469 23.902344 20.359375 23.878906 20.359375 23.859375 " fill-opacity="1" fill-rule="nonzero"/><path fill="#4e4743" d="M 15.417969 17.742188 C 15.417969 17.742188 20.480469 19.53125 21.066406 19.660156 C 21.648438 19.789062 21.355469 18.25 21.355469 18.25 C 21.355469 18.25 18.304688 15.726562 16.785156 16.089844 C 16.699219 16.566406 15.902344 16.492188 15.792969 16.820312 C 15.617188 17.347656 15.417969 17.742188 15.417969 17.742188 " fill-opacity="1" fill-rule="nonzero"/><path fill="#f9ab89" d="M 21.960938 10.175781 C 21.960938 10.175781 21.90625 9.667969 22.71875 9.484375 C 22.71875 9.484375 22.785156 9.585938 22.527344 9.792969 C 22.34375 9.941406 22.183594 10.0625 22.070312 10.125 C 22.023438 10.152344 21.988281 10.167969 21.960938 10.175781 " fill-opacity="1" fill-rule="nonzero"/><path fill="#f9ab89" d="M 22.183594 10.554688 C 22.183594 10.554688 22.640625 10.496094 22.964844 10.277344 C 23.285156 10.058594 23.296875 9.835938 23.28125 9.714844 C 23.269531 9.628906 23.222656 9.371094 23.109375 9.464844 C 22.992188 9.558594 22.375 9.789062 22.226562 9.863281 C 22.082031 9.941406 21.933594 10.183594 21.945312 10.222656 C 21.953125 10.261719 22.183594 10.554688 22.183594 10.554688 " fill-opacity="1" fill-rule="nonzero"/><path fill="#f9ab89" d="M 19.621094 11.449219 C 19.484375 11.351562 19.421875 11.34375 19.46875 11.089844 C 19.507812 10.882812 19.507812 10.882812 19.800781 10.75 C 20.765625 10.570312 21.855469 10.289062 22.472656 9.96875 C 23.164062 9.609375 22.636719 10.304688 22.636719 10.304688 C 21.933594 10.832031 20.785156 11.210938 19.621094 11.449219 " fill-opacity="1" fill-rule="nonzero"/><path fill="#f9ab89" d="M 19.746094 10.773438 C 19.921875 10.972656 19.90625 10.910156 19.878906 11.113281 C 19.847656 11.359375 19.910156 11.332031 19.613281 11.453125 C 17.984375 11.746094 16.320312 11.699219 16.15625 11.417969 C 15.890625 10.960938 16.714844 10.75 16.714844 10.75 C 16.714844 10.75 18.21875 10.847656 19.183594 10.828125 C 19.359375 10.824219 19.550781 10.804688 19.742188 10.773438 L 19.746094 10.773438 " fill-opacity="1" fill-rule="nonzero"/><path fill="#f9ab89" d="M 9.171875 10.28125 C 9.171875 10.28125 9.226562 9.777344 8.414062 9.59375 C 8.414062 9.59375 8.34375 9.695312 8.601562 9.902344 C 8.785156 10.050781 8.945312 10.171875 9.058594 10.234375 C 9.105469 10.261719 9.140625 10.277344 9.171875 10.28125 " fill-opacity="1" fill-rule="nonzero"/><path fill="#f9ab89" d="M 8.945312 10.664062 C 8.945312 10.664062 8.492188 10.605469 8.167969 10.386719 C 7.84375 10.167969 7.832031 9.945312 7.851562 9.824219 C 7.863281 9.738281 7.910156 9.480469 8.023438 9.574219 C 8.136719 9.667969 8.753906 9.898438 8.902344 9.972656 C 9.050781 10.050781 9.195312 10.289062 9.183594 10.328125 C 9.175781 10.367188 8.945312 10.664062 8.945312 10.664062 " fill-opacity="1" fill-rule="nonzero"/><path fill="#f9ab89" d="M 11.507812 11.558594 C 11.644531 11.460938 11.707031 11.449219 11.660156 11.199219 C 11.621094 10.992188 11.621094 10.992188 11.328125 10.859375 L 11.332031 10.859375 C 10.367188 10.679688 9.273438 10.394531 8.65625 10.078125 C 7.96875 9.71875 8.496094 10.414062 8.496094 10.414062 C 9.195312 10.941406 10.347656 11.320312 11.507812 11.558594 " fill-opacity="1" fill-rule="nonzero"/><path fill="#f9ab89" d="M 11.386719 10.882812 C 11.207031 11.082031 11.222656 11.019531 11.25 11.222656 C 11.28125 11.46875 11.222656 11.441406 11.519531 11.5625 C 13.144531 11.855469 14.808594 11.808594 14.972656 11.527344 C 15.238281 11.066406 14.417969 10.855469 14.417969 10.855469 C 14.417969 10.855469 12.910156 10.957031 11.949219 10.9375 C 11.769531 10.933594 11.582031 10.914062 11.386719 10.882812 " fill-opacity="1" fill-rule="nonzero"/><path fill="#f9ab89" d="M 17.089844 10.832031 C 16.414062 10.386719 14.878906 10.417969 14.375 10.933594 C 14.074219 11.238281 14.742188 12.277344 14.886719 13.707031 C 14.96875 14.523438 14.867188 15.425781 14.34375 16.097656 C 14.777344 15.542969 17.160156 16.484375 17.398438 16.015625 C 17.492188 15.828125 16.773438 15.417969 16.753906 14.089844 C 16.734375 12.71875 17.367188 11.019531 17.089844 10.832031 " fill-opacity="1" fill-rule="nonzero"/><path fill="#4e4743" d="M 16.734375 16.671875 C 15.484375 18.5625 12.101562 20.652344 11.574219 21.011719 C 11.050781 21.375 10.800781 20.128906 10.800781 20.128906 C 10.800781 20.128906 13.605469 16.285156 14.003906 16.054688 C 14.402344 15.824219 17.015625 16.25 16.734375 16.671875 " fill-opacity="1" fill-rule="nonzero"/><path fill="#4e4743" d="M 16.59375 17.847656 L 15.328125 18.121094 C 14.800781 18.121094 13.847656 16.929688 13.847656 16.40625 C 13.847656 16.40625 13.933594 15.894531 14.535156 15.59375 L 17.371094 15.578125 C 17.6875 16.355469 17.609375 16.320312 17.609375 16.84375 L 17.441406 16.773438 C 17.441406 17.296875 17.117188 17.847656 16.59375 17.847656 " fill-opacity="1" fill-rule="nonzero"/><path fill="#2b0b02" d="M 21.214844 22.363281 C 21.210938 22.378906 21.210938 22.398438 21.210938 22.417969 C 21.210938 22.398438 21.210938 22.378906 21.214844 22.363281 " fill-opacity="1" fill-rule="nonzero"/><path fill="#2b0b02" d="M 21.207031 22.496094 C 21.207031 22.507812 21.203125 22.523438 21.203125 22.535156 C 21.203125 22.523438 21.207031 22.507812 21.207031 22.496094 " fill-opacity="1" fill-rule="nonzero"/><path fill="#f9ab89" d="M 8.699219 23.9375 C 8.695312 23.945312 8.285156 24.367188 8.285156 24.367188 C 8.285156 24.367188 7.921875 24.316406 7.9375 24.078125 C 7.953125 23.84375 8.367188 23.394531 8.367188 23.394531 L 8.699219 23.9375 " fill-opacity="1" fill-rule="nonzero"/><path fill="#2b0b02" d="M 8.308594 23.398438 C 8.300781 23.410156 8.289062 23.421875 8.273438 23.441406 C 8.289062 23.421875 8.300781 23.410156 8.308594 23.398438 " fill-opacity="1" fill-rule="nonzero"/><path fill="#2b0b02" d="M 8.226562 23.5 C 8.21875 23.507812 8.207031 23.519531 8.199219 23.53125 C 8.207031 23.519531 8.21875 23.507812 8.226562 23.5 " fill-opacity="1" fill-rule="nonzero"/><path fill="#2b0b02" d="M 8.332031 23.375 C 8.328125 23.378906 8.320312 23.386719 8.3125 23.398438 C 8.320312 23.386719 8.328125 23.378906 8.332031 23.375 " fill-opacity="1" fill-rule="nonzero"/><path fill="#2b0b02" d="M 8.339844 23.367188 L 8.332031 23.371094 L 8.339844 23.367188 " fill-opacity="1" fill-rule="nonzero"/><path fill="#f9ab89" d="M 15.230469 9.582031 C 15.390625 9.429688 15.960938 9.390625 16 9.652344 C 16.035156 9.886719 16.074219 10.671875 16.039062 10.789062 C 15.949219 11.101562 15.425781 11.601562 15.367188 11.4375 C 15.308594 11.277344 15.117188 9.6875 15.230469 9.582031 " fill-opacity="1" fill-rule="nonzero"/><path fill="#4e4743" d="M 19.898438 18.902344 C 20.011719 19.992188 20.546875 25.382812 20.371094 23.953125 C 20.304688 23.40625 21.195312 24.117188 21.195312 24.117188 C 21.195312 24.117188 21.839844 19.089844 21.351562 18.273438 C 21.082031 17.824219 19.898438 18.902344 19.898438 18.902344 " fill-opacity="1" fill-rule="nonzero"/><path fill="#4e4743" d="M 10.976562 19.953125 C 10.976562 19.953125 10.261719 20.164062 8.175781 23.371094 C 7.90625 23.789062 8.71875 24.0625 8.71875 24.0625 C 8.71875 24.0625 11.9375 20.992188 12.238281 20.574219 C 12.539062 20.15625 10.976562 19.953125 10.976562 19.953125 " fill-opacity="1" fill-rule="nonzero"/><path fill="#f6af97" d="M 16.492188 9.972656 C 16.101562 10.464844 15.707031 10.328125 15.359375 10.082031 C 14.941406 9.785156 14.765625 9.59375 14.6875 9.441406 C 14.609375 9.292969 14.4375 7.890625 14.503906 7.609375 C 14.574219 7.328125 16.109375 7.417969 16.40625 7.449219 C 17.03125 7.511719 16.875 9.488281 16.492188 9.972656 " fill-opacity="1" fill-rule="nonzero"/><path fill="#f6af97" d="M 14.394531 9.308594 C 14.457031 9.449219 14.613281 9.519531 14.742188 9.460938 C 14.871094 9.402344 14.921875 9.242188 14.859375 9.101562 C 14.796875 8.960938 14.644531 8.894531 14.511719 8.949219 C 14.386719 9.007812 14.332031 9.167969 14.394531 9.308594 " fill-opacity="1" fill-rule="nonzero"/><path fill="#f68280" d="M 14.503906 9.28125 C 14.539062 9.359375 14.621094 9.398438 14.691406 9.367188 C 14.761719 9.335938 14.792969 9.246094 14.757812 9.167969 C 14.722656 9.089844 14.636719 9.050781 14.566406 9.082031 C 14.496094 9.113281 14.46875 9.199219 14.503906 9.28125 " fill-opacity="1" fill-rule="nonzero"/><path fill="#73b4e2" d="M 17.371094 15.578125 C 17.417969 15.671875 16.335938 15.878906 16.335938 15.878906 C 15.957031 15.894531 15.441406 15.917969 15.054688 15.851562 C 14.550781 15.761719 14.5625 15.597656 14.5625 15.597656 C 15.195312 14.386719 14.6875 12.953125 14.644531 12.492188 C 15.1875 12.066406 15.027344 11.328125 14.804688 10.675781 C 14.882812 10.644531 14.964844 10.621094 15.054688 10.601562 C 15.054688 10.6875 15.0625 10.757812 15.074219 10.785156 C 15.203125 11.097656 16.066406 12.046875 16.242188 11.992188 C 16.589844 11.878906 16.171875 10.960938 16.230469 10.550781 C 16.40625 10.574219 16.570312 10.574219 16.675781 10.710938 C 16.808594 10.878906 16.871094 11.113281 16.992188 11.289062 C 17.140625 11.503906 17.167969 11.757812 17.230469 12.007812 C 17.363281 12.554688 16.972656 13.167969 16.929688 13.707031 C 16.855469 14.71875 17.203125 15.253906 17.371094 15.578125 " fill-opacity="1" fill-rule="nonzero"/><path fill="#f47132" d="M 16.925781 7.753906 C 16.953125 7.835938 16.972656 7.921875 16.988281 8.011719 C 17.011719 8.148438 16.976562 8.351562 16.964844 8.492188 C 16.957031 8.589844 16.84375 8.839844 16.800781 8.929688 C 16.761719 8.78125 16.78125 8.601562 16.789062 8.449219 C 16.792969 8.324219 16.796875 8.199219 16.753906 8.082031 C 16.714844 7.972656 16.640625 7.894531 16.535156 7.84375 C 16.496094 7.828125 16.441406 7.820312 16.40625 7.792969 C 16.367188 7.761719 16.351562 7.707031 16.320312 7.671875 C 16.25 7.582031 16.050781 7.414062 16.054688 7.289062 C 16.054688 7.109375 16.332031 7.222656 16.417969 7.257812 C 16.59375 7.328125 16.746094 7.425781 16.847656 7.589844 C 16.878906 7.640625 16.902344 7.695312 16.925781 7.753906 " fill-opacity="1" fill-rule="nonzero"/><path fill="#f47132" d="M 14.304688 7.761719 C 14.523438 7.289062 15.117188 7.195312 15.578125 7.195312 C 15.863281 7.195312 16.207031 7.136719 16.324219 7.484375 C 16.417969 7.769531 16.082031 8.105469 15.878906 8.253906 C 15.625 8.441406 15.324219 8.546875 15.03125 8.65625 C 15.039062 8.582031 15.046875 8.511719 15.054688 8.4375 C 14.828125 8.570312 14.65625 8.800781 14.597656 9.054688 C 14.621094 8.949219 14.328125 8.863281 14.277344 8.820312 C 14.179688 8.734375 14.1875 8.628906 14.1875 8.496094 C 14.1875 8.261719 14.203125 7.976562 14.304688 7.761719 " fill-opacity="1" fill-rule="nonzero"/></svg>