<svg xmlns="http://www.w3.org/2000/svg" xmlns:xlink="http://www.w3.org/1999/xlink" width="40" zoomAndPan="magnify" viewBox="0 0 30 30.000001" height="40" preserveAspectRatio="xMidYMid meet" version="1.0"><path fill="#ffffff" d="M 27.320312 14.316406 L 15.640625 2.648438 C 15.464844 2.472656 15.25 2.382812 15 2.382812 C 14.75 2.382812 14.535156 2.472656 14.359375 2.648438 L 2.679688 14.316406 C 2.339844 14.65625 2.148438 15.121094 2.148438 15.601562 C 2.148438 16.601562 2.960938 17.417969 3.960938 17.417969 L 5.191406 17.417969 L 5.191406 25.742188 C 5.191406 26.246094 5.597656 26.652344 6.101562 26.652344 L 13.183594 26.652344 L 13.183594 20.300781 L 16.359375 20.300781 L 16.359375 26.652344 L 23.898438 26.652344 C 24.402344 26.652344 24.808594 26.246094 24.808594 25.742188 L 24.808594 17.417969 L 26.039062 17.417969 C 26.519531 17.417969 26.980469 17.226562 27.320312 16.882812 C 28.027344 16.175781 28.027344 15.027344 27.320312 14.316406 " fill-opacity="1" fill-rule="nonzero"/></svg>