<svg xmlns="http://www.w3.org/2000/svg" xmlns:xlink="http://www.w3.org/1999/xlink" width="40" zoomAndPan="magnify" viewBox="0 0 30 30.000001" height="40" preserveAspectRatio="xMidYMid meet" version="1.0"><path fill="#ffffff" d="M 6.53125 22.984375 C 6.191406 22.984375 5.902344 22.867188 5.671875 22.636719 C 5.441406 22.402344 5.324219 22.117188 5.324219 21.773438 C 5.320312 21.433594 5.4375 21.144531 5.671875 20.914062 C 5.902344 20.679688 6.191406 20.566406 6.53125 20.566406 L 7.742188 20.566406 L 7.742188 12.097656 C 7.742188 10.421875 8.246094 8.9375 9.253906 7.636719 C 10.261719 6.335938 11.574219 5.484375 13.183594 5.082031 L 13.183594 4.234375 C 13.183594 3.730469 13.363281 3.300781 13.714844 2.949219 C 14.070312 2.597656 14.496094 2.421875 15 2.417969 C 15.503906 2.417969 15.933594 2.59375 16.285156 2.949219 C 16.640625 3.304688 16.816406 3.730469 16.816406 4.234375 L 16.816406 5.082031 C 18.425781 5.484375 19.738281 6.335938 20.746094 7.636719 C 21.753906 8.9375 22.257812 10.425781 22.257812 12.097656 L 22.257812 20.566406 L 23.46875 20.566406 C 23.808594 20.566406 24.097656 20.679688 24.332031 20.914062 C 24.5625 21.144531 24.679688 21.433594 24.675781 21.773438 C 24.675781 22.117188 24.558594 22.402344 24.328125 22.636719 C 24.097656 22.871094 23.808594 22.984375 23.46875 22.984375 Z M 15 26.613281 C 14.335938 26.613281 13.765625 26.375 13.292969 25.902344 C 12.820312 25.429688 12.582031 24.859375 12.582031 24.195312 L 17.417969 24.195312 C 17.417969 24.859375 17.183594 25.429688 16.710938 25.902344 C 16.234375 26.378906 15.667969 26.613281 15 26.613281 M 4.113281 12.097656 C 3.769531 12.097656 3.484375 11.964844 3.25 11.703125 C 3.019531 11.441406 2.925781 11.140625 2.964844 10.796875 C 3.125 9.285156 3.546875 7.878906 4.234375 6.578125 C 4.917969 5.277344 5.796875 4.140625 6.863281 3.175781 C 7.128906 2.953125 7.425781 2.851562 7.757812 2.871094 C 8.089844 2.894531 8.359375 3.042969 8.558594 3.328125 C 8.757812 3.609375 8.839844 3.910156 8.800781 4.234375 C 8.761719 4.554688 8.609375 4.839844 8.347656 5.082031 C 7.558594 5.828125 6.914062 6.695312 6.410156 7.679688 C 5.90625 8.667969 5.574219 9.738281 5.414062 10.886719 C 5.371094 11.230469 5.230469 11.515625 4.988281 11.75 C 4.746094 11.980469 4.457031 12.097656 4.113281 12.097656 M 25.886719 12.097656 C 25.542969 12.097656 25.253906 11.980469 25.011719 11.75 C 24.769531 11.515625 24.628906 11.230469 24.585938 10.886719 C 24.425781 9.738281 24.09375 8.667969 23.589844 7.679688 C 23.085938 6.695312 22.441406 5.828125 21.652344 5.082031 C 21.390625 4.839844 21.238281 4.554688 21.199219 4.234375 C 21.160156 3.910156 21.238281 3.609375 21.441406 3.328125 C 21.644531 3.042969 21.910156 2.894531 22.242188 2.871094 C 22.578125 2.851562 22.875 2.953125 23.136719 3.175781 C 24.203125 4.144531 25.082031 5.277344 25.765625 6.578125 C 26.453125 7.878906 26.875 9.285156 27.035156 10.796875 C 27.078125 11.140625 26.980469 11.441406 26.75 11.703125 C 26.519531 11.964844 26.230469 12.097656 25.886719 12.097656 " fill-opacity="1" fill-rule="nonzero"/></svg>