<svg xmlns="http://www.w3.org/2000/svg" xmlns:xlink="http://www.w3.org/1999/xlink" width="40" zoomAndPan="magnify" viewBox="0 0 30 30.000001" height="40" preserveAspectRatio="xMidYMid meet" version="1.0"><path fill="#ffffff" d="M 21.847656 13.546875 C 21.570312 13.183594 21.230469 12.871094 20.914062 12.554688 C 20.105469 11.832031 19.183594 11.308594 18.410156 10.546875 C 16.609375 8.78125 16.210938 5.867188 17.359375 3.628906 C 16.210938 3.90625 15.207031 4.535156 14.347656 5.226562 C 11.214844 7.742188 9.980469 12.179688 11.457031 15.992188 C 11.503906 16.113281 11.550781 16.234375 11.550781 16.390625 C 11.550781 16.65625 11.371094 16.898438 11.128906 16.996094 C 10.851562 17.117188 10.558594 17.042969 10.332031 16.851562 C 10.261719 16.792969 10.203125 16.722656 10.160156 16.644531 C 8.792969 14.914062 8.578125 12.433594 9.496094 10.453125 C 7.476562 12.097656 6.375 14.878906 6.53125 17.503906 C 6.605469 18.109375 6.675781 18.714844 6.882812 19.320312 C 7.050781 20.042969 7.378906 20.769531 7.742188 21.410156 C 9.046875 23.503906 11.308594 25.003906 13.742188 25.304688 C 16.332031 25.632812 19.101562 25.160156 21.085938 23.371094 C 23.296875 21.363281 24.074219 18.144531 22.933594 15.386719 L 22.777344 15.074219 C 22.523438 14.515625 21.847656 13.546875 21.847656 13.546875 M 18.023438 21.167969 C 17.683594 21.460938 17.128906 21.773438 16.695312 21.894531 C 15.339844 22.378906 13.984375 21.703125 13.183594 20.902344 C 14.625 20.566406 15.484375 19.5 15.738281 18.421875 C 15.945312 17.457031 15.554688 16.65625 15.398438 15.726562 C 15.253906 14.832031 15.277344 14.070312 15.605469 13.234375 C 15.835938 13.695312 16.078125 14.152344 16.367188 14.515625 C 17.296875 15.726562 18.761719 16.257812 19.078125 17.902344 C 19.125 18.074219 19.148438 18.242188 19.148438 18.421875 C 19.183594 19.414062 18.75 20.503906 18.023438 21.167969 " fill-opacity="1" fill-rule="nonzero"/></svg>