<svg xmlns="http://www.w3.org/2000/svg" xmlns:xlink="http://www.w3.org/1999/xlink" width="40" zoomAndPan="magnify" viewBox="0 0 30 30.000001" height="40" preserveAspectRatio="xMidYMid meet" version="1.0"><defs><clipPath id="15a13cc0de"><path d="M 1.933594 1.453125 L 28.066406 1.453125 L 28.066406 27.582031 L 1.933594 27.582031 Z M 1.933594 1.453125 " clip-rule="nonzero"/></clipPath></defs><g clip-path="url(#15a13cc0de)"><path fill="#e94b27" d="M 15 1.453125 C 22.21875 1.453125 28.066406 7.300781 28.066406 14.515625 L 28.066406 27.582031 L 15 27.582031 C 7.78125 27.582031 1.933594 21.734375 1.933594 14.515625 C 1.933594 7.300781 7.78125 1.453125 15 1.453125 Z M 15 1.453125 " fill-opacity="1" fill-rule="nonzero"/></g><path fill="#ffffff" d="M 18.539062 14.515625 C 18.539062 14.359375 18.566406 14.210938 18.628906 14.066406 C 18.6875 13.921875 18.773438 13.792969 18.882812 13.683594 C 18.996094 13.570312 19.121094 13.488281 19.265625 13.425781 C 19.410156 13.367188 19.5625 13.335938 19.71875 13.335938 C 19.875 13.335938 20.023438 13.367188 20.167969 13.425781 C 20.3125 13.488281 20.441406 13.570312 20.550781 13.683594 C 20.664062 13.792969 20.746094 13.921875 20.808594 14.066406 C 20.867188 14.210938 20.898438 14.359375 20.898438 14.515625 C 20.898438 14.671875 20.867188 14.824219 20.808594 14.96875 C 20.746094 15.113281 20.664062 15.238281 20.550781 15.351562 C 20.441406 15.460938 20.3125 15.546875 20.167969 15.605469 C 20.023438 15.664062 19.875 15.695312 19.71875 15.695312 C 19.5625 15.695312 19.410156 15.664062 19.265625 15.605469 C 19.121094 15.546875 18.996094 15.460938 18.882812 15.351562 C 18.773438 15.238281 18.6875 15.113281 18.628906 14.96875 C 18.566406 14.824219 18.539062 14.671875 18.539062 14.515625 Z M 18.539062 14.515625 " fill-opacity="1" fill-rule="nonzero"/><path fill="#ffffff" d="M 13.820312 14.515625 C 13.820312 14.359375 13.851562 14.210938 13.910156 14.066406 C 13.96875 13.921875 14.054688 13.792969 14.164062 13.683594 C 14.277344 13.570312 14.402344 13.488281 14.546875 13.425781 C 14.691406 13.367188 14.84375 13.335938 15 13.335938 C 15.15625 13.335938 15.308594 13.367188 15.453125 13.425781 C 15.597656 13.488281 15.722656 13.570312 15.835938 13.683594 C 15.945312 13.792969 16.03125 13.921875 16.089844 14.066406 C 16.148438 14.210938 16.179688 14.359375 16.179688 14.515625 C 16.179688 14.671875 16.148438 14.824219 16.089844 14.96875 C 16.03125 15.113281 15.945312 15.238281 15.835938 15.351562 C 15.722656 15.460938 15.597656 15.546875 15.453125 15.605469 C 15.308594 15.664062 15.15625 15.695312 15 15.695312 C 14.84375 15.695312 14.691406 15.664062 14.546875 15.605469 C 14.402344 15.546875 14.277344 15.460938 14.164062 15.351562 C 14.054688 15.238281 13.96875 15.113281 13.910156 14.96875 C 13.851562 14.824219 13.820312 14.671875 13.820312 14.515625 Z M 13.820312 14.515625 " fill-opacity="1" fill-rule="nonzero"/><path fill="#ffffff" d="M 9.101562 14.515625 C 9.101562 14.359375 9.132812 14.210938 9.191406 14.066406 C 9.253906 13.921875 9.335938 13.792969 9.449219 13.683594 C 9.558594 13.570312 9.6875 13.488281 9.832031 13.425781 C 9.976562 13.367188 10.125 13.335938 10.28125 13.335938 C 10.4375 13.335938 10.589844 13.367188 10.734375 13.425781 C 10.878906 13.488281 11.003906 13.570312 11.117188 13.683594 C 11.226562 13.792969 11.3125 13.921875 11.371094 14.066406 C 11.433594 14.210938 11.460938 14.359375 11.460938 14.515625 C 11.460938 14.671875 11.433594 14.824219 11.371094 14.96875 C 11.3125 15.113281 11.226562 15.238281 11.117188 15.351562 C 11.003906 15.460938 10.878906 15.546875 10.734375 15.605469 C 10.589844 15.664062 10.4375 15.695312 10.28125 15.695312 C 10.125 15.695312 9.976562 15.664062 9.832031 15.605469 C 9.6875 15.546875 9.558594 15.460938 9.449219 15.351562 C 9.335938 15.238281 9.253906 15.113281 9.191406 14.96875 C 9.132812 14.824219 9.101562 14.671875 9.101562 14.515625 Z M 9.101562 14.515625 " fill-opacity="1" fill-rule="nonzero"/></svg>